<?xml version="1.0" encoding="utf-8"?>
<svg version="1.1" xmlns:xlink="http://www.w3.org/1999/xlink" width="243px" height="154px" xmlns="http://www.w3.org/2000/svg">
  <g transform="matrix(1 0 0 1 -73 -138 )">
    <path d="M 73 138  L 316 138  L 316 292  L 73 292  L 73 138  " fill-rule="nonzero" fill="#cccccc" stroke="none" />
    <path d="M 84 149  L 305 149  L 305 281  L 84 281  L 84 149  " fill-rule="nonzero" fill="#ffffff" stroke="none" />
    <path d="M 210.91 184.2  C 204.442 184.2  199.36 179.118  199.36 172.65  C 199.36 166.182  204.442 161.1  210.91 161.1  C 217.378 161.1  222.46 166.182  222.46 172.65  C 222.46 179.118  217.378 184.2  210.91 184.2  " fill-rule="nonzero" fill="#cccccc" stroke="none" />
    <path d="M 88 277  L 88 208.8  L 141.25 177.8  L 215.8 229.849382716049  L 258.4 196.4  L 301 229.849382716049  L 301 277  L 88 277  " fill-rule="nonzero" fill="#169bd5" stroke="none" />
  </g>
</svg>