<?xml version="1.0" encoding="utf-8"?>
<svg version="1.1" xmlns:xlink="http://www.w3.org/1999/xlink" width="65px" height="37px" xmlns="http://www.w3.org/2000/svg">
  <g>
    <path d="M 0 0  L 65 0  L 65 37  L 0 37  L 0 0  " fill-rule="nonzero" fill="#cccccc" stroke="none" />
    <path d="M 3 3  L 62 3  L 62 34  L 3 34  L 3 3  " fill-rule="nonzero" fill="#ffffff" stroke="none" />
    <path d="M 36.575 11.1  C 35.021 11.1  33.8 9.879  33.8 8.325  C 33.8 6.771  35.021 5.55  36.575 5.55  C 38.129 5.55  39.35 6.771  39.35 8.325  C 39.35 9.879  38.129 11.1  36.575 11.1  " fill-rule="nonzero" fill="#cccccc" stroke="none" />
    <path d="M 4 33  L 4 17.05  L 18.25 9.8  L 38.2 23.0953846153846  L 49.6 14.15  L 61 23.0953846153846  L 61 33  L 4 33  " fill-rule="nonzero" fill="#169bd5" stroke="none" />
  </g>
</svg>