<?xml version="1.0" encoding="utf-8"?>
<svg version="1.1" xmlns:xlink="http://www.w3.org/1999/xlink" width="20px" height="8px" xmlns="http://www.w3.org/2000/svg">
  <g transform="matrix(1 0 0 1 -156 -165 )">
    <path d="M 19.7995991983968 0.824742268041237  C 19.9331997327989 0.916380297823594  20 1.02176403207331  20 1.14089347079038  C 20 1.26002290950744  19.9331997327989 1.36540664375716  19.7995991983968 1.45704467353952  L 10.4609218436874 7.86254295532646  C 10.3273213092852 7.95418098510882  10.1736806947228 8  10 8  C 9.82631930527722 8  9.67267869071476 7.95418098510882  9.53907815631263 7.86254295532646  L 0.200400801603206 1.45704467353952  C 0.066800267201069 1.36540664375716  0 1.26002290950744  0 1.14089347079038  C 0 1.02176403207331  0.066800267201069 0.916380297823594  0.200400801603206 0.824742268041237  L 1.20240480961924 0.13745704467354  C 1.33600534402138 0.0458190148911788  1.48964595858383 0  1.66332665330661 0  C 1.83700734802939 0  1.99064796259185 0.0458190148911788  2.12424849699399 0.13745704467354  L 10 5.53951890034364  L 17.875751503006 0.13745704467354  C 18.0093520374081 0.0458190148911788  18.1629926519706 0  18.3366733466934 0  C 18.5103540414162 0  18.6639946559786 0.0458190148911788  18.7975951903808 0.13745704467354  L 19.7995991983968 0.824742268041237  Z " fill-rule="nonzero" fill="#666666" stroke="none" transform="matrix(1 0 0 1 156 165 )" />
  </g>
</svg>