<?xml version="1.0" encoding="utf-8"?>
<svg version="1.1" xmlns:xlink="http://www.w3.org/1999/xlink" width="11px" height="11px" xmlns="http://www.w3.org/2000/svg">
  <g transform="matrix(1 0 0 1 -251 -120 )">
    <path d="M 8.09244791666669 7.44791666666667  C 8.18315972222223 7.3572048611111  8.228515625 7.24739583333333  8.228515625 7.11848958333333  C 8.228515625 6.9943576388889  8.18315972222223 6.8869357638889  8.09244791666669 6.79622395833333  L 6.79622395833331 5.5  L 8.09244791666669 4.20377604166667  C 8.18315972222223 4.1130642361111  8.228515625 4.0056423611111  8.228515625 3.88151041666667  C 8.228515625 3.75260416666667  8.18315972222223 3.6427951388889  8.09244791666669 3.55208333333333  L 7.44791666666669 2.90755208333333  C 7.35720486111109 2.81684027777776  7.24739583333331 2.771484375  7.11848958333331 2.771484375  C 6.99435763888891 2.771484375  6.88693576388891 2.81684027777776  6.79622395833331 2.90755208333333  L 5.5 4.20377604166667  L 4.20377604166669 2.90755208333333  C 4.11306423611109 2.81684027777776  4.00564236111109 2.771484375  3.88151041666669 2.771484375  C 3.75260416666669 2.771484375  3.64279513888891 2.81684027777776  3.55208333333331 2.90755208333333  L 2.90755208333331 3.55208333333333  C 2.81684027777777 3.6427951388889  2.771484375 3.75260416666667  2.771484375 3.88151041666667  C 2.771484375 4.0056423611111  2.81684027777777 4.1130642361111  2.90755208333331 4.20377604166667  L 4.20377604166669 5.5  L 2.90755208333331 6.79622395833333  C 2.81684027777777 6.8869357638889  2.771484375 6.9943576388889  2.771484375 7.11848958333333  C 2.771484375 7.24739583333333  2.81684027777777 7.3572048611111  2.90755208333331 7.44791666666667  L 3.55208333333331 8.09244791666667  C 3.64279513888891 8.18315972222223  3.75260416666669 8.228515625  3.88151041666669 8.228515625  C 4.00564236111109 8.228515625  4.11306423611109 8.18315972222223  4.20377604166669 8.09244791666667  L 5.5 6.79622395833333  L 6.79622395833331 8.09244791666667  C 6.88693576388891 8.18315972222223  6.99435763888891 8.228515625  7.11848958333331 8.228515625  C 7.24739583333331 8.228515625  7.35720486111109 8.18315972222223  7.44791666666669 8.09244791666667  L 8.09244791666669 7.44791666666667  Z M 10.2623697916667 2.7392578125  C 10.7541232638889 3.58192274305557  11 4.5021701388889  11 5.5  C 11 6.4978298611111  10.7541232638889 7.41807725694443  10.2623697916667 8.2607421875  C 9.77061631944446 9.10340711805557  9.10340711805554 9.77061631944443  8.2607421875 10.2623697916667  C 7.41807725694446 10.7541232638889  6.49782986111109 11  5.5 11  C 4.50217013888891 11  3.58192274305554 10.7541232638889  2.7392578125 10.2623697916667  C 1.89659288194446 9.77061631944443  1.22938368055554 9.10340711805557  0.737630208333343 8.2607421875  C 0.245876736111086 7.41807725694443  0 6.4978298611111  0 5.5  C 0 4.5021701388889  0.245876736111086 3.58192274305557  0.737630208333343 2.7392578125  C 1.22938368055554 1.89659288194443  1.89659288194446 1.22938368055553  2.7392578125 0.737630208333329  C 3.58192274305554 0.2458767361111  4.50217013888891 0  5.5 0  C 6.49782986111109 0  7.41807725694446 0.2458767361111  8.2607421875 0.737630208333329  C 9.10340711805554 1.22938368055553  9.77061631944446 1.89659288194443  10.2623697916667 2.7392578125  Z " fill-rule="nonzero" fill="#000000" stroke="none" transform="matrix(1 0 0 1 251 120 )" />
  </g>
</svg>