<?xml version="1.0" encoding="utf-8"?>
<svg version="1.1" xmlns:xlink="http://www.w3.org/1999/xlink" width="13px" height="13px" xmlns="http://www.w3.org/2000/svg">
  <g transform="matrix(1 0 0 1 -84 -119 )">
    <path d="M 7.97265625 7.97265625  C 8.65755208333334 7.28776041666666  9.00000000000001 6.46354166666669  9.00000000000001 5.5  C 9.00000000000001 4.53645833333336  8.65755208333334 3.71223958333334  7.97265625 3.02734375  C 7.28776041666666 2.34244791666666  6.46354166666669 2  5.5 2  C 5.47462930817912 2  5.44935520947472 2.00023742046372  5.42417770388671 2.00071226139124  C 4.49315047260491 2.01827118248777  3.69420582130934 2.36048167869068  3.02734375 3.02734375  C 2.34244791666666 3.71223958333334  2 4.53645833333336  2 5.5  C 2 6.46354166666669  2.34244791666666 7.28776041666666  3.02734375 7.97265625  C 3.71223958333334 8.65755208333334  4.53645833333336 9.00000000000001  5.5 9.00000000000001  C 6.46354166666669 9.00000000000001  7.28776041666666 8.65755208333334  7.97265625 7.97265625  Z M 12.7109375 11.296875  C 12.9036458333333 11.4895833333333  13 11.7239583333333  13 12  C 13 12.2708333333333  12.9010416666667 12.5052083333333  12.703125 12.703125  C 12.5052083333333 12.9010416666667  12.2708333333333 13  12 13  C 11.71875 13  11.484375 12.9010416666667  11.296875 12.703125  L 8.6171875 10.03125  C 7.68489583333336 10.6770833333333  6.64583333333334 11  5.5 11  C 4.75520833333333 11  4.04296875 10.85546875  3.36328125000001 10.56640625  C 2.68359375000001 10.27734375  2.09765625 9.88671875000001  1.60546875 9.39453125  C 1.11328124999997 8.90234375  0.722656250000014 8.31640624999999  0.433593750000014 7.63671875  C 0.144531250000014 6.95703125  0 6.24479166666669  0 5.5  C 0 4.75520833333333  0.144531250000014 4.04296875  0.433593750000014 3.36328125000001  C 0.722656250000014 2.68359375000001  1.11328124999997 2.09765625  1.60546875 1.60546875  C 2.09765625 1.11328124999997  2.68359375000001 0.722656250000014  3.36328125000001 0.433593750000014  C 4.04296875 0.144531250000014  4.75520833333333 0  5.5 0  C 6.24479166666669 0  6.95703125 0.144531250000014  7.63671875 0.433593750000014  C 8.31640624999999 0.722656250000014  8.90234375 1.11328124999997  9.39453125 1.60546875  C 9.88671875 2.09765625  10.27734375 2.68359375000001  10.56640625 3.36328125000001  C 10.85546875 4.04296875  11 4.75520833333333  11 5.5  C 11 6.64583333333334  10.6770833333333 7.68489583333336  10.03125 8.6171875  L 12.7109375 11.296875  Z " fill-rule="nonzero" fill="#000000" stroke="none" transform="matrix(1 0 0 1 84 119 )" />
  </g>
</svg>