<?xml version="1.0" encoding="utf-8"?>
<svg version="1.1" xmlns:xlink="http://www.w3.org/1999/xlink" width="56px" height="17px" xmlns="http://www.w3.org/2000/svg">
  <g transform="matrix(1 0 0 1 -228 -334 )">
    <path d="M 0 12.2777777777778  L 0 4.72222222222224  C 0 2.07777777777774  3.97419354838709 0  9.03225806451612 0  L 28.9032258064516 0  L 30 0  L 38 0  L 38.5777777777778 0  L 44.8 0  L 46.9677419354839 0  C 52.0258064516129 0  56 2.07777777777774  56 4.72222222222224  L 56 12.2777777777778  C 56 14.9222222222223  52.0258064516129 17  46.9677419354839 17  L 36 17  L 9.03225806451612 17  C 3.97419354838709 17  0 14.9222222222223  0 12.2777777777778  Z " fill-rule="nonzero" fill="#f2f2f2" stroke="none" transform="matrix(1 0 0 1 228 334 )" />
  </g>
</svg>