<?xml version="1.0" encoding="utf-8"?>
<svg version="1.1" xmlns:xlink="http://www.w3.org/1999/xlink" width="47px" height="18px" xmlns="http://www.w3.org/2000/svg">
  <g transform="matrix(1 0 0 1 -323 -307 )">
    <path d="M 0 13  L 0 5.00000000000001  C 0 2.19999999999996  3.33548387096774 0  7.58064516129032 0  L 24.258064516129 0  L 25.1785714285714 0  L 31.8928571428571 0  L 32.3777777777778 0  L 37.6 0  L 39.4193548387097 0  C 43.6645161290323 0  47 2.19999999999996  47 5.00000000000001  L 47 13  C 47 15.8  43.6645161290323 18  39.4193548387097 18  L 30.2142857142857 18  L 7.58064516129032 18  C 3.33548387096774 18  0 15.8  0 13  Z " fill-rule="nonzero" fill="#f2f2f2" stroke="none" transform="matrix(1 0 0 1 323 307 )" />
  </g>
</svg>