<?xml version="1.0" encoding="utf-8"?>
<svg version="1.1" xmlns:xlink="http://www.w3.org/1999/xlink" width="49px" height="18px" xmlns="http://www.w3.org/2000/svg">
  <g transform="matrix(1 0 0 1 -380 -307 )">
    <path d="M 0 13  L 0 5.00000000000001  C 0 2.19999999999996  3.4774193548387 0  7.9032258064516 0  L 25.2903225806451 0  L 26.25 0  L 33.25 0  L 33.7555555555556 0  L 39.2 0  L 41.0967741935484 0  C 45.5225806451613 0  49 2.19999999999996  49 5.00000000000001  L 49 13  C 49 15.8  45.5225806451613 18  41.0967741935484 18  L 31.5 18  L 7.9032258064516 18  C 3.4774193548387 18  0 15.8  0 13  Z " fill-rule="nonzero" fill="#f2f2f2" stroke="none" transform="matrix(1 0 0 1 380 307 )" />
  </g>
</svg>