<?xml version="1.0" encoding="utf-8"?>
<svg version="1.1" xmlns:xlink="http://www.w3.org/1999/xlink" width="30px" height="68px" xmlns="http://www.w3.org/2000/svg">
  <g transform="matrix(1 0 0 1 -502 -125 )">
    <path d="M 25 19.4285714285714  C 25 23.1473214285714  24.4856770833333 26.5877976190476  23.45703125 29.75  C 24.0690104166667 30.1041666666667  24.6516927083333 30.5848214285714  25.205078125 31.1919642857143  C 25.7584635416667 31.7991071428571  26.337890625 32.7224702380952  26.943359375 33.9620535714286  C 27.548828125 35.2016369047619  28.06640625 36.6625744047619  28.49609375 38.3448660714286  C 28.92578125 40.0271577380952  29.2838541666667 42.2027529761905  29.5703125 44.8716517857143  C 29.8567708333333 47.5405505952381  30 50.5319940476191  30 53.8459821428571  C 30 57.7418154761905  29.3489583333333 61.0747767857143  28.046875 63.8448660714286  C 26.7447916666667 66.6149553571429  25.17578125 68  23.33984375 68  L 6.66015625 68  C 4.82421875 68  3.25520833333333 66.6149553571429  1.953125 63.8448660714286  C 0.651041666666667 61.0747767857143  0 57.7418154761905  0 53.8459821428571  C 0 50.5319940476191  0.143229166666667 47.5405505952381  0.4296875 44.8716517857143  C 0.716145833333333 42.2027529761905  1.07421875 40.0271577380952  1.50390625 38.3448660714286  C 1.93359375 36.6625744047619  2.451171875 35.2016369047619  3.056640625 33.9620535714286  C 3.662109375 32.7224702380952  4.24153645833333 31.7991071428571  4.794921875 31.1919642857143  C 5.34830729166667 30.5848214285714  5.93098958333333 30.1041666666667  6.54296875 29.75  C 5.51432291666667 26.5877976190476  5 23.1473214285714  5 19.4285714285714  C 5 16.797619047619  5.263671875 14.2868303571429  5.791015625 11.8962053571429  C 6.318359375 9.50558035714285  7.03125 7.4375  7.9296875 5.69196428571428  C 8.828125 3.94642857142857  9.892578125 2.56138392857143  11.123046875 1.53683035714286  C 12.353515625 0.512276785714282  13.6458333333333 0  15 0  C 16.3541666666667 0  17.646484375 0.512276785714282  18.876953125 1.53683035714286  C 20.107421875 2.56138392857143  21.171875 3.94642857142857  22.0703125 5.69196428571428  C 22.96875 7.4375  23.681640625 9.50558035714285  24.208984375 11.8962053571429  C 24.736328125 14.2868303571429  25 16.797619047619  25 19.4285714285714  Z M 20.302734375 9.12611607142857  C 18.837890625 6.28013392857143  17.0703125 4.85714285714286  15 4.85714285714286  C 12.9296875 4.85714285714286  11.162109375 6.28013392857143  9.697265625 9.12611607142857  C 8.232421875 11.9720982142857  7.5 15.40625  7.5 19.4285714285714  C 7.5 23.4508928571429  8.232421875 26.8850446428571  9.697265625 29.7310267857143  C 11.162109375 32.5770089285714  12.9296875 34  15 34  C 17.0703125 34  18.837890625 32.5770089285714  20.302734375 29.7310267857143  C 21.767578125 26.8850446428571  22.5 23.4508928571429  22.5 19.4285714285714  C 22.5 15.40625  21.767578125 11.9720982142857  20.302734375 9.12611607142857  Z M 6.66015625 63  L 23.33984375 63  C 24.4856770833333 63.1428571428571  25.4654947916667 62.2384672619048  26.279296875 60.4296875  C 27.0930989583333 58.6209077380952  27.5 56.4263392857143  27.5 53.8459821428571  C 27.5 47.7998511904762  26.9889322916667 43.03125  25.966796875 39.5401785714286  C 24.9446614583333 36.0491071428571  23.4765625 34.2150297619048  21.5625 34.0379464285714  C 19.6744791666667 37.2507440476191  17.4869791666667 38.8571428571429  15 38.8571428571429  C 12.5130208333333 38.8571428571429  10.3255208333333 37.2507440476191  8.4375 34.0379464285714  C 6.5234375 34.2150297619048  5.05533854166667 36.0491071428571  4.033203125 39.5401785714286  C 3.01106770833333 43.03125  2.5 47.7998511904762  2.5 53.8459821428571  C 2.5 56.4263392857143  2.90690104166667 58.6209077380952  3.720703125 60.4296875  C 4.53450520833333 62.2384672619048  5.51432291666667 63.1428571428571  6.66015625 63  Z " fill-rule="nonzero" fill="#66cccc" stroke="none" transform="matrix(1 0 0 1 502 125 )" />
  </g>
</svg>