<?xml version="1.0" encoding="utf-8"?>
<svg version="1.1" xmlns:xlink="http://www.w3.org/1999/xlink" width="26px" height="26px" xmlns="http://www.w3.org/2000/svg">
  <g transform="matrix(1 0 0 1 -479 -579 )">
    <path d="M 492 579  C 499.28 579  505 584.72  505 592  C 505 599.28  499.28 605  492 605  C 484.72 605  479 599.28  479 592  C 479 584.72  484.72 579  492 579  Z " fill-rule="nonzero" fill="#66cccc" stroke="none" />
    <path d="M 492 579.5  C 499 579.5  504.5 585  504.5 592  C 504.5 599  499 604.5  492 604.5  C 485 604.5  479.5 599  479.5 592  C 479.5 585  485 579.5  492 579.5  Z " stroke-width="1" stroke="#797979" fill="none" />
  </g>
</svg>