<?xml version="1.0" encoding="utf-8"?>
<svg version="1.1" xmlns:xlink="http://www.w3.org/1999/xlink" width="73px" height="45px" xmlns="http://www.w3.org/2000/svg">
  <g transform="matrix(1 0 0 1 -371 -590 )">
    <path d="M 372 596  A 5 5 0 0 1 377 591 L 438 591  A 5 5 0 0 1 443 596 L 443 629  A 5 5 0 0 1 438 634 L 377 634  A 5 5 0 0 1 372 629 L 372 596  Z " fill-rule="nonzero" fill="#00bfbf" stroke="none" fill-opacity="0.752941176470588" />
    <path d="M 371.5 596  A 5.5 5.5 0 0 1 377 590.5 L 438 590.5  A 5.5 5.5 0 0 1 443.5 596 L 443.5 629  A 5.5 5.5 0 0 1 438 634.5 L 377 634.5  A 5.5 5.5 0 0 1 371.5 629 L 371.5 596  Z " stroke-width="1" stroke="#000000" fill="none" stroke-opacity="0.752941176470588" />
  </g>
</svg>