<?xml version="1.0" encoding="utf-8"?>
<svg version="1.1" xmlns:xlink="http://www.w3.org/1999/xlink" width="184px" height="75px" xmlns="http://www.w3.org/2000/svg">
  <g transform="matrix(1 0 0 1 -64 -245 )">
    <path d="M 64 245  L 248 245  L 248 320  L 64 320  L 64 245  " fill-rule="nonzero" fill="#cccccc" stroke="none" />
    <path d="M 69 250  L 243 250  L 243 315  L 69 315  L 69 250  " fill-rule="nonzero" fill="#ffffff" stroke="none" />
    <path d="M 165.305 267.5  C 162.155 267.5  159.68 265.025  159.68 261.875  C 159.68 258.725  162.155 256.25  165.305 256.25  C 168.455 256.25  170.93 258.725  170.93 261.875  C 170.93 265.025  168.455 267.5  165.305 267.5  " fill-rule="nonzero" fill="#cccccc" stroke="none" />
    <path d="M 71 313  L 71 279.45  L 113.5 264.2  L 173 298.08152173913  L 207 273.35  L 241 298.08152173913  L 241 313  L 71 313  " fill-rule="nonzero" fill="#169bd5" stroke="none" />
  </g>
</svg>