<?xml version="1.0" encoding="utf-8"?>
<svg version="1.1" xmlns:xlink="http://www.w3.org/1999/xlink" width="42px" height="42px" xmlns="http://www.w3.org/2000/svg">
  <g transform="matrix(1 0 0 1 -72 -330 )">
    <path d="M 93 330  C 104.76 330  114 339.24  114 351  C 114 362.76  104.76 372  93 372  C 81.24 372  72 362.76  72 351  C 72 339.24  81.24 330  93 330  Z " fill-rule="nonzero" fill="#ffffff" stroke="none" />
    <path d="M 93 330.5  C 104.48 330.5  113.5 339.52  113.5 351  C 113.5 362.48  104.48 371.5  93 371.5  C 81.52 371.5  72.5 362.48  72.5 351  C 72.5 339.52  81.52 330.5  93 330.5  Z " stroke-width="1" stroke="#797979" fill="none" />
  </g>
</svg>