<?xml version="1.0" encoding="utf-8"?>
<svg version="1.1" xmlns:xlink="http://www.w3.org/1999/xlink" width="12px" height="12px" viewBox="280 321  12 12" xmlns="http://www.w3.org/2000/svg">
  <path d="M 286 321  C 289.36 321  292 323.64  292 327  C 292 330.36  289.36 333  286 333  C 282.64 333  280 330.36  280 327  C 280 323.64  282.64 321  286 321  Z " fill-rule="nonzero" fill="#ffffff" stroke="none" />
  <path d="M 286 321.5  C 289.08 321.5  291.5 323.92  291.5 327  C 291.5 330.08  289.08 332.5  286 332.5  C 282.92 332.5  280.5 330.08  280.5 327  C 280.5 323.92  282.92 321.5  286 321.5  Z " stroke-width="1" stroke="#797979" fill="none" />
  <path d="M 286 330  C 284.32 330  283 328.68  283 327  C 283 325.32  284.32 324  286 324  C 287.68 324  289 325.32  289 327  C 289 328.68  287.68 330  286 330  " fill-rule="nonzero" fill="#797979" stroke="none" />
</svg>