<?xml version="1.0" encoding="utf-8"?>
<svg version="1.1" xmlns:xlink="http://www.w3.org/1999/xlink" width="12px" height="12px" viewBox="201 392  12 12" xmlns="http://www.w3.org/2000/svg">
  <path d="M 207 392  C 210.36 392  213 394.64  213 398  C 213 401.36  210.36 404  207 404  C 203.64 404  201 401.36  201 398  C 201 394.64  203.64 392  207 392  Z " fill-rule="nonzero" fill="#ffffff" stroke="none" />
  <path d="M 207 392.5  C 210.08 392.5  212.5 394.92  212.5 398  C 212.5 401.08  210.08 403.5  207 403.5  C 203.92 403.5  201.5 401.08  201.5 398  C 201.5 394.92  203.92 392.5  207 392.5  Z " stroke-width="1" stroke="#797979" fill="none" />
  <path d="M 207 401  C 205.32 401  204 399.68  204 398  C 204 396.32  205.32 395  207 395  C 208.68 395  210 396.32  210 398  C 210 399.68  208.68 401  207 401  " fill-rule="nonzero" fill="#797979" stroke="none" />
</svg>