<?xml version="1.0" encoding="utf-8"?>
<svg version="1.1" xmlns:xlink="http://www.w3.org/1999/xlink" width="12px" height="12px" viewBox="155 446  12 12" xmlns="http://www.w3.org/2000/svg">
  <path d="M 161 446  C 164.36 446  167 448.64  167 452  C 167 455.36  164.36 458  161 458  C 157.64 458  155 455.36  155 452  C 155 448.64  157.64 446  161 446  Z " fill-rule="nonzero" fill="#ffffff" stroke="none" />
  <path d="M 161 446.5  C 164.08 446.5  166.5 448.92  166.5 452  C 166.5 455.08  164.08 457.5  161 457.5  C 157.92 457.5  155.5 455.08  155.5 452  C 155.5 448.92  157.92 446.5  161 446.5  Z " stroke-width="1" stroke="#797979" fill="none" />
  <path d="M 161 455  C 159.32 455  158 453.68  158 452  C 158 450.32  159.32 449  161 449  C 162.68 449  164 450.32  164 452  C 164 453.68  162.68 455  161 455  " fill-rule="nonzero" fill="#797979" stroke="none" />
</svg>