<?xml version="1.0" encoding="utf-8"?>
<svg version="1.1" xmlns:xlink="http://www.w3.org/1999/xlink" width="12px" height="12px" viewBox="265 446  12 12" xmlns="http://www.w3.org/2000/svg">
  <path d="M 271 446  C 274.36 446  277 448.64  277 452  C 277 455.36  274.36 458  271 458  C 267.64 458  265 455.36  265 452  C 265 448.64  267.64 446  271 446  Z " fill-rule="nonzero" fill="#ffffff" stroke="none" />
  <path d="M 271 446.5  C 274.08 446.5  276.5 448.92  276.5 452  C 276.5 455.08  274.08 457.5  271 457.5  C 267.92 457.5  265.5 455.08  265.5 452  C 265.5 448.92  267.92 446.5  271 446.5  Z " stroke-width="1" stroke="#797979" fill="none" />
  <path d="M 271 455  C 269.32 455  268 453.68  268 452  C 268 450.32  269.32 449  271 449  C 272.68 449  274 450.32  274 452  C 274 453.68  272.68 455  271 455  " fill-rule="nonzero" fill="#797979" stroke="none" />
</svg>