<?xml version="1.0" encoding="utf-8"?>
<svg version="1.1" xmlns:xlink="http://www.w3.org/1999/xlink" width="21px" height="23px" xmlns="http://www.w3.org/2000/svg">
  <g transform="matrix(1 0 0 1 -308 -431 )">
    <path d="M 17.5 6.57142857142861  C 17.5 7.82924107142861  17.1399739583333 8.99293154761909  16.419921875 10.0625  C 16.8483072916666 10.1822916666666  17.2561848958334 10.3448660714286  17.6435546875 10.5502232142857  C 18.0309244791667 10.7555803571429  18.4365234375 11.0678943452381  18.8603515625 11.4871651785714  C 19.2841796875 11.9064360119048  19.646484375 12.4005766369048  19.947265625 12.9695870535714  C 20.248046875 13.5385974702381  20.4986979166666 14.2744605654762  20.69921875 15.1771763392857  C 20.8997395833333 16.0798921130952  21 17.0917038690476  21 18.2126116071429  C 21 19.5303199404762  20.5442708333333 20.6576450892857  19.6328125 21.5945870535714  C 18.7213541666667 22.5315290178571  17.623046875 23  16.337890625 23  L 4.662109375 23  C 3.376953125 23  2.27864583333331 22.5315290178571  1.3671875 21.5945870535714  C 0.455729166666686 20.6576450892857  0 19.5303199404762  0 18.2126116071429  C 0 17.0917038690476  0.100260416666686 16.0798921130952  0.30078125 15.1771763392857  C 0.501302083333371 14.2744605654762  0.751953125 13.5385974702381  1.052734375 12.9695870535714  C 1.353515625 12.4005766369048  1.7158203125 11.9064360119048  2.1396484375 11.4871651785714  C 2.5634765625 11.0678943452381  2.96907552083331 10.7555803571429  3.3564453125 10.5502232142857  C 3.74381510416663 10.3448660714286  4.15169270833337 10.1822916666666  4.580078125 10.0625  C 3.86002604166669 8.99293154761909  3.5 7.82924107142861  3.5 6.57142857142861  C 3.5 5.68154761904765  3.6845703125 4.83231026785711  4.0537109375 4.02371651785711  C 4.4228515625 3.21512276785711  4.921875 2.515625  5.55078125 1.92522321428572  C 6.1796875 1.33482142857139  6.9248046875 0.866350446428612  7.7861328125 0.51981026785711  C 8.6474609375 0.173270089285722  9.55208333333331 0  10.5 0  C 11.4479166666667 0  12.3525390625 0.173270089285722  13.2138671875 0.51981026785711  C 14.0751953125 0.866350446428612  14.8203125 1.33482142857139  15.44921875 1.92522321428572  C 16.078125 2.515625  16.5771484375 3.21512276785711  16.9462890625 4.02371651785711  C 17.3154296875 4.83231026785711  17.5 5.68154761904765  17.5 6.57142857142861  Z M 14.2119140625 3.08677455357139  C 13.1865234375 2.12416294642861  11.94921875 1.64285714285711  10.5 1.64285714285711  C 9.05078125 1.64285714285711  7.8134765625 2.12416294642861  6.7880859375 3.08677455357139  C 5.7626953125 4.04938616071428  5.25 5.2109375  5.25 6.57142857142861  C 5.25 7.93191964285711  5.7626953125 9.09347098214289  6.7880859375 10.0560825892857  C 7.8134765625 11.0186941964286  9.05078125 11.5  10.5 11.5  C 11.94921875 11.5  13.1865234375 11.0186941964286  14.2119140625 10.0560825892857  C 15.2373046875 9.09347098214289  15.75 7.93191964285711  15.75 6.57142857142861  C 15.75 5.2109375  15.2373046875 4.04938616071428  14.2119140625 3.08677455357139  Z M 4.662109375 21  L 16.337890625 21  C 17.1399739583333 21.3571428571429  17.8258463541667 21.0512462797619  18.3955078125 20.439453125  C 18.9651692708333 19.8276599702381  19.25 19.0853794642857  19.25 18.2126116071429  C 19.25 16.1675967261905  18.8922526041667 14.5546875  18.1767578125 13.3738839285714  C 17.4612630208334 12.1930803571429  16.43359375 11.5727306547619  15.09375 11.5128348214286  C 13.7721354166666 12.5995163690477  12.2408854166667 13.1428571428571  10.5 13.1428571428571  C 8.75911458333331 13.1428571428571  7.22786458333337 12.5995163690477  5.90625 11.5128348214286  C 4.56640625 11.5727306547619  3.53873697916663 12.1930803571429  2.8232421875 13.3738839285714  C 2.10774739583331 14.5546875  1.75 16.1675967261905  1.75 18.2126116071429  C 1.75 19.0853794642857  2.03483072916669 19.8276599702381  2.6044921875 20.439453125  C 3.17415364583331 21.0512462797619  3.86002604166669 21.3571428571429  4.662109375 21  Z " fill-rule="nonzero" fill="#000000" stroke="none" transform="matrix(1 0 0 1 308 431 )" />
  </g>
</svg>