<?xml version="1.0" encoding="utf-8"?>
<svg version="1.1" xmlns:xlink="http://www.w3.org/1999/xlink" width="27px" height="21px" xmlns="http://www.w3.org/2000/svg">
  <g transform="matrix(1 0 0 1 -202 -432 )">
    <path d="M 23.1189591078067 11.9976617303196  C 23.1301115241636 12.0194855806703  23.135687732342 12.0522213561964  23.135687732342 12.0958690568979  L 23.135687732342 19.9524551831645  C 23.135687732342 20.2361652377241  23.0297397769517 20.4816835541699  22.817843866171 20.6890101325019  C 22.6059479553903 20.896336710834  22.3550185873606 21  22.0650557620818 21  L 15.6412639405204 21  L 15.6412639405204 14.7147310989868  L 11.3587360594796 14.7147310989868  L 11.3587360594796 21  L 4.93494423791822 21  C 4.6449814126394 21  4.39405204460968 20.896336710834  4.18215613382898 20.6890101325019  C 3.97026022304831 20.4816835541699  3.86431226765799 20.2361652377241  3.86431226765799 19.9524551831645  L 3.86431226765799 12.0958690568979  C 3.86431226765799 12.0849571317225  3.8671003717472 12.0685892439595  3.87267657992564 12.0467653936088  C 3.87825278810408 12.024941543258  3.88104089219331 12.008573655495  3.88104089219331 11.9976617303196  L 13.5 4.2392829306313  L 23.1189591078067 11.9976617303196  Z M 26.9832713754647 10.5818394388153  C 26.9944237918216 10.7291504286828  26.9553903345725 10.8573655494934  26.8661710037175 10.9664848012471  L 25.8289962825279 12.1777084957131  C 25.7397769516729 12.2759158222915  25.6226765799257 12.3359314107561  25.4776951672862 12.3577552611068  L 25.4275092936803 12.3577552611068  C 25.2825278810409 12.3577552611068  25.1654275092937 12.319563522993  25.0762081784387 12.2431800467654  L 13.5 2.79890880748246  L 1.92379182156134 12.2431800467654  C 1.78996282527882 12.3304754481683  1.65613382899627 12.3686671862822  1.52230483271376 12.3577552611068  C 1.37732342007433 12.3359314107561  1.26022304832713 12.2759158222915  1.17100371747213 12.1777084957131  L 0.133828996282546 10.9664848012471  C 0.0446096654275152 10.8573655494934  0.0055762081784394 10.7291504286828  0.0167286245353182 10.5818394388153  C 0.027881040892197 10.4345284489478  0.0892193308550304 10.3172252533126  0.20074349442379 10.2299298519096  L 12.228624535316 0.425565081839466  C 12.5855018587361 0.141855027279803  13.0092936802974 0  13.5 0  C 13.9907063197026 0  14.4144981412639 0.141855027279803  14.771375464684 0.425565081839466  L 18.8531598513011 3.76461418550269  L 18.8531598513011 0.572876071706901  C 18.8531598513011 0.42010911925172  18.9033457249071 0.294621979734984  19.003717472119 0.196414653156694  C 19.1040892193309 0.0982073265782901  19.2323420074349 0.0491036632891451  19.3884758364312 0.0491036632891451  L 22.6003717472119 0.0491036632891451  C 22.7565055762082 0.0491036632891451  22.8847583643123 0.0982073265782901  22.9851301115242 0.196414653156694  C 23.0855018587361 0.294621979734984  23.135687732342 0.42010911925172  23.135687732342 0.572876071706901  L 23.135687732342 7.25097427903353  L 26.7992565055762 10.2299298519096  C 26.910780669145 10.3172252533126  26.9721189591078 10.4345284489478  26.9832713754647 10.5818394388153  Z " fill-rule="nonzero" fill="#000000" stroke="none" transform="matrix(1 0 0 1 202 432 )" />
  </g>
</svg>