<?xml version="1.0" encoding="utf-8"?>
<svg version="1.1" xmlns:xlink="http://www.w3.org/1999/xlink" width="53px" height="17px" xmlns="http://www.w3.org/2000/svg">
  <g transform="matrix(1 0 0 1 -297 -333 )">
    <path d="M 0 12.2777777777778  L 0 4.72222222222224  C 0 2.07777777777774  3.76129032258064 0  8.54838709677419 0  L 27.3548387096774 0  L 28.3928571428571 0  L 35.9642857142857 0  L 36.5111111111111 0  L 42.4 0  L 44.4516129032258 0  C 49.2387096774194 0  53 2.07777777777774  53 4.72222222222224  L 53 12.2777777777778  C 53 14.9222222222223  49.2387096774194 17  44.4516129032258 17  L 34.0714285714286 17  L 8.54838709677419 17  C 3.76129032258064 17  0 14.9222222222223  0 12.2777777777778  Z " fill-rule="nonzero" fill="#f2f2f2" stroke="none" transform="matrix(1 0 0 1 297 333 )" />
  </g>
</svg>