<?xml version="1.0" encoding="utf-8"?>
<svg version="1.1" xmlns:xlink="http://www.w3.org/1999/xlink" width="63px" height="14px" xmlns="http://www.w3.org/2000/svg">
  <g transform="matrix(1 0 0 1 -718 -322 )">
    <path d="M 0 10.1111111111111  L 0 3.8888888888889  C 0 1.71111111111108  4.47096774193548 0  10.1612903225806 0  L 32.516129032258 0  L 33.75 0  L 42.75 0  L 43.4 0  L 50.4 0  L 52.8387096774194 0  C 58.5290322580645 0  63 1.71111111111108  63 3.8888888888889  L 63 10.1111111111111  C 63 12.2888888888889  58.5290322580645 14  52.8387096774194 14  L 40.5 14  L 10.1612903225806 14  C 4.47096774193548 14  0 12.2888888888889  0 10.1111111111111  Z " fill-rule="nonzero" fill="#f2f2f2" stroke="none" transform="matrix(1 0 0 1 718 322 )" />
  </g>
</svg>