<?xml version="1.0" encoding="utf-8"?>
<svg version="1.1" xmlns:xlink="http://www.w3.org/1999/xlink" width="33px" height="14px" xmlns="http://www.w3.org/2000/svg">
  <g transform="matrix(1 0 0 1 -781 -347 )">
    <path d="M 0 10.1111111111111  L 0 3.8888888888889  C 0 1.71111111111108  2.34193548387096 0  5.32258064516128 0  L 17.0322580645161 0  L 17.6785714285714 0  L 22.3928571428571 0  L 22.7333333333333 0  L 26.4 0  L 27.6774193548387 0  C 30.658064516129 0  33 1.71111111111108  33 3.8888888888889  L 33 10.1111111111111  C 33 12.2888888888889  30.658064516129 14  27.6774193548387 14  L 21.2142857142857 14  L 5.32258064516128 14  C 2.34193548387096 14  0 12.2888888888889  0 10.1111111111111  Z " fill-rule="nonzero" fill="#f2f2f2" stroke="none" transform="matrix(1 0 0 1 781 347 )" />
  </g>
</svg>