<?xml version="1.0" encoding="utf-8"?>
<svg version="1.1" xmlns:xlink="http://www.w3.org/1999/xlink" width="47px" height="17px" xmlns="http://www.w3.org/2000/svg">
  <g transform="matrix(1 0 0 1 -720 -373 )">
    <path d="M 0 12.2777777777778  L 0 4.72222222222224  C 0 2.07777777777775  3.33548387096771 0  7.58064516129031 0  L 24.258064516129 0  L 25.1785714285714 0  L 28.3287671232877 0  L 31.8928571428571 0  L 32.3777777777778 0  L 37.6 0  L 39.4193548387097 0  C 43.6645161290323 0  47 2.07777777777775  47 4.72222222222224  L 47 12.2777777777778  C 47 14.9222222222223  43.6645161290323 17  39.4193548387097 17  L 30.2142857142857 17  L 7.58064516129031 17  C 3.33548387096771 17  0 14.9222222222223  0 12.2777777777778  Z " fill-rule="nonzero" fill="#f2f2f2" stroke="none" transform="matrix(1 0 0 1 720 373 )" />
  </g>
</svg>