<?xml version="1.0" encoding="utf-8"?>
<svg version="1.1" xmlns:xlink="http://www.w3.org/1999/xlink" width="45px" height="17px" xmlns="http://www.w3.org/2000/svg">
  <g transform="matrix(1 0 0 1 -775 -373 )">
    <path d="M 0 12.2777777777778  L 0 4.72222222222224  C 0 2.07777777777774  3.19354838709677 0  7.25806451612902 0  L 23.2258064516129 0  L 24.1071428571428 0  L 30.5357142857143 0  L 31 0  L 36 0  L 37.741935483871 0  C 41.8064516129032 0  45 2.07777777777774  45 4.72222222222224  L 45 12.2777777777778  C 45 14.9222222222223  41.8064516129032 17  37.741935483871 17  L 28.9285714285714 17  L 7.25806451612902 17  C 3.19354838709677 17  0 14.9222222222223  0 12.2777777777778  Z " fill-rule="nonzero" fill="#f2f2f2" stroke="none" transform="matrix(1 0 0 1 775 373 )" />
  </g>
</svg>