<?xml version="1.0" encoding="utf-8"?>
<svg version="1.1" xmlns:xlink="http://www.w3.org/1999/xlink" width="18px" height="17px" xmlns="http://www.w3.org/2000/svg">
  <g transform="matrix(1 0 0 1 -6 -7 )">
    <path d="M 17.5725288831836 7.94565217391304  C 17.8575096277279 8.24592391304348  18 8.59624094202898  18 8.99660326086956  C 18 9.38926630434783  17.8575096277279 9.73573369565217  17.5725288831836 10.0360054347826  L 16.7060333761232 10.9021739130435  C 16.413350449294 11.1947463768116  16.0629011553273 11.3410326086957  15.6546854942234 11.3410326086957  C 15.2387676508344 11.3410326086957  14.8921694480103 11.1947463768116  14.614890885751 10.9021739130435  L 11.2182284980745 7.51834239130435  L 11.2182284980745 15.648777173913  C 11.2182284980745 16.0491394927536  11.0738125802311 16.3744338768116  10.7849807445443 16.624660326087  C 10.4961489088575 16.8748867753623  10.1476251604621 17  9.73940949935815 17  L 8.26059050064185 17  C 7.85237483953787 17  7.50385109114249 16.8748867753623  7.21501925545571 16.624660326087  C 6.92618741976893 16.3744338768116  6.78177150192555 16.0491394927536  6.78177150192555 15.648777173913  L 6.78177150192555 7.51834239130435  L 3.38510911424904 10.9021739130435  C 3.10783055198973 11.1947463768116  2.7612323491656 11.3410326086957  2.34531450577664 11.3410326086957  C 1.92939666238768 11.3410326086957  1.58279845956354 11.1947463768116  1.30551989730424 10.9021739130435  L 0.439024390243902 10.0360054347826  C 0.146341463414634 9.74343297101449  0 9.39696557971014  0 8.99660326086956  C 0 8.58854166666667  0.146341463414634 8.23822463768116  0.439024390243902 7.94565217391304  L 7.9602053915276 0.427309782608696  C 8.22978177150193 0.142436594202898  8.57637997432606 0  9 0  C 9.41591784338896 0  9.76636713735559 0.142436594202898  10.0513478818999 0.427309782608696  L 17.5725288831836 7.94565217391304  Z " fill-rule="nonzero" fill="#000000" stroke="none" transform="matrix(1 0 0 1 6 7 )" />
  </g>
</svg>