<?xml version="1.0" encoding="utf-8"?>
<svg version="1.1" xmlns:xlink="http://www.w3.org/1999/xlink" width="53px" height="42px" xmlns="http://www.w3.org/2000/svg">
  <g transform="matrix(1 0 0 1 -45 -182 )">
    <path d="M 45 182  L 98 182  L 98 224  L 45 224  L 45 182  " fill-rule="nonzero" fill="#cccccc" stroke="none" />
    <path d="M 48 185  L 95 185  L 95 221  L 48 221  L 48 185  " fill-rule="nonzero" fill="#ffffff" stroke="none" />
    <path d="M 75.71 194.6  C 73.946 194.6  72.56 193.214  72.56 191.45  C 72.56 189.686  73.946 188.3  75.71 188.3  C 77.474 188.3  78.86 189.686  78.86 191.45  C 78.86 193.214  77.474 194.6  75.71 194.6  " fill-rule="nonzero" fill="#cccccc" stroke="none" />
    <path d="M 49 220  L 49 201.3  L 60.25 192.8  L 76 203.833962264151  L 85 197.9  L 94 203.833962264151  L 94 220  L 49 220  " fill-rule="nonzero" fill="#169bd5" stroke="none" />
  </g>
</svg>