<?xml version="1.0" encoding="utf-8"?>
<svg version="1.1" xmlns:xlink="http://www.w3.org/1999/xlink" width="94px" height="104px" xmlns="http://www.w3.org/2000/svg">
  <g transform="matrix(1 0 0 1 -115 -278 )">
    <path d="M 78.3333333333333 29.7142857142859  C 78.3333333333333 35.4017857142859  76.7217881944444 40.6636904761907  73.4986979166667 45.5  C 75.4162326388887 46.0416666666665  77.2419704861113 46.7767857142859  78.9759114583333 47.7053571428572  C 80.7098524305556 48.6339285714287  82.525390625 50.0461309523809  84.4225260416667 51.9419642857141  C 86.3196614583333 53.8377976190476  87.94140625 56.0721726190476  89.2877604166667 58.6450892857141  C 90.6341145833333 61.2180059523809  91.7560763888887 64.545386904762  92.6536458333333 68.6272321428572  C 93.5512152777777 72.7090773809524  94 77.2842261904761  94 82.3526785714287  C 94 88.311011904762  91.9600694444444 93.4084821428572  87.8802083333333 97.6450892857141  C 83.8003472222223 101.881696428571  78.8841145833333 104  73.1315104166667 104  L 20.8684895833333 104  C 15.1158854166667 104  10.1996527777777 101.881696428571  6.11979166666667 97.6450892857141  C 2.03993055555564 93.4084821428572  0 88.311011904762  0 82.3526785714287  C 0 77.2842261904761  0.448784722222307 72.7090773809524  1.34635416666667 68.6272321428572  C 2.24392361111128 64.545386904762  3.36588541666667 61.2180059523809  4.71223958333333 58.6450892857141  C 6.05859375 56.0721726190476  7.68033854166667 53.8377976190476  9.57747395833333 51.9419642857141  C 11.474609375 50.0461309523809  13.2901475694444 48.6339285714287  15.0240885416667 47.7053571428572  C 16.7580295138887 46.7767857142859  18.5837673611113 46.0416666666665  20.5013020833333 45.5  C 17.2782118055556 40.6636904761907  15.6666666666667 35.4017857142859  15.6666666666667 29.7142857142859  C 15.6666666666667 25.6904761904763  16.4928385416667 21.8504464285713  18.1451822916667 18.1941964285713  C 19.7975260416667 14.5379464285713  22.03125 11.375  24.8463541666667 8.70535714285718  C 27.6614583333333 6.0357142857141  30.9967447916667 3.9174107142859  34.8522135416667 2.35044642857128  C 38.7076822916667 0.78348214285718  42.7569444444444 0  47 0  C 51.2430555555556 0  55.2923177083333 0.78348214285718  59.1477864583333 2.35044642857128  C 63.0032552083333 3.9174107142859  66.3385416666667 6.0357142857141  69.1536458333333 8.70535714285718  C 71.96875 11.375  74.2024739583333 14.5379464285713  75.8548177083333 18.1941964285713  C 77.5071614583333 21.8504464285713  78.3333333333333 25.6904761904763  78.3333333333333 29.7142857142859  Z M 63.615234375 13.9575892857141  C 59.025390625 9.6049107142859  53.4869791666667 7.42857142857128  47 7.42857142857128  C 40.5130208333333 7.42857142857128  34.974609375 9.6049107142859  30.384765625 13.9575892857141  C 25.794921875 18.3102678571428  23.5 23.5625  23.5 29.7142857142859  C 23.5 35.8660714285713  25.794921875 41.1183035714287  30.384765625 45.4709821428572  C 34.974609375 49.8236607142859  40.5130208333333 52  47 52  C 53.4869791666667 52  59.025390625 49.8236607142859  63.615234375 45.4709821428572  C 68.205078125 41.1183035714287  70.5 35.8660714285713  70.5 29.7142857142859  C 70.5 23.5625  68.205078125 18.3102678571428  63.615234375 13.9575892857141  Z M 20.8684895833333 96  L 73.1315104166667 96  C 76.7217881944444 96.5714285714287  79.7918836805556 95.1882440476192  82.341796875 92.421875  C 84.8917100694444 89.6555059523809  86.1666666666667 86.2991071428572  86.1666666666667 82.3526785714287  C 86.1666666666667 73.1056547619048  84.5653211805556 65.8125  81.3626302083333 60.4732142857141  C 78.1599392361113 55.1339285714287  73.5598958333333 52.3288690476191  67.5625 52.0580357142859  C 61.6467013888887 56.9717261904763  54.7925347222223 59.4285714285713  47 59.4285714285713  C 39.2074652777777 59.4285714285713  32.3532986111113 56.9717261904763  26.4375 52.0580357142859  C 20.4401041666667 52.3288690476191  15.8400607638887 55.1339285714287  12.6373697916667 60.4732142857141  C 9.43467881944436 65.8125  7.83333333333333 73.1056547619048  7.83333333333333 82.3526785714287  C 7.83333333333333 86.2991071428572  9.10828993055564 89.6555059523809  11.658203125 92.421875  C 14.2081163194444 95.1882440476192  17.2782118055556 96.5714285714287  20.8684895833333 96  Z " fill-rule="nonzero" fill="#000000" stroke="none" transform="matrix(1 0 0 1 115 278 )" />
  </g>
</svg>