<?xml version="1.0" encoding="utf-8"?>
<svg version="1.1" xmlns:xlink="http://www.w3.org/1999/xlink" width="38px" height="42px" xmlns="http://www.w3.org/2000/svg">
  <g transform="matrix(1 0 0 1 -340 -844 )">
    <path d="M 31.6666666666667 12.0000000000001  C 31.6666666666667 14.2968750000001  31.0151909722222 16.4218750000001  29.7122395833333 18.375  C 30.4874131944444 18.5937499999999  31.2254774305556 18.8906250000001  31.9264322916667 19.265625  C 32.6273871527778 19.6406250000001  33.361328125 20.2109375  34.1282552083333 20.9765624999999  C 34.8951822916667 21.7421875  35.55078125 22.64453125  36.0950520833333 23.6835937499999  C 36.6393229166667 24.72265625  37.0928819444444 26.06640625  37.4557291666667 27.71484375  C 37.8185763888889 29.36328125  38 31.2109375  38 33.2578125000001  C 38 35.6640625  37.1753472222222 37.72265625  35.5260416666667 39.4335937499999  C 33.8767361111111 41.1445312499999  31.8893229166667 42  29.5638020833333 42  L 8.43619791666667 42  C 6.11067708333333 42  4.12326388888885 41.1445312499999  2.47395833333333 39.4335937499999  C 0.824652777777812 37.72265625  0 35.6640625  0 33.2578125000001  C 0 31.2109375  0.181423611111145 29.36328125  0.544270833333333 27.71484375  C 0.907118055555624 26.06640625  1.36067708333333 24.72265625  1.90494791666667 23.6835937499999  C 2.44921875 22.64453125  3.10481770833333 21.7421875  3.87174479166667 20.9765624999999  C 4.638671875 20.2109375  5.37261284722219 19.6406250000001  6.07356770833333 19.265625  C 6.77452256944438 18.8906250000001  7.51258680555562 18.5937499999999  8.28776041666667 18.375  C 6.98480902777781 16.4218750000001  6.33333333333333 14.2968750000001  6.33333333333333 12.0000000000001  C 6.33333333333333 10.3750000000001  6.66731770833333 8.82421874999994  7.33528645833333 7.34765624999994  C 8.00325520833333 5.87109374999994  8.90625 4.59375  10.0442708333333 3.51562500000002  C 11.1822916666667 2.43749999999993  12.5305989583333 1.58203125000007  14.0891927083333 0.949218749999941  C 15.6477864583333 0.316406250000015  17.2847222222222 0  19 0  C 20.7152777777778 0  22.3522135416667 0.316406250000015  23.9108072916667 0.949218749999941  C 25.4694010416667 1.58203125000007  26.8177083333333 2.43749999999993  27.9557291666667 3.51562500000002  C 29.09375 4.59375  29.9967447916667 5.87109374999994  30.6647135416667 7.34765624999994  C 31.3326822916667 8.82421874999994  31.6666666666667 10.3750000000001  31.6666666666667 12.0000000000001  Z M 25.716796875 5.63671874999993  C 23.861328125 3.87890625000007  21.6223958333333 2.99999999999994  19 2.99999999999994  C 16.3776041666667 2.99999999999994  14.138671875 3.87890625000007  12.283203125 5.63671874999993  C 10.427734375 7.39453124999999  9.5 9.515625  9.5 12.0000000000001  C 9.5 14.4843749999999  10.427734375 16.6054687500001  12.283203125 18.36328125  C 14.138671875 20.1210937500001  16.3776041666667 21  19 21  C 21.6223958333333 21  23.861328125 20.1210937500001  25.716796875 18.36328125  C 27.572265625 16.6054687500001  28.5 14.4843749999999  28.5 12.0000000000001  C 28.5 9.515625  27.572265625 7.39453124999999  25.716796875 5.63671874999993  Z M 8.43619791666667 39  L 29.5638020833333 39  C 31.0151909722222 39.0000000000001  32.2562934027778 38.44140625  33.287109375 37.32421875  C 34.3179253472222 36.20703125  34.8333333333333 34.8515625  34.8333333333333 33.2578125000001  C 34.8333333333333 29.5234375  34.1859809027778 26.578125  32.8912760416667 24.4218749999999  C 31.5965711805556 22.2656250000001  29.7369791666667 21.1328125  27.3125 21.0234375000001  C 24.9210069444444 23.0078125000001  22.1501736111111 23.9999999999999  19 23.9999999999999  C 15.8498263888889 23.9999999999999  13.0789930555556 23.0078125000001  10.6875 21.0234375000001  C 8.26302083333333 21.1328125  6.40342881944438 22.2656250000001  5.10872395833333 24.4218749999999  C 3.81401909722219 26.578125  3.16666666666667 29.5234375  3.16666666666667 33.2578125000001  C 3.16666666666667 34.8515625  3.68207465277781 36.20703125  4.712890625 37.32421875  C 5.74370659722219 38.44140625  6.98480902777781 39.0000000000001  8.43619791666667 39  Z " fill-rule="nonzero" fill="#000000" stroke="none" transform="matrix(1 0 0 1 340 844 )" />
  </g>
</svg>