<?xml version="1.0" encoding="utf-8"?>
<svg version="1.1" xmlns:xlink="http://www.w3.org/1999/xlink" width="49px" height="38px" xmlns="http://www.w3.org/2000/svg">
  <g transform="matrix(1 0 0 1 -150 -846 )">
    <path d="M 41.9566294919455 21.7100545596259  C 41.9768690623709 21.7495453364511  41.9869888475836 21.8087815016887  42 21.8877630553391  L 42 36.1044427123929  C 41.9869888475836 36.6178228111198  41.7947129285419 37.0620940504027  41.4101610904585 37.4372564302416  C 41.025609252375 37.8124188100805  40.5702189178026 38  40.043990086741 38  L 28 38  L 28 26.626656274357  L 21 26.626656274357  L 21 38  L 8.95600991325898 38  C 8.42978108219742 38  7.97439074762497 37.8124188100805  7.58983890954149 37.4372564302416  C 7.20528707145805 37.0620940504027  7.01301115241636 36.6178228111198  7 36.1044427123929  L 7 21.8877630553391  C 7.01301115241636 21.8680176669265  7.01807104502269 21.8383995843076  7.02819083023542 21.7989088074826  C 7.03831061544814 21.7594180306573  7.04337050805453 21.7297999480385  7.04337050805453 21.7100545596259  L 24.5 7.67108339828522  L 41.9566294919455 21.7100545596259  Z M 48.9696406443618 19.1480904130943  C 48.9898802147873 19.4146531566641  48.9190417182982 19.6466614705119  48.7571251548946 19.8441153546376  L 46.8748451053284 22.0358534684333  C 46.7129285419248 22.2135619641465  46.5004130524577 22.3221616004158  46.2372986369269 22.3616523772408  L 46.1462205700124 22.3616523772408  C 45.8831061544816 22.3616523772408  45.6705906650145 22.2925435177969  45.5086741016109 22.1543257989089  L 24.5 5.06469212782541  L 3.49132589838909 22.1543257989089  C 3.24845105328379 22.3122889062094  3.00557620817842 22.3813977656534  2.76270136307312 22.3616523772408  C 2.49958694754231 22.3221616004158  2.28707145807517 22.2135619641465  2.12515489467165 22.0358534684333  L 0.242874845105361 19.8441153546376  C 0.0809582817017869 19.6466614705119  0.0101197852127234 19.4146531566641  0.0303593556381701 19.1480904130943  C 0.0505989260636168 18.8815276695246  0.161916563403574 18.6692647440894  0.364312267657989 18.5113016367888  L 22.1926889714994 0.770070148090462  C 22.8403552251136 0.256690049363453  23.6094589012804 0  24.5 0  C 25.3905410987196 0  26.1596447748864 0.256690049363453  26.8073110285006 0.770070148090462  L 34.2149938042132 6.81215900233821  L 34.2149938042132 1.03663289166011  C 34.2149938042132 0.760197453884064  34.3060718711276 0.533125487139495  34.4882280049567 0.355416991426398  C 34.6703841387856 0.177708495713096  34.9031391986782 0.0888542478565482  35.1864931846344 0.0888542478565482  L 41.0154894671624 0.0888542478565482  C 41.2988434531186 0.0888542478565482  41.5315985130111 0.177708495713096  41.7137546468402 0.355416991426398  C 41.8959107806691 0.533125487139495  41.9869888475836 0.760197453884064  42 1.03663289166011  L 42 13.1208106001559  L 48.635687732342 18.5113016367888  C 48.8380834365964 18.6692647440894  48.9494010739364 18.8815276695246  48.9696406443618 19.1480904130943  Z " fill-rule="nonzero" fill="#000000" stroke="none" transform="matrix(1 0 0 1 150 846 )" />
  </g>
</svg>