<?xml version="1.0" encoding="utf-8"?>
<svg version="1.1" xmlns:xlink="http://www.w3.org/1999/xlink" width="84px" height="91px" xmlns="http://www.w3.org/2000/svg">
  <g transform="matrix(1 0 0 1 -822 -695 )">
    <path d="M 83.7911931818182 69.5237630208333  C 83.9303977272727 71.5183376736111  84 73.5622829861111  84 75.6555989583333  C 84 80.3951822916667  82.5482954545455 84.1374782986111  79.6448863636364 86.8824869791667  C 76.7414772727273 89.6274956597222  72.8835227272727 91  68.0710227272727 91  L 15.9289772727273 91  C 11.1164772727273 91  7.25852272727273 89.6274956597222  4.35511363636364 86.8824869791667  C 1.45170454545455 84.1374782986111  0 80.3951822916667  0 75.6555989583333  C 0 73.5622829861111  0.0696022727272727 71.5183376736111  0.208806818181818 69.5237630208333  C 0.348011363636364 67.5291883680556  0.626420454545455 65.3766276041667  1.04403409090909 63.0660807291667  C 1.46164772727273 60.7555338541667  1.98863636363636 58.6128472222222  2.625 56.6380208333333  C 3.26136363636364 54.6631944444444  4.11647727272727 52.7377387152778  5.19034090909091 50.8616536458333  C 6.26420454545455 48.9855685763889  7.49715909090909 47.3859592013889  8.88920454545455 46.0628255208333  C 10.28125 44.7396918402778  11.9815340909091 43.6831597222222  13.9900568181818 42.8932291666667  C 15.9985795454545 42.1032986111111  18.2159090909091 41.7083333333333  20.6420454545455 41.7083333333333  C 21 41.7083333333333  21.8352272727273 42.1329210069444  23.1477272727273 42.9820963541667  C 24.4602272727273 43.8312717013889  25.9417613636364 44.7791883680556  27.5923295454545 45.8258463541667  C 29.2428977272727 46.8725043402778  31.390625 47.8204210069444  34.0355113636364 48.6695963541667  C 36.6803977272727 49.5187717013889  39.3352272727273 49.943359375  42 49.943359375  C 44.6647727272727 49.943359375  47.3196022727273 49.5187717013889  49.9644886363636 48.6695963541667  C 52.609375 47.8204210069444  54.7571022727273 46.8725043402778  56.4076704545455 45.8258463541667  C 58.0582386363636 44.7791883680556  59.5397727272727 43.8312717013889  60.8522727272727 42.9820963541667  C 62.1647727272727 42.1329210069444  63 41.7083333333333  63.3579545454545 41.7083333333333  C 65.7840909090909 41.7083333333333  68.0014204545455 42.1032986111111  70.0099431818182 42.8932291666667  C 72.0184659090909 43.6831597222222  73.71875 44.7396918402778  75.1107954545455 46.0628255208333  C 76.5028409090909 47.3859592013889  77.7357954545455 48.9855685763889  78.8096590909091 50.8616536458333  C 79.8835227272727 52.7377387152778  80.7386363636364 54.6631944444444  81.375 56.6380208333333  C 82.0113636363636 58.6128472222222  82.5383522727273 60.7555338541667  82.9559659090909 63.0660807291667  C 83.3735795454545 65.3766276041667  83.6519886363636 67.5291883680556  83.7911931818182 69.5237630208333  Z M 58.1974431818182 6.6650390625  C 62.671875 11.1083984375  64.9090909090909 16.4700520833333  64.9090909090909 22.75  C 64.9090909090909 29.0299479166667  62.671875 34.3916015625  58.1974431818182 38.8349609375  C 53.7230113636364 43.2783203125  48.3238636363636 45.5  42 45.5  C 35.6761363636364 45.5  30.2769886363636 43.2783203125  25.8025568181818 38.8349609375  C 21.328125 34.3916015625  19.0909090909091 29.0299479166667  19.0909090909091 22.75  C 19.0909090909091 16.4700520833333  21.328125 11.1083984375  25.8025568181818 6.6650390625  C 30.2769886363636 2.2216796875  35.6761363636364 0  42 0  C 48.3238636363636 0  53.7230113636364 2.2216796875  58.1974431818182 6.6650390625  Z " fill-rule="nonzero" fill="#333333" stroke="none" transform="matrix(1 0 0 1 822 695 )" />
  </g>
</svg>