<?xml version="1.0" encoding="utf-8"?>
<svg version="1.1" xmlns:xlink="http://www.w3.org/1999/xlink" width="12px" height="12px" viewBox="390 529  12 12" xmlns="http://www.w3.org/2000/svg">
  <path d="M 396 529  C 399.36 529  402 531.64  402 535  C 402 538.36  399.36 541  396 541  C 392.64 541  390 538.36  390 535  C 390 531.64  392.64 529  396 529  Z " fill-rule="nonzero" fill="#ffffff" stroke="none" />
  <path d="M 396 529.5  C 399.08 529.5  401.5 531.92  401.5 535  C 401.5 538.08  399.08 540.5  396 540.5  C 392.92 540.5  390.5 538.08  390.5 535  C 390.5 531.92  392.92 529.5  396 529.5  Z " stroke-width="1" stroke="#797979" fill="none" />
  <path d="M 396 538  C 394.32 538  393 536.68  393 535  C 393 533.32  394.32 532  396 532  C 397.68 532  399 533.32  399 535  C 399 536.68  397.68 538  396 538  " fill-rule="nonzero" fill="#797979" stroke="none" />
</svg>