<?xml version="1.0" encoding="utf-8"?>
<svg version="1.1" xmlns:xlink="http://www.w3.org/1999/xlink" width="12px" height="12px" viewBox="390 443  12 12" xmlns="http://www.w3.org/2000/svg">
  <path d="M 396 443  C 399.36 443  402 445.64  402 449  C 402 452.36  399.36 455  396 455  C 392.64 455  390 452.36  390 449  C 390 445.64  392.64 443  396 443  Z " fill-rule="nonzero" fill="#ffffff" stroke="none" />
  <path d="M 396 443.5  C 399.08 443.5  401.5 445.92  401.5 449  C 401.5 452.08  399.08 454.5  396 454.5  C 392.92 454.5  390.5 452.08  390.5 449  C 390.5 445.92  392.92 443.5  396 443.5  Z " stroke-width="1" stroke="#797979" fill="none" />
  <path d="M 396 452  C 394.32 452  393 450.68  393 449  C 393 447.32  394.32 446  396 446  C 397.68 446  399 447.32  399 449  C 399 450.68  397.68 452  396 452  " fill-rule="nonzero" fill="#797979" stroke="none" />
</svg>