<?xml version="1.0" encoding="utf-8"?>
<svg version="1.1" xmlns:xlink="http://www.w3.org/1999/xlink" width="39px" height="34px" xmlns="http://www.w3.org/2000/svg">
  <g transform="matrix(1 0 0 1 -161 -346 )">
    <path d="M 19.5 32.4821428571429  C 19.7059405940594 32.4821428571429  19.8089108910891 32.3809523809524  19.8089108910891 32.1785714285714  C 19.8089108910891 31.9761904761905  19.7059405940594 31.875  19.5 31.875  C 18.7405940594059 31.875  18.0873762376238 31.606212797619  17.5403465346535 31.0686383928571  C 16.9933168316832 30.5310639880952  16.719801980198 29.8891369047619  16.719801980198 29.1428571428571  C 16.719801980198 28.9404761904762  16.6168316831683 28.8392857142857  16.4108910891089 28.8392857142857  C 16.2049504950495 28.8392857142857  16.1019801980198 28.9404761904762  16.1019801980198 29.1428571428571  C 16.1019801980198 30.0662202380952  16.4334158415842 30.8536086309524  17.0962871287129 31.5050223214286  C 17.7591584158416 32.1564360119048  18.560396039604 32.4821428571429  19.5 32.4821428571429  Z M 12.0861386138614 10.9285714285714  C 12.0861386138614 15.7857142857143  11.2044554455446 19.8649553571429  9.44108910891089 23.1662946428571  L 26.3732673267327 8.74665178571429  C 25.8326732673267 7.63355654761904  24.9799504950495 6.70703125  23.815099009901 5.96707589285714  C 22.6502475247525 5.22712053571429  21.2118811881188 4.85714285714286  19.5 4.85714285714286  C 18.3029702970297 4.85714285714286  17.2121287128713 5.05636160714286  16.2274752475248 5.45479910714286  C 15.2428217821782 5.85323660714286  14.4608910891089 6.36235119047619  13.8816831683168 6.98214285714286  C 13.3024752475248 7.60193452380952  12.8584158415842 8.25334821428571  12.5495049504951 8.93638392857143  C 12.2405940594059 9.61941964285714  12.0861386138614 10.2834821428571  12.0861386138614 10.9285714285714  Z M 29.809900990099 16.1651785714286  C 30.5950495049505 20.6681547619048  32.5128712871287 24.1845238095238  35.5633663366337 26.7142857142857  C 35.5633663366337 27.3720238095238  35.3188118811881 27.9412202380952  34.829702970297 28.421875  C 34.3405940594059 28.9025297619048  33.7613861386139 29.1428571428571  33.0920792079208 29.1428571428571  L 24.4425742574257 29.1428571428571  C 24.4425742574257 30.483630952381  23.959900990099 31.6283482142857  22.9945544554455 32.5770089285714  C 22.0292079207921 33.5256696428571  20.8643564356436 34  19.5 34  C 18.1356435643564 34  16.9740099009901 33.5288318452381  16.015099009901 32.5864955357143  C 15.0561881188119 31.6441592261905  14.570297029703 30.5026041666667  14.5574257425743 29.1618303571429  L 17.4341584158416 26.7142857142857  L 32.049504950495 26.7142857142857  C 29.9128712871287 24.3489583333333  28.4519801980198 21.446056547619  27.6668316831683 18.0055803571429  L 29.809900990099 16.1651785714286  Z M 36.8086633663366 0.0948660714285725  C 36.9824257425743 0.107514880952379  37.1207920792079 0.177083333333331  37.2237623762376 0.303571428571427  L 38.8455445544554 2.125  C 38.9485148514852 2.25148809523809  38.9967821782178 2.40011160714286  38.9903465346535 2.57087053571429  C 38.9839108910891 2.74162946428571  38.9163366336634 2.88392857142857  38.7876237623762 2.99776785714286  L 2.6450495049505 33.7723214285714  C 2.51633663366337 33.8735119047619  2.36509900990099 33.9177827380952  2.19133663366337 33.9051339285714  C 2.01757425742574 33.8924851190476  1.87920792079208 33.8229166666667  1.77623762376238 33.6964285714286  L 0.154455445544554 31.875  C 0.0514851485148515 31.7485119047619  0.00321782178217824 31.5998883928571  0.00965346534653465 31.4291294642857  C 0.0160891089108911 31.2583705357143  0.0836633663366337 31.1223958333333  0.212376237623762 31.0212053571429  L 3.80346534653465 27.9665178571429  C 3.55891089108911 27.561755952381  3.43663366336634 27.1443452380952  3.43663366336634 26.7142857142857  C 4.08019801980198 26.1830357142857  4.66584158415842 25.6264880952381  5.19356435643564 25.0446428571429  C 5.72128712871287 24.4627976190476  6.26831683168317 23.70703125  6.83465346534653 22.77734375  C 7.4009900990099 21.84765625  7.88044554455446 20.8452380952381  8.2730198019802 19.7700892857143  C 8.66559405940594 18.6949404761905  8.98737623762376 17.3921130952381  9.23836633663366 15.8616071428571  C 9.48935643564356 14.3311011904762  9.61485148514852 12.6867559523809  9.61485148514852 10.9285714285714  C 9.61485148514852 9.00595238095238  10.3678217821782 7.21930803571429  11.8737623762376 5.56863839285714  C 13.379702970297 3.91796875  15.3554455445545 2.91555059523809  17.8009900990099 2.56138392857143  C 17.6980198019802 2.32105654761904  17.6465346534653 2.07440476190476  17.6465346534653 1.82142857142857  C 17.6465346534653 1.31547619047619  17.8267326732673 0.885416666666665  18.1871287128713 0.53125  C 18.5475247524752 0.177083333333335  18.9851485148515 0  19.5 0  C 20.0148514851485 0  20.4524752475248 0.177083333333335  20.8128712871287 0.53125  C 21.1732673267327 0.885416666666665  21.3534653465347 1.31547619047619  21.3534653465347 1.82142857142857  C 21.3534653465347 2.07440476190476  21.3019801980198 2.32105654761904  21.1990099009901 2.56138392857143  C 22.7950495049505 2.7890625  24.2044554455446 3.31082589285714  25.4272277227723 4.12667410714286  C 26.65 4.94252232142857  27.6024752475248 5.93861607142857  28.2846534653465 7.11495535714286  L 36.3549504950495 0.227678571428573  C 36.4836633663366 0.126488095238093  36.634900990099 0.0822172619047621  36.8086633663366 0.0948660714285725  Z " fill-rule="nonzero" fill="#333333" stroke="none" transform="matrix(1 0 0 1 161 346 )" />
  </g>
</svg>