<?xml version="1.0" encoding="utf-8"?>
<svg version="1.1" xmlns:xlink="http://www.w3.org/1999/xlink" width="39px" height="24px" xmlns="http://www.w3.org/2000/svg">
  <g transform="matrix(1 0 0 1 -371 -740 )">
    <path d="M 0.97119140625 16.659375  C 0.32373046875 15.178125  0 13.625  0 12  C 0 10.375  0.32373046875 8.821875  0.97119140625 7.340625  C 1.61865234375 5.859375  2.485107421875 4.584375  3.570556640625 3.515625  C 4.656005859375 2.446875  5.950927734375 1.59375  7.455322265625 0.956249999999999  C 8.959716796875 0.318750000000001  10.537109375 0  12.1875 0  L 26.8125 0  C 28.462890625 0  30.040283203125 0.318750000000001  31.544677734375 0.956249999999999  C 33.049072265625 1.59375  34.343994140625 2.446875  35.429443359375 3.515625  C 36.514892578125 4.584375  37.38134765625 5.859375  38.02880859375 7.340625  C 38.67626953125 8.821875  39 10.375  39 12  C 39 13.625  38.67626953125 15.178125  38.02880859375 16.659375  C 37.38134765625 18.140625  36.514892578125 19.415625  35.429443359375 20.484375  C 34.343994140625 21.553125  33.049072265625 22.40625  31.544677734375 23.04375  C 30.040283203125 23.68125  28.462890625 24  26.8125 24  L 12.1875 24  C 10.537109375 24  8.959716796875 23.68125  7.455322265625 23.04375  C 5.950927734375 22.40625  4.656005859375 21.553125  3.570556640625 20.484375  C 2.485107421875 19.415625  1.61865234375 18.140625  0.97119140625 16.659375  Z M 23.032470703125 20.840625  C 24.232177734375 21.346875  25.4921875 21.6  26.8125 21.6  C 28.1328125 21.6  29.392822265625 21.346875  30.592529296875 20.840625  C 31.792236328125 20.334375  32.830078125 19.65  33.7060546875 18.7875  C 34.58203125 17.925  35.277099609375 16.903125  35.791259765625 15.721875  C 36.305419921875 14.540625  36.5625 13.3  36.5625 12  C 36.5625 10.7  36.305419921875 9.459375  35.791259765625 8.278125  C 35.277099609375 7.096875  34.58203125 6.075  33.7060546875 5.2125  C 32.830078125 4.35  31.792236328125 3.665625  30.592529296875 3.159375  C 29.392822265625 2.653125  28.1328125 2.4  26.8125 2.4  C 25.4921875 2.4  24.232177734375 2.653125  23.032470703125 3.159375  C 21.832763671875 3.665625  20.794921875 4.35  19.9189453125 5.2125  C 19.04296875 6.075  18.347900390625 7.096875  17.833740234375 8.278125  C 17.319580078125 9.459375  17.0625 10.7  17.0625 12  C 17.0625 13.3  17.319580078125 14.540625  17.833740234375 15.721875  C 18.347900390625 16.903125  19.04296875 17.925  19.9189453125 18.7875  C 20.794921875 19.65  21.832763671875 20.334375  23.032470703125 20.840625  Z " fill-rule="nonzero" fill="#333333" stroke="none" transform="matrix(1 0 0 1 371 740 )" />
  </g>
</svg>