<?xml version="1.0" encoding="utf-8"?>
<svg version="1.1" xmlns:xlink="http://www.w3.org/1999/xlink" width="32px" height="34px" xmlns="http://www.w3.org/2000/svg">
  <g transform="matrix(1 0 0 1 -310 -346 )">
    <path d="M 20.8055555555556 0.53125  C 21.1574074074074 0.885416666666662  21.3333333333333 1.3048245614035  21 1.78947368421053  L 21 32.2105263157895  C 21.3333333333333 32.6951754385965  21.1574074074074 33.1145833333333  20.8055555555556 33.46875  C 20.4537037037037 33.8229166666667  20.037037037037 34  19.5555555555556 34  C 19.0740740740741 34  18.6574074074074 33.8229166666667  18.3055555555556 33.46875  L 9.05555555555556 24.1578947368421  L 1.77777777777778 24.1578947368421  C 1.2962962962963 24.1578947368421  0.87962962962963 23.9808114035088  0.527777777777778 23.6266447368421  C 0.175925925925926 23.2724780701754  0 22.8530701754386  0 22.3684210526316  L 0 11.6315789473684  C 0 11.1469298245614  0.175925925925926 10.7275219298246  0.527777777777778 10.3733552631579  C 0.87962962962963 10.0191885964912  1.2962962962963 9.8421052631579  1.77777777777778 9.8421052631579  L 9.05555555555556 9.8421052631579  L 18.3055555555556 0.53125  C 18.6574074074074 0.177083333333331  19.0740740740741 0  19.5555555555556 0  C 20.037037037037 0  20.4537037037037 0.177083333333331  20.8055555555556 0.53125  Z M 30.8194444444444 13.0296052631579  C 31.6064814814815 14.2598684210526  32 15.5833333333333  32 17  C 32 18.4166666666667  31.6064814814815 19.7354714912281  30.8194444444444 20.9564144736842  C 30.0324074074074 22.1773574561403  28.9907407407407 23.0487938596491  27.6944444444444 23.5707236842105  C 27.5092592592593 23.6639254385965  27.2777777777778 23.7105263157895  27 23.7105263157895  C 26.5185185185185 23.7105263157895  26.1018518518519 23.5381030701754  25.75 23.1932565789474  C 25.3981481481481 22.8484100877193  25.2222222222222 22.4243421052632  25.2222222222222 21.9210526315789  C 25.2222222222222 21.5296052631579  25.3333333333333 21.1987390350877  25.5555555555556 20.9284539473684  C 25.7777777777778 20.6581688596491  26.0462962962963 20.4251644736842  26.3611111111111 20.2294407894737  C 26.6759259259259 20.0337171052632  26.9907407407407 19.8193530701754  27.3055555555556 19.5863486842105  C 27.6203703703704 19.3533442982456  27.8888888888889 19.0224780701754  28.1111111111111 18.59375  C 28.3333333333333 18.1650219298246  28.4444444444444 17.6337719298246  28.4444444444444 17  C 28.4444444444444 16.3662280701754  28.3333333333333 15.8349780701754  28.1111111111111 15.40625  C 27.8888888888889 14.9775219298246  27.6203703703704 14.6466557017544  27.3055555555556 14.4136513157895  C 26.9907407407407 14.1806469298246  26.6759259259259 13.9662828947368  26.3611111111111 13.7705592105263  C 26.0462962962963 13.5748355263158  25.7777777777778 13.3418311403509  25.5555555555556 13.0715460526316  C 25.3333333333333 12.8012609649123  25.2222222222222 12.4703947368421  25.2222222222222 12.0789473684211  C 25.2222222222222 11.5756578947368  25.3981481481481 11.1515899122807  25.75 10.8067434210526  C 26.1018518518519 10.4618969298246  26.5185185185185 10.2894736842105  27 10.2894736842105  C 27.2777777777778 10.2894736842105  27.5092592592593 10.3360745614035  27.6944444444444 10.4292763157895  C 28.9907407407407 10.9325657894737  30.0324074074074 11.7993421052632  30.8194444444444 13.0296052631579  Z " fill-rule="nonzero" fill="#333333" stroke="none" transform="matrix(1 0 0 1 310 346 )" />
  </g>
</svg>