<?xml version="1.0" encoding="utf-8"?>
<svg version="1.1" xmlns:xlink="http://www.w3.org/1999/xlink" width="12px" height="12px" viewBox="371 452  12 12" xmlns="http://www.w3.org/2000/svg">
  <path d="M 377 452  C 380.36 452  383 454.64  383 458  C 383 461.36  380.36 464  377 464  C 373.64 464  371 461.36  371 458  C 371 454.64  373.64 452  377 452  Z " fill-rule="nonzero" fill="#ffffff" stroke="none" />
  <path d="M 377 452.5  C 380.08 452.5  382.5 454.92  382.5 458  C 382.5 461.08  380.08 463.5  377 463.5  C 373.92 463.5  371.5 461.08  371.5 458  C 371.5 454.92  373.92 452.5  377 452.5  Z " stroke-width="1" stroke="#797979" fill="none" />
  <path d="M 377 461  C 375.32 461  374 459.68  374 458  C 374 456.32  375.32 455  377 455  C 378.68 455  380 456.32  380 458  C 380 459.68  378.68 461  377 461  " fill-rule="nonzero" fill="#797979" stroke="none" />
</svg>