<?xml version="1.0" encoding="utf-8"?>
<svg version="1.1" xmlns:xlink="http://www.w3.org/1999/xlink" width="25px" height="28px" xmlns="http://www.w3.org/2000/svg">
  <g transform="matrix(1 0 0 1 -259 -575 )">
    <path d="M 20.8333333333333 8.00000000000005  C 20.8333333333333 9.53125000000005  20.4047309027778 10.9479166666667  19.5475260416667 12.25  C 20.0575086805555 12.3958333333333  20.5430772569445 12.5937500000001  21.0042317708333 12.84375  C 21.4653862847222 13.09375  21.9482421875 13.4739583333333  22.4527994791667 13.984375  C 22.9573567708333 14.4947916666667  23.388671875 15.0963541666667  23.7467447916667 15.7890625  C 24.1048177083333 16.4817708333333  24.4032118055555 17.3776041666667  24.6419270833333 18.4765625  C 24.8806423611111 19.5755208333333  25 20.8072916666666  25 22.171875  C 25 23.7760416666667  24.4574652777778 25.1484375  23.3723958333333 26.2890625  C 22.2873263888889 27.4296875  20.9798177083333 28  19.4498697916667 28  L 5.55013020833333 28  C 4.02018229166667 28  2.71267361111109 27.4296875  1.62760416666667 26.2890625  C 0.542534722222245 25.1484375  0 23.7760416666667  0 22.171875  C 0 20.8072916666666  0.119357638888911 19.5755208333333  0.358072916666667 18.4765625  C 0.59678819444449 17.3776041666667  0.895182291666667 16.4817708333333  1.25325520833333 15.7890625  C 1.611328125 15.0963541666667  2.04264322916667 14.4947916666667  2.54720052083333 13.984375  C 3.0517578125 13.4739583333333  3.53461371527776 13.09375  3.99576822916667 12.84375  C 4.45692274305551 12.5937500000001  4.94249131944449 12.3958333333333  5.45247395833333 12.25  C 4.59526909722224 10.9479166666667  4.16666666666667 9.53125000000005  4.16666666666667 8.00000000000005  C 4.16666666666667 6.9166666666667  4.38639322916667 5.88281249999996  4.82584635416667 4.89843749999996  C 5.26529947916667 3.91406249999996  5.859375 3.0625  6.60807291666667 2.34375000000001  C 7.35677083333333 1.62499999999995  8.24381510416667 1.05468750000005  9.26920572916667 0.63281249999996  C 10.2945963541667 0.21093750000001  11.3715277777778 0  12.5 0  C 13.6284722222222 0  14.7054036458333 0.21093750000001  15.7307942708333 0.63281249999996  C 16.7561848958333 1.05468750000005  17.6432291666667 1.62499999999995  18.3919270833333 2.34375000000001  C 19.140625 3.0625  19.7347005208333 3.91406249999996  20.1741536458333 4.89843749999996  C 20.6136067708333 5.88281249999996  20.8333333333333 6.9166666666667  20.8333333333333 8.00000000000005  Z M 16.9189453125 3.75781249999995  C 15.6982421875 2.58593750000005  14.2252604166667 1.99999999999996  12.5 1.99999999999996  C 10.7747395833333 1.99999999999996  9.3017578125 2.58593750000005  8.0810546875 3.75781249999995  C 6.8603515625 4.92968749999999  6.25 6.34375  6.25 8.00000000000005  C 6.25 9.65624999999996  6.8603515625 11.0703125  8.0810546875 12.2421875  C 9.3017578125 13.4140625000001  10.7747395833333 14  12.5 14  C 14.2252604166667 14  15.6982421875 13.4140625000001  16.9189453125 12.2421875  C 18.1396484375 11.0703125  18.75 9.65624999999996  18.75 8.00000000000005  C 18.75 6.34375  18.1396484375 4.92968749999999  16.9189453125 3.75781249999995  Z M 5.55013020833333 26  L 19.4498697916667 26  C 20.4047309027778 26  21.2212456597222 25.6276041666667  21.8994140625 24.8828125  C 22.5775824652778 24.1380208333333  22.9166666666667 23.234375  22.9166666666667 22.171875  C 22.9166666666667 19.6822916666667  22.4907769097222 17.71875  21.6389973958333 16.28125  C 20.7872178819445 14.84375  19.5638020833333 14.0885416666667  17.96875 14.0156250000001  C 16.3953993055555 15.3385416666667  14.5724826388889 16  12.5 16  C 10.4275173611111 16  8.60460069444449 15.3385416666667  7.03125 14.0156250000001  C 5.43619791666667 14.0885416666667  4.21278211805551 14.84375  3.36100260416667 16.28125  C 2.50922309027776 17.71875  2.08333333333333 19.6822916666667  2.08333333333333 22.171875  C 2.08333333333333 23.234375  2.42241753472225 24.1380208333333  3.1005859375 24.8828125  C 3.77875434027776 25.6276041666667  4.59526909722224 26  5.55013020833333 26  Z " fill-rule="nonzero" fill="#000000" stroke="none" transform="matrix(1 0 0 1 259 575 )" />
  </g>
</svg>