<?xml version="1.0" encoding="utf-8"?>
<svg version="1.1" xmlns:xlink="http://www.w3.org/1999/xlink" width="32px" height="25px" xmlns="http://www.w3.org/2000/svg">
  <g transform="matrix(1 0 0 1 -132 -577 )">
    <path d="M 27.4002478314746 14.2829306313328  C 27.4134655101198 14.3089114055599  27.4200743494424 14.3478825669005  27.4200743494424 14.3998441153547  L 27.4200743494424 23.7529228371006  C 27.4200743494424 24.0906729020525  27.2945064023131 24.3829566121071  27.0433705080545 24.6297739672642  C 26.7922346137959 24.8765913224214  26.4948368442792 25  26.1511771995043 25  L 18.5377942998761 25  L 18.5377942998761 17.5175370226033  L 13.4622057001239 17.5175370226033  L 13.4622057001239 25  L 5.84882280049566 25  C 5.50516315572077 25  5.20776538620407 24.8765913224214  4.95662949194546 24.6297739672642  C 4.70549359768689 24.3829566121071  4.57992565055762 24.0906729020525  4.57992565055762 23.7529228371006  L 4.57992565055762 14.3998441153547  C 4.57992565055762 14.3868537282411  4.5832300702189 14.3673681475708  4.5898389095415 14.3413873733438  C 4.59644774886409 14.3154065991166  4.59975216852541 14.2959210184464  4.59975216852541 14.2829306313328  L 16 5.0467653936087  L 27.4002478314746 14.2829306313328  Z M 31.9801734820322 12.5974279033515  C 31.9933911606774 12.7727981293843  31.9471292854192 12.9254351779683  31.8413878562577 13.0553390491037  L 30.6121437422553 14.4972720187061  C 30.5064023130938 14.614185502728  30.3676166873193 14.6856326318525  30.1957868649318 14.7116134060795  L 30.1363073110285 14.7116134060795  C 29.9644774886411 14.7116134060795  29.8256918628666 14.6661470511822  29.7199504337051 14.5752143413874  L 16 3.33203429462198  L 2.28004956629492 14.5752143413874  C 2.12143742255268 14.6791374382956  1.9628252788104 14.724603793193  1.80421313506816 14.7116134060795  C 1.63238331268069 14.6856326318525  1.49359768690623 14.614185502728  1.38785625774475 14.4972720187061  L 0.158612143742276 13.0553390491037  C 0.0528707145807588 12.9254351779683  0.00660883932259485 12.7727981293843  0.0198265179677845 12.5974279033515  C 0.0330441966129742 12.4220576773188  0.105741429161518 12.2824110158483  0.237918215613381 12.17848791894  L 14.4931846344486 0.506625097427935  C 14.9161503510946 0.168875032475956  15.4184221396117 0  16 0  C 16.5815778603883 0  17.0838496489054 0.168875032475956  17.5068153655514 0.506625097427935  L 22.3444857496902 4.48168355416987  L 22.3444857496902 0.681995323460596  C 22.3444857496902 0.500129903871095  22.4039653035936 0.350740452065457  22.5229244114003 0.233826968043683  C 22.6418835192069 0.116913484021774  22.7938868236266 0.058456742010887  22.9789343246592 0.058456742010887  L 26.7856257744734 0.058456742010887  C 26.970673275506 0.058456742010887  27.1226765799256 0.116913484021774  27.2416356877324 0.233826968043683  C 27.360594795539 0.350740452065457  27.4200743494424 0.500129903871095  27.4200743494424 0.681995323460596  L 27.4200743494424 8.63211223694468  L 31.7620817843866 12.17848791894  C 31.8942585708385 12.2824110158483  31.9669558033871 12.4220576773188  31.9801734820322 12.5974279033515  Z " fill-rule="nonzero" fill="#000000" stroke="none" transform="matrix(1 0 0 1 132 577 )" />
  </g>
</svg>