<?xml version="1.0" encoding="utf-8"?>
<svg version="1.1" xmlns:xlink="http://www.w3.org/1999/xlink" width="13px" height="13px" xmlns="http://www.w3.org/2000/svg">
  <g transform="matrix(1 0 0 1 -109 -224 )">
    <path d="M 7.97265625 7.97265625  C 8.65755208333333 7.28776041666667  9 6.46354166666667  9 5.5  C 9 4.53645833333333  8.65755208333333 3.71223958333333  7.97265625 3.02734375  C 7.28776041666667 2.34244791666667  6.46354166666667 2  5.5 2  C 4.53645833333333 2  3.71223958333333 2.34244791666667  3.02734375 3.02734375  C 2.34244791666667 3.71223958333333  2 4.53645833333333  2 5.5  C 2 6.46354166666667  2.34244791666667 7.28776041666667  3.02734375 7.97265625  C 3.71223958333333 8.65755208333333  4.53645833333333 9  5.5 9  C 6.46354166666667 9  7.28776041666667 8.65755208333333  7.97265625 7.97265625  Z M 12.7109375 11.296875  C 12.9036458333333 11.4895833333333  13 11.7239583333333  13 12  C 13 12.2708333333333  12.9010416666667 12.5052083333333  12.703125 12.703125  C 12.5052083333333 12.9010416666667  12.2708333333333 13  12 13  C 11.71875 13  11.484375 12.9010416666667  11.296875 12.703125  L 8.6171875 10.03125  C 7.68489583333333 10.6770833333333  6.64583333333333 11  5.5 11  C 4.75520833333333 11  4.04296875 10.85546875  3.36328125 10.56640625  C 2.68359375 10.27734375  2.09765625 9.88671875  1.60546875 9.39453125  C 1.11328125 8.90234375  0.72265625 8.31640625  0.43359375 7.63671875  C 0.14453125 6.95703125  0 6.24479166666667  0 5.5  C 0 4.75520833333333  0.14453125 4.04296875  0.43359375 3.36328125  C 0.72265625 2.68359375  1.11328125 2.09765625  1.60546875 1.60546875  C 2.09765625 1.11328125  2.68359375 0.72265625  3.36328125 0.43359375  C 4.04296875 0.14453125  4.75520833333333 0  5.5 0  C 6.24479166666667 0  6.95703125 0.14453125  7.63671875 0.43359375  C 8.31640625 0.72265625  8.90234375 1.11328125  9.39453125 1.60546875  C 9.88671875 2.09765625  10.27734375 2.68359375  10.56640625 3.36328125  C 10.85546875 4.04296875  11 4.75520833333333  11 5.5  C 11 6.64583333333333  10.6770833333333 7.68489583333333  10.03125 8.6171875  L 12.7109375 11.296875  Z " fill-rule="nonzero" fill="#333333" stroke="none" transform="matrix(1 0 0 1 109 224 )" />
  </g>
</svg>