<?xml version="1.0" encoding="utf-8"?>
<svg version="1.1" xmlns:xlink="http://www.w3.org/1999/xlink" width="39px" height="30px" xmlns="http://www.w3.org/2000/svg">
  <g transform="matrix(1 0 0 1 -105 -391 )">
    <path d="M 3 27  L 39 27  L 39 30  L 0 30  L 0 0  L 3 0  L 3 27  Z M 36.39111328125 2.67578125  C 36.50537109375 2.79296875  36.5625 2.94270833333333  36.5625 3.125  L 36.5625 11.62109375  C 36.5625 11.89453125  36.438720703125 12.0865885416667  36.191162109375 12.197265625  C 35.943603515625 12.3079427083333  35.71826171875 12.2591145833333  35.51513671875 12.05078125  L 33.2109375 9.6875  L 21.15673828125 22.05078125  C 21.02978515625 22.1809895833333  20.8837890625 22.24609375  20.71875 22.24609375  C 20.5537109375 22.24609375  20.40771484375 22.1809895833333  20.28076171875 22.05078125  L 15.84375 17.5  L 7.921875 25.625  L 4.265625 21.875  L 15.40576171875 10.44921875  C 15.53271484375 10.3190104166667  15.6787109375 10.25390625  15.84375 10.25390625  C 16.0087890625 10.25390625  16.15478515625 10.3190104166667  16.28173828125 10.44921875  L 20.71875 15  L 29.5546875 5.9375  L 27.25048828125 3.57421875  C 27.04736328125 3.36588541666666  26.999755859375 3.134765625  27.107666015625 2.880859375  C 27.215576171875 2.626953125  27.40283203125 2.5  27.66943359375 2.5  L 35.953125 2.5  C 36.130859375 2.5  36.27685546875 2.55859375  36.39111328125 2.67578125  Z " fill-rule="nonzero" fill="#000000" stroke="none" transform="matrix(1 0 0 1 105 391 )" />
  </g>
</svg>