<?xml version="1.0" encoding="utf-8"?>
<svg version="1.1" xmlns:xlink="http://www.w3.org/1999/xlink" width="30px" height="30px" xmlns="http://www.w3.org/2000/svg">
  <g transform="matrix(1 0 0 1 -156 -391 )">
    <path d="M 19.3524740378742 8.68662186927306  L 21.3133781307269 10.6475259621258  L 26.682956627978 5.27794746487477  L 24.7220525351252 3.31704337202199  L 19.3524740378742 8.68662186927306  Z M 29.1753207086133 4.45326817348809  C 29.3952351863164 4.6731826511912  29.505192425168 4.9480757483201  29.505192425168 5.27794746487477  C 29.505192425168 5.60781918142944  29.3952351863164 5.88271227855834  29.1753207086133 6.10262675626145  L 5.60781918142944 29.6701282834453  C 5.38790470372633 29.8900427611484  5.11301160659743 30  4.78313989004276 30  C 4.45326817348809 30  4.1783750763592 29.8900427611484  3.95846059865608 29.6701282834453  L 0.329871716554673 26.0415394013439  C 0.109957238851558 25.8216249236408  0 25.5467318265119  0 25.2168601099572  C 0 24.8869883934026  0.109957238851558 24.6120952962737  0.329871716554673 24.3921808185706  L 23.8973732437385 0.824679291386683  C 24.1172877214417 0.604764813683568  24.3921808185706 0.494807574832009  24.7220525351252 0.494807574832009  C 25.0519242516799 0.494807574832009  25.3268173488088 0.604764813683568  25.5467318265119 0.824679291386683  L 29.1753207086133 4.45326817348809  Z M 4.19670128283445 0  L 4.74648747709224 1.79596823457544  L 6.54245571166769 2.34575442883323  L 4.74648747709224 2.89554062309102  L 4.19670128283445 4.69150885766646  L 3.64691508857666 2.89554062309102  L 1.85094685400122 2.34575442883323  L 3.64691508857666 1.79596823457544  L 4.19670128283445 0  Z M 10.0610873549175 1.17287721441662  L 11.1606597434331 4.7648136835675  L 14.752596212584 5.86438607208308  L 11.1606597434331 6.96395846059866  L 10.0610873549175 10.5558949297495  L 8.96151496640196 6.96395846059866  L 5.36957849725107 5.86438607208308  L 8.96151496640196 4.7648136835675  L 10.0610873549175 1.17287721441662  Z M 27.6542455711668 11.7287721441662  L 28.2040317654246 13.5247403787416  L 30 14.0745265729994  L 28.2040317654246 14.6243127672572  L 27.6542455711668 16.4202810018326  L 27.104459376909 14.6243127672572  L 25.3084911423335 14.0745265729994  L 27.104459376909 13.5247403787416  L 27.6542455711668 11.7287721441662  Z M 15.9254734270006 0  L 16.4752596212584 1.79596823457544  L 18.2712278558338 2.34575442883323  L 16.4752596212584 2.89554062309102  L 15.9254734270006 4.69150885766646  L 15.3756872327428 2.89554062309102  L 13.5797189981674 2.34575442883323  L 15.3756872327428 1.79596823457544  L 15.9254734270006 0  Z " fill-rule="nonzero" fill="#000000" stroke="none" transform="matrix(1 0 0 1 156 391 )" />
  </g>
</svg>