<?xml version="1.0" encoding="utf-8"?>
<svg version="1.1" xmlns:xlink="http://www.w3.org/1999/xlink" width="32px" height="30px" xmlns="http://www.w3.org/2000/svg">
  <g transform="matrix(1 0 0 1 -197 -391 )">
    <path d="M 30.3673469387755 5.99609375  C 30.8539415766307 6.19140625  31.2316926770708 6.47135416666666  31.500600240096 6.8359375  C 32.0128051220488 7.578125  32.1280512204882 8.41796875  31.8463385354142 9.35546875  L 26.5642256902761 27.05078125  C 26.3209283713485 27.8841145833333  25.8311324529812 28.583984375  25.0948379351741 29.150390625  C 24.3585434173669 29.716796875  23.5742296918768 30  22.7418967587035 30  L 5.01320528211285 30  C 4.02721088435374 30  3.07643057222889 29.6516927083333  2.1608643457383 28.955078125  C 1.2452981192477 28.2584635416667  0.608243297318928 27.40234375  0.249699879951981 26.38671875  C -0.0576230492196879 25.5143229166667  -0.0704281712685074 24.6875  0.211284513805522 23.90625  C 0.211284513805522 23.8541666666667  0.230492196878752 23.6783854166667  0.26890756302521 23.37890625  C 0.307322929171669 23.0794270833333  0.332933173269308 22.8385416666667  0.345738295318127 22.65625  C 0.358543417366947 22.5520833333333  0.339335734293717 22.412109375  0.288115246098439 22.236328125  C 0.236894757903161 22.060546875  0.217687074829932 21.93359375  0.230492196878752 21.85546875  C 0.256102440976391 21.7122395833333  0.307322929171669 21.5755208333333  0.384153661464586 21.4453125  C 0.460984393757503 21.3151041666667  0.566626650660264 21.162109375  0.701080432172869 20.986328125  C 0.835534213685474 20.810546875  0.941176470588235 20.6575520833333  1.01800720288115 20.52734375  C 1.312525010004 20.0325520833333  1.60064025610244 19.4368489583333  1.88235294117647 18.740234375  C 2.1640656262505 18.0436197916667  2.35614245698279 17.4479166666667  2.45858343337335 16.953125  C 2.49699879951981 16.8229166666667  2.50020008003201 16.6276041666667  2.46818727490996 16.3671875  C 2.43617446978792 16.1067708333333  2.43297318927571 15.9244791666667  2.45858343337335 15.8203125  C 2.49699879951981 15.6770833333333  2.60584233693477 15.4947916666667  2.78511404561825 15.2734375  C 2.96438575430172 15.0520833333333  3.07322929171669 14.90234375  3.11164465786315 14.82421875  C 3.38055222088836 14.35546875  3.64945978391357 13.7565104166667  3.91836734693878 13.02734375  C 4.18727490996399 12.2981770833333  4.34733893557423 11.7122395833333  4.39855942376951 11.26953125  C 4.41136454581833 11.15234375  4.3953581432573 10.9440104166667  4.35054021608643 10.64453125  C 4.30572228891557 10.3450520833333  4.30892356942777 10.1627604166667  4.36014405762305 10.09765625  C 4.41136454581833 9.92838541666666  4.55222088835534 9.72981770833333  4.78271308523409 9.501953125  C 5.01320528211285 9.27408854166667  5.15406162464986 9.12760416666667  5.20528211284514 9.0625  C 5.44857943177271 8.72395833333333  5.72068827531012 8.173828125  6.02160864345738 7.412109375  C 6.32252901160464 6.650390625  6.49859943977591 6.02213541666667  6.54981992797119 5.52734375  C 6.56262505002001 5.42317708333333  6.54341736694678 5.25716145833333  6.4921968787515 5.029296875  C 6.44097639055622 4.80143229166666  6.4281712685074 4.62890625  6.45378151260504 4.51171875  C 6.47939175670268 4.40755208333333  6.53701480592237 4.29036458333333  6.62665066026411 4.16015625  C 6.71628651460584 4.02994791666667  6.83153261304522 3.88020833333333  6.97238895558223 3.7109375  C 7.11324529811925 3.54166666666666  7.22208883553421 3.40494791666667  7.29891956782713 3.30078125  C 7.40136054421769 3.14453125  7.50700280112045 2.94596354166667  7.61584633853541 2.705078125  C 7.72468987595038 2.46419270833333  7.82072829131653 2.236328125  7.90396158463385 2.021484375  C 7.98719487795118 1.806640625  8.08963585434174 1.572265625  8.21128451380552 1.318359375  C 8.33293317326931 1.064453125  8.4577831132453 0.856119791666665  8.58583433373349 0.693359374999999  C 8.71388555422169 0.530598958333329  8.88355342136855 0.377604166666664  9.09483793517407 0.234375  C 9.30612244897959 0.0911458333333293  9.53661464585834 0.0162760416666663  9.78631452581032 0.00976562500000111  C 10.0360144057623 0.00325520833332926  10.3401360544218 0.0390625000000011  10.6986794717887 0.1171875  L 10.6794717887155 0.17578125  C 11.1660664265706 0.05859375  11.4925970388155 0  11.6590636254502 0  L 26.2761104441777 0  C 27.2236894757903 0  27.953581432573 0.36458333333333  28.4657863145258 1.09375  C 28.9779911964786 1.82291666666667  29.093237294918 2.66927083333333  28.8115246098439 3.6328125  L 23.5486194477791 21.328125  C 23.0876350540216 22.8776041666667  22.6298519407763 23.876953125  22.1752701080432 24.326171875  C 21.7206882753101 24.775390625  20.8979591836735 25  19.7070828331333 25  L 3.015606242497 25  C 2.66986794717887 25  2.4265706282513 25.09765625  2.28571428571429 25.29296875  C 2.14485794317727 25.5013020833333  2.13845538215286 25.78125  2.26650660264106 26.1328125  C 2.57382953181272 27.0442708333333  3.49579831932773 27.5  5.03241296518607 27  L 22.7611044417767 27  C 23.1324529811925 27.5  23.4909963985594 27.3990885416667  23.8367346938776 27.197265625  C 24.1824729891957 26.9954427083333  24.40656262505 26.7252604166667  24.5090036014406 26.38671875  L 30.2713085234094 7.109375  C 30.3609443777511 6.82291666666666  30.3929571828732 6.45182291666667  30.3673469387755 5.99609375  Z M 11.4669867947179 5.625  L 11.0636254501801 6.875  C 11.0124049619848 7.04427083333333  11.0252100840336 7.19075520833333  11.1020408163265 7.314453125  C 11.1788715486194 7.43815104166666  11.3069227691076 7.5  11.4861944777911 8  L 23.1644657863145 8  C 23.3309323729492 7.5  23.4941976790716 7.43815104166666  23.6542617046819 7.314453125  C 23.8143257302921 7.19075520833333  23.9199679871949 7.04427083333333  23.9711884753902 6.875  L 24.374549819928 5.625  C 24.4257703081233 5.45572916666667  24.4129651860744 5.30924479166667  24.3361344537815 5.185546875  C 24.2593037214886 5.06184895833333  24.1312525010004 5  23.9519807923169 5  L 12.2737094837935 5  C 12.1072428971589 5  11.9439775910364 5.06184895833333  11.7839135654262 5.185546875  C 11.6238495398159 5.30924479166667  11.5182072829132 5.45572916666667  11.4669867947179 5.625  Z M 9.87274909963986 10.625  L 9.46938775510204 11.875  C 9.41816726690676 12.0442708333333  9.43097238895558 12.1907552083333  9.5078031212485 12.314453125  C 9.58463385354142 12.4381510416667  9.71268507402961 12.5  9.89195678271309 13  L 21.5702280912365 13  C 21.7366946778711 12.5  21.8999599839936 12.4381510416667  22.0600240096038 12.314453125  C 22.2200880352141 12.1907552083333  22.3257302921168 12.0442708333333  22.3769507803121 11.875  L 22.7803121248499 10.625  C 22.8315326130452 10.4557291666667  22.8187274909964 10.3092447916667  22.7418967587035 10.185546875  C 22.6650660264106 10.0618489583333  22.5370148059224 10  22.3577430972389 10  L 10.6794717887155 10  C 10.5130052020808 10  10.3497398959584 10.0618489583333  10.1896758703481 10.185546875  C 10.0296118447379 10.3092447916667  9.92396958783513 10.4557291666667  9.87274909963986 10.625  Z " fill-rule="nonzero" fill="#000000" stroke="none" transform="matrix(1 0 0 1 197 391 )" />
  </g>
</svg>