<?xml version="1.0" encoding="utf-8"?>
<svg version="1.1" xmlns:xlink="http://www.w3.org/1999/xlink" width="35px" height="30px" xmlns="http://www.w3.org/2000/svg">
  <g transform="matrix(1 0 0 1 -284 -391 )">
    <path d="M 20.7356770833333 26.8415178571429  C 21.0091145833333 26.640625  21.1458333333333 26.3541666666667  21.1458333333333 25.9821428571429  L 21 24.7321428571429  L 21 14.2857142857143  L 21.1458333333333 10  L 13.8541666666667 10  L 14 14.2857142857143  L 14 24.7321428571429  L 13.8541666666667 25.9821428571429  C 13.8541666666667 26.3541666666667  13.9908854166667 26.640625  14.2643229166667 26.8415178571429  C 14.5377604166667 27.0424107142857  14.8871527777778 27.1428571428571  15.3125 27.1428571428571  L 19.6875 27.1428571428571  C 20.1128472222222 27.1428571428571  20.4622395833333 27.0424107142857  20.7356770833333 26.8415178571429  Z M 9.20572916666667 6.51785714285714  C 9.63107638888889 6.9345238095238  10.1475694444444 7.14285714285714  10.7552083333333 7.14285714285714  L 15.1985677083333 7.14285714285714  L 12.3274739583333 3.54910714285714  C 11.9325086805556 3.08779761904762  11.4084201388889 2.85714285714286  10.7552083333333 2.85714285714286  C 10.1475694444444 2.85714285714286  9.63107638888889 3.06547619047619  9.20572916666667 3.48214285714286  C 8.78038194444444 3.89880952380952  8.56770833333333 4.4047619047619  8.56770833333333 5  C 8.56770833333333 5.59523809523809  8.78038194444444 6.10119047619047  9.20572916666667 6.51785714285714  Z M 25.7942708333333 6.51785714285714  C 26.2196180555556 6.10119047619047  26.4322916666667 5.59523809523809  26.4322916666667 5  C 26.4322916666667 4.4047619047619  26.2196180555556 3.89880952380952  25.7942708333333 3.48214285714286  C 25.3689236111111 3.06547619047619  24.8524305555556 2.85714285714286  24.2447916666667 2.85714285714286  C 23.5915798611111 2.85714285714286  23.0674913194444 3.08779761904762  22.6725260416667 3.54910714285714  L 19.82421875 7.14285714285714  L 24.2447916666667 7.14285714285714  C 24.8524305555556 7.14285714285714  25.3689236111111 6.9345238095238  25.7942708333333 6.51785714285714  Z M 34.794921875 10.2008928571429  C 34.931640625 10.3348214285714  35 10.5059523809524  35 10.7142857142857  L 35 17.8571428571429  C 35 18.0654761904762  34.931640625 18.2366071428571  34.794921875 18.3705357142857  C 34.658203125 18.5044642857143  34.4835069444445 18.5714285714286  34.2708333333333 18.5714285714286  L 32.0833333333333 18.5714285714286  L 32.0833333333333 27.8571428571429  C 32.0833333333333 28.452380952381  31.8706597222222 28.9583333333333  31.4453125 29.375  C 31.0199652777778 29.7916666666667  30.5034722222222 30  29.8958333333333 30  L 5.10416666666667 30  C 4.49652777777778 30  3.98003472222222 29.7916666666667  3.5546875 29.375  C 3.12934027777778 28.9583333333333  2.91666666666667 28.452380952381  2.91666666666667 27.8571428571429  L 2.91666666666667 18.5714285714286  L 0.729166666666667 18.5714285714286  C 0.516493055555556 18.5714285714286  0.341796875 18.5044642857143  0.205078125 18.3705357142857  C 0.068359375 18.2366071428571  0 18.0654761904762  0 17.8571428571429  L 0 10.7142857142857  C 0 10.5059523809524  0.068359375 10.3348214285714  0.205078125 10.2008928571429  C 0.341796875 10.0669642857143  0.516493055555556 10  0.729166666666667 10  L 10.7552083333333 10  C 9.34244791666667 10  8.13856336805556 9.51264880952381  7.1435546875 8.53794642857143  C 6.14854600694445 7.56324404761905  5.65104166666667 6.38392857142857  5.65104166666667 5  C 5.65104166666667 3.61607142857143  6.14854600694445 2.43675595238095  7.1435546875 1.46205357142857  C 8.13856336805556 0.48735119047619  9.34244791666667 0  10.7552083333333 0  C 12.3806423611111 0  13.6566840277778 0.572916666666663  14.5833333333333 1.71875  L 17.5 5.40178571428572  L 20.4166666666667 1.71875  C 21.3433159722222 0.572916666666663  22.6193576388889 0  24.2447916666667 0  C 25.6575520833333 0  26.8614366319445 0.48735119047619  27.8564453125 1.46205357142857  C 28.8514539930556 2.43675595238095  29.3489583333333 3.61607142857143  29.3489583333333 5  C 29.3489583333333 6.38392857142857  28.8514539930556 7.56324404761905  27.8564453125 8.53794642857143  C 26.8614366319445 9.51264880952381  25.6575520833333 10  24.2447916666667 10  L 34.2708333333333 10  C 34.4835069444445 10  34.658203125 10.0669642857143  34.794921875 10.2008928571429  Z " fill-rule="nonzero" fill="#000000" stroke="none" transform="matrix(1 0 0 1 284 391 )" />
  </g>
</svg>