<?xml version="1.0" encoding="utf-8"?>
<svg version="1.1" xmlns:xlink="http://www.w3.org/1999/xlink" width="23px" height="25px" xmlns="http://www.w3.org/2000/svg">
  <g transform="matrix(1 0 0 1 -405 -351 )">
    <path d="M 14.10546875 15.33203125  C 15.3172075320513 14.0149238782051  15.9230769230769 12.4298878205128  15.9230769230769 10.5769230769231  C 15.9230769230769 8.72395833333333  15.3172075320513 7.13892227564102  14.10546875 5.82181490384615  C 12.8937299679487 4.50470753205128  11.4354967948718 3.84615384615385  9.73076923076923 3.84615384615385  C 8.02604166666667 3.84615384615385  6.56780849358974 4.50470753205128  5.35606971153846 5.82181490384615  C 4.14433092948718 7.13892227564102  3.53846153846154 8.72395833333333  3.53846153846154 10.5769230769231  C 3.53846153846154 12.4298878205128  4.14433092948718 14.0149238782051  5.35606971153846 15.33203125  C 6.56780849358974 16.6491386217949  8.02604166666667 17.3076923076923  9.73076923076923 17.3076923076923  C 11.4354967948718 17.3076923076923  12.8937299679487 16.6491386217949  14.10546875 15.33203125  Z M 22.4885817307692 21.7247596153846  C 22.8295272435897 22.0953525641026  23 22.5460737179487  23 23.0769230769231  C 23 23.5977564102564  22.8249198717949 24.0484775641026  22.4747596153846 24.4290865384615  C 22.1245993589744 24.8096955128205  21.7099358974359 25  21.2307692307692 25  C 20.7331730769231 25  20.3185096153846 24.8096955128205  19.9867788461538 24.4290865384615  L 15.2457932692308 19.2908653846154  C 13.5963541666667 20.5328525641026  11.7580128205128 21.1538461538462  9.73076923076923 21.1538461538462  C 8.4130608974359 21.1538461538462  7.15294471153846 20.8759014423077  5.95042067307692 20.3200120192308  C 4.74789663461539 19.7641225961538  3.71123798076923 19.0129206730769  2.84044471153846 18.06640625  C 1.96965144230769 17.1198918269231  1.27854567307692 15.9930889423077  0.767127403846154 14.6859975961538  C 0.255709134615385 13.37890625  0 12.0092147435897  0 10.5769230769231  C 0 9.14463141025641  0.255709134615385 7.77493990384615  0.767127403846154 6.46784855769231  C 1.27854567307692 5.16075721153846  1.96965144230769 4.03395432692308  2.84044471153846 3.08743990384615  C 3.71123798076923 2.14092548076923  4.74789663461539 1.38972355769231  5.95042067307692 0.833834134615385  C 7.15294471153846 0.277944711538461  8.4130608974359 0  9.73076923076923 0  C 11.0484775641026 0  12.30859375 0.277944711538461  13.5111177884615 0.833834134615385  C 14.7136418269231 1.38972355769231  15.7503004807692 2.14092548076923  16.62109375 3.08743990384615  C 17.4918870192308 4.03395432692308  18.1829927884615 5.16075721153846  18.6944110576923 6.46784855769231  C 19.2058293269231 7.77493990384615  19.4615384615385 9.14463141025641  19.4615384615385 10.5769230769231  C 19.4615384615385 12.7804487179487  18.8902243589744 14.7786458333333  17.7475961538462 16.5715144230769  L 22.4885817307692 21.7247596153846  Z " fill-rule="nonzero" fill="#000000" stroke="none" transform="matrix(1 0 0 1 405 351 )" />
  </g>
</svg>