<?xml version="1.0" encoding="utf-8"?>
<svg version="1.1" xmlns:xlink="http://www.w3.org/1999/xlink" width="35px" height="50px" xmlns="http://www.w3.org/2000/svg">
  <g transform="matrix(1 0 0 1 -283 -514 )">
    <path d="M 16.21826171875 40.0305706521739  C 17.07275390625 39.1813858695652  17.5 38.1567028985507  17.5 36.9565217391304  C 17.5 36.1413043478261  17.2721354166667 35.3600543478261  16.81640625 34.6127717391304  C 16.7936197916667 34.5901268115942  16.6170247395833 34.3353713768116  16.28662109375 33.8485054347826  C 15.9562174479167 33.3616394927536  15.6656901041667 32.9313858695652  15.4150390625 32.5577445652174  C 15.1643880208333 32.1841032608696  14.8795572916667 31.6859148550725  14.560546875 31.0631793478261  C 14.2415364583333 30.4404438405797  14.0022786458333 29.8686594202899  13.8427734375 29.3478260869565  C 13.7516276041667 28.9855072463768  13.5123697916667 28.804347826087  13.125 28.804347826087  C 12.7376302083333 28.804347826087  12.4983723958333 28.9855072463768  12.4072265625 29.3478260869565  C 12.2477213541667 29.8686594202899  12.0084635416667 30.4404438405797  11.689453125 31.0631793478261  C 11.3704427083333 31.6859148550725  11.0856119791667 32.1841032608696  10.8349609375 32.5577445652174  C 10.5843098958333 32.9313858695652  10.2937825520833 33.3616394927536  9.96337890625 33.8485054347826  C 9.63297526041667 34.3353713768116  9.45638020833333 34.5901268115942  9.43359375 34.6127717391304  C 8.97786458333333 35.3600543478261  8.75 36.1413043478261  8.75 36.9565217391304  C 8.75 38.1567028985507  9.17724609375 39.1813858695652  10.03173828125 40.0305706521739  C 10.88623046875 40.8797554347826  11.9173177083333 41.304347826087  13.125 41.304347826087  C 14.3326822916667 41.304347826087  15.36376953125 40.8797554347826  16.21826171875 40.0305706521739  Z M 32.2314453125 23.2676630434783  C 34.0771484375 26.1435688405797  35 29.2572463768116  35 32.6086956521739  C 35 37.4094202898551  33.291015625 41.508152173913  29.873046875 44.9048913043478  C 26.455078125 48.3016304347826  22.3307291666667 50  17.5 50  C 12.6692708333333 50  8.544921875 48.3016304347826  5.126953125 44.9048913043478  C 1.708984375 41.508152173913  0 37.4094202898551  0 32.6086956521739  C 0 29.3251811594203  0.9228515625 26.2115036231884  2.7685546875 23.2676630434783  C 2.9052734375 23.0638586956522  3.61735026041667 22.0391757246377  4.90478515625 20.1936141304348  C 6.19222005208333 18.3480525362319  7.34293619791667 16.6383605072464  8.35693359375 15.0645380434783  C 9.37093098958333 13.4907155797101  10.5045572916667 11.4753170289855  11.7578125 9.01834239130435  C 13.0110677083333 6.56136775362318  13.9567057291667 4.27989130434783  14.5947265625 2.17391304347826  C 14.7998046875 1.4945652173913  15.1871744791667 0.96240942028985  15.7568359375 0.577445652173914  C 16.3264973958333 0.192481884057966  16.9075520833333 0  17.5 0  C 18.0924479166667 0  18.67919921875 0.192481884057966  19.26025390625 0.577445652173914  C 19.84130859375 0.96240942028985  20.2229817708333 1.4945652173913  20.4052734375 2.17391304347826  C 21.0432942708333 4.27989130434783  21.9889322916667 6.56136775362318  23.2421875 9.01834239130435  C 24.4954427083333 11.4753170289855  25.6290690104167 13.4907155797101  26.64306640625 15.0645380434783  C 27.6570638020833 16.6383605072464  28.8077799479167 18.3480525362319  30.09521484375 20.1936141304348  C 31.3826497395833 22.0391757246377  32.0947265625 23.0638586956522  32.2314453125 23.2676630434783  Z " fill-rule="nonzero" fill="#000000" stroke="none" transform="matrix(1 0 0 1 283 514 )" />
  </g>
</svg>