<?xml version="1.0" encoding="utf-8"?>
<svg version="1.1" xmlns:xlink="http://www.w3.org/1999/xlink" width="30px" height="28px" xmlns="http://www.w3.org/2000/svg">
  <g transform="matrix(1 0 0 1 -1300 -776 )">
    <path d="M 25 8.00000000000005  C 25 9.53125000000005  24.4856770833333 10.9479166666667  23.45703125 12.25  C 24.0690104166666 12.3958333333333  24.6516927083334 12.5937500000001  25.205078125 12.84375  C 25.7584635416667 13.09375  26.337890625 13.4739583333333  26.943359375 13.984375  C 27.548828125 14.4947916666667  28.06640625 15.0963541666667  28.49609375 15.7890625  C 28.92578125 16.4817708333333  29.2838541666666 17.3776041666667  29.5703125 18.4765625  C 29.8567708333333 19.5755208333333  30 20.8072916666666  30 22.171875  C 30 23.7760416666667  29.3489583333333 25.1484375  28.046875 26.2890625  C 26.7447916666667 27.4296875  25.17578125 28  23.33984375 28  L 6.66015625 28  C 4.82421875 28  3.25520833333331 27.4296875  1.953125 26.2890625  C 0.651041666666694 25.1484375  0 23.7760416666667  0 22.171875  C 0 20.8072916666666  0.143229166666694 19.5755208333333  0.4296875 18.4765625  C 0.716145833333388 17.3776041666667  1.07421875 16.4817708333333  1.50390625 15.7890625  C 1.93359375 15.0963541666667  2.451171875 14.4947916666667  3.056640625 13.984375  C 3.662109375 13.4739583333333  4.24153645833331 13.09375  4.794921875 12.84375  C 5.34830729166661 12.5937500000001  5.93098958333339 12.3958333333333  6.54296875 12.25  C 5.51432291666669 10.9479166666667  5 9.53125000000005  5 8.00000000000005  C 5 6.9166666666667  5.263671875 5.88281249999996  5.791015625 4.89843749999996  C 6.318359375 3.91406249999996  7.03125 3.0625  7.9296875 2.34375000000001  C 8.828125 1.62499999999995  9.892578125 1.05468750000005  11.123046875 0.63281249999996  C 12.353515625 0.21093750000001  13.6458333333333 0  15 0  C 16.3541666666667 0  17.646484375 0.21093750000001  18.876953125 0.63281249999996  C 20.107421875 1.05468750000005  21.171875 1.62499999999995  22.0703125 2.34375000000001  C 22.96875 3.0625  23.681640625 3.91406249999996  24.208984375 4.89843749999996  C 24.736328125 5.88281249999996  25 6.9166666666667  25 8.00000000000005  Z M 20.302734375 3.75781249999995  C 18.837890625 2.58593750000005  17.0703125 1.99999999999996  15 1.99999999999996  C 12.9296875 1.99999999999996  11.162109375 2.58593750000005  9.697265625 3.75781249999995  C 8.232421875 4.92968749999999  7.5 6.34375  7.5 8.00000000000005  C 7.5 9.65624999999996  8.232421875 11.0703125  9.697265625 12.2421875  C 11.162109375 13.4140625000001  12.9296875 14  15 14  C 17.0703125 14  18.837890625 13.4140625000001  20.302734375 12.2421875  C 21.767578125 11.0703125  22.5 9.65624999999996  22.5 8.00000000000005  C 22.5 6.34375  21.767578125 4.92968749999999  20.302734375 3.75781249999995  Z M 6.66015625 26  L 23.33984375 26  C 24.4856770833333 26  25.4654947916667 25.6276041666667  26.279296875 24.8828125  C 27.0930989583333 24.1380208333333  27.5 23.234375  27.5 22.171875  C 27.5 19.6822916666667  26.9889322916667 17.71875  25.966796875 16.28125  C 24.9446614583334 14.84375  23.4765625 14.0885416666667  21.5625 14.0156250000001  C 19.6744791666666 15.3385416666667  17.4869791666667 16  15 16  C 12.5130208333333 16  10.3255208333334 15.3385416666667  8.4375 14.0156250000001  C 6.5234375 14.0885416666667  5.05533854166661 14.84375  4.033203125 16.28125  C 3.01106770833331 17.71875  2.5 19.6822916666667  2.5 22.171875  C 2.5 23.234375  2.90690104166669 24.1380208333333  3.720703125 24.8828125  C 4.53450520833331 25.6276041666667  5.51432291666669 26  6.66015625 26  Z " fill-rule="nonzero" fill="#000000" stroke="none" transform="matrix(1 0 0 1 1300 776 )" />
  </g>
</svg>