<?xml version="1.0" encoding="utf-8"?>
<svg version="1.1" xmlns:xlink="http://www.w3.org/1999/xlink" width="20px" height="20px" xmlns="http://www.w3.org/2000/svg">
  <g transform="matrix(1 0 0 1 -860 -606 )">
    <path d="M 3.0859375 16.6947115384615  C 3.25086805555556 16.5424679487179  3.33333333333333 16.3621794871795  3.33333333333333 16.1538461538462  C 3.33333333333333 15.9455128205128  3.25086805555556 15.7652243589744  3.0859375 15.6129807692308  C 2.92100694444444 15.4607371794872  2.72569444444444 15.3846153846154  2.5 15.3846153846154  C 2.27430555555556 15.3846153846154  2.07899305555556 15.4607371794872  1.9140625 15.6129807692308  C 1.74913194444444 15.7652243589744  1.66666666666667 15.9455128205128  1.66666666666667 16.1538461538462  C 1.66666666666667 16.3621794871795  1.74913194444444 16.5424679487179  1.9140625 16.6947115384615  C 2.07899305555556 16.8469551282051  2.27430555555556 16.9230769230769  2.5 16.9230769230769  C 2.72569444444444 16.9230769230769  2.92100694444444 16.8469551282051  3.0859375 16.6947115384615  Z M 18.0533854166667 10.2043269230769  C 18.2400173611111 9.83573717948718  18.3333333333333 9.51121794871795  18.3333333333333 9.23076923076923  C 18.3333333333333 8.82211538461538  18.1640625 8.46354166666666  17.8255208333333 8.15504807692308  C 17.4869791666667 7.84655448717949  17.1006944444444 7.69230769230769  16.6666666666667 7.69230769230769  L 12.0833333333333 7.69230769230769  C 12.0833333333333 7.2275641025641  12.2916666666667 6.58854166666667  12.7083333333333 5.77524038461539  C 13.125 4.9619391025641  13.3333333333333 4.31891025641026  13.3333333333333 3.84615384615385  C 13.3333333333333 3.06089743589743  13.1944444444444 2.47996794871795  12.9166666666667 2.10336538461539  C 12.6388888888889 1.72676282051282  12.0833333333333 1.53846153846154  11.25 1.53846153846154  C 11.0243055555556 1.74679487179487  10.859375 2.08733974358974  10.7552083333333 2.56009615384615  C 10.6510416666667 3.03285256410256  10.5186631944444 3.53565705128205  10.3580729166667 4.06850961538462  C 10.1974826388889 4.60136217948718  9.93923611111111 5.0400641025641  9.58333333333333 5.38461538461539  C 9.39236111111111 5.56891025641026  9.05815972222222 5.93349358974359  8.58072916666667 6.47836538461539  C 8.54600694444444 6.51842948717949  8.44618055555556 6.63862179487179  8.28125 6.83894230769231  C 8.11631944444444 7.03926282051282  7.97960069444445 7.20352564102564  7.87109375 7.33173076923077  C 7.76258680555556 7.4599358974359  7.61284722222222 7.63020833333333  7.421875 7.84254807692308  C 7.23090277777778 8.05488782051282  7.05729166666667 8.23116987179487  6.90104166666667 8.37139423076923  C 6.74479166666667 8.51161858974359  6.57769097222222 8.65384615384615  6.39973958333333 8.79807692307692  C 6.22178819444445 8.94230769230769  6.04817708333333 9.05048076923077  5.87890625 9.12259615384615  C 5.70963541666667 9.19471153846154  5.55555555555556 9.23076923076923  5.41666666666667 9.23076923076923  L 5 9.23076923076923  L 5 16.9230769230769  L 5.41666666666667 16.9230769230769  C 5.52951388888889 16.9230769230769  5.66623263888889 16.9350961538462  5.82682291666667 16.9591346153846  C 5.98741319444445 16.9831730769231  6.13064236111111 17.0092147435897  6.25651041666667 17.0372596153846  C 6.38237847222222 17.0653044871795  6.54730902777778 17.109375  6.75130208333333 17.1694711538462  C 6.95529513888889 17.2295673076923  7.10720486111111 17.275641025641  7.20703125 17.3076923076923  C 7.30685763888889 17.3397435897436  7.4609375 17.3898237179487  7.66927083333333 17.4579326923077  C 7.87760416666667 17.5260416666667  8.00347222222222 17.568108974359  8.046875 17.5841346153846  C 9.87847222222222 18.1690705128205  11.3628472222222 18.4615384615385  12.5 18.4615384615385  L 14.0755208333333 18.4615384615385  C 15.7421875 18.4615384615385  16.5755208333333 17.7924679487179  16.5755208333333 16.4543269230769  C 16.5755208333333 16.2459935897436  16.5538194444444 16.0216346153846  16.5104166666667 15.78125  C 16.7708333333333 15.6530448717949  16.9769965277778 15.4427083333333  17.12890625 15.1502403846154  C 17.2808159722222 14.8577724358974  17.3567708333333 14.5633012820513  17.3567708333333 14.2668269230769  C 17.3567708333333 13.9703525641026  17.2786458333333 13.6939102564103  17.1223958333333 13.4375  C 17.5824652777778 13.036858974359  17.8125 12.5600961538462  17.8125 12.0072115384615  C 17.8125 11.806891025641  17.7690972222222 11.5845352564103  17.6822916666667 11.3401442307692  C 17.5954861111111 11.0957532051282  17.4869791666667 10.9054487179487  17.3567708333333 10.7692307692308  C 17.6345486111111 10.7612179487179  17.8667534722222 10.5729166666667  18.0533854166667 10.2043269230769  Z M 19.0104166666667 7.06730769230769  C 19.6701388888889 7.67628205128205  20 8.39342948717949  20 9.21875  C 20 9.93189102564102  19.7873263888889 10.5849358974359  19.3619791666667 11.1778846153846  C 19.4401041666667 11.4423076923077  19.4791666666667 11.71875  19.4791666666667 12.0072115384615  C 19.4791666666667 12.6241987179487  19.3142361111111 13.2011217948718  18.984375 13.7379807692308  C 19.0104166666667 13.90625  19.0234375 14.0785256410256  19.0234375 14.2548076923077  C 19.0234375 15.0641025641026  18.7630208333333 15.7772435897436  18.2421875 16.3942307692308  C 18.2508680555556 17.5080128205128  17.8819444444444 18.3874198717949  17.1354166666667 19.0324519230769  C 16.3888888888889 19.677483974359  15.4036458333333 20  14.1796875 20  L 13.7109375 20  L 12.5 20  C 11.6666666666667 20  10.8441840277778 19.9098557692308  10.0325520833333 19.7295673076923  C 9.22092013888889 19.5492788461538  8.28125 19.286858974359  7.21354166666667 18.9423076923077  C 6.20659722222222 18.6217948717949  5.60763888888889 18.4615384615385  5.41666666666667 18.4615384615385  L 1.66666666666667 18.4615384615385  C 1.20659722222222 18.4615384615385  0.813802083333333 18.3112980769231  0.48828125 18.0108173076923  C 0.162760416666667 17.7103365384615  0 17.3477564102564  0 16.9230769230769  L 0 9.23076923076923  C 0 8.80608974358974  0.162760416666667 8.44350961538462  0.48828125 8.14302884615385  C 0.813802083333333 7.84254807692308  1.20659722222222 7.69230769230769  1.66666666666667 7.69230769230769  L 5.234375 7.69230769230769  C 5.546875 7.5  6.14149305555556 6.87900641025641  7.01822916666667 5.82932692307692  C 7.52170138888889 5.22836538461539  7.98611111111111 4.71554487179487  8.41145833333333 4.29086538461539  C 8.61979166666667 4.09054487179487  8.77387152777778 3.74799679487179  8.87369791666667 3.26322115384615  C 8.97352430555556 2.77844551282051  9.10590277777778 2.27163461538461  9.27083333333333 1.74278846153846  C 9.43576388888889 1.21394230769231  9.70486111111111 0.78125  10.078125 0.444711538461537  C 10.4166666666667 0.148237179487181  10.8072916666667 0  11.25 0  C 11.9791666666667 0  12.6345486111111 0.130208333333335  13.2161458333333 0.390625  C 13.7977430555556 0.651041666666665  14.2404513888889 1.05769230769231  14.5442708333333 1.61057692307692  C 14.8480902777778 2.16346153846154  15 2.90865384615385  15 3.84615384615385  C 15 4.59134615384615  14.7916666666667 5.36057692307692  14.375 6.15384615384615  L 16.6666666666667 6.15384615384615  C 17.5694444444444 6.15384615384615  18.3506944444444 6.45833333333333  19.0104166666667 7.06730769230769  Z " fill-rule="nonzero" fill="#000000" stroke="none" transform="matrix(1 0 0 1 860 606 )" />
  </g>
</svg>