<?xml version="1.0" encoding="utf-8"?>
<svg version="1.1" xmlns:xlink="http://www.w3.org/1999/xlink" width="36px" height="22px" xmlns="http://www.w3.org/2000/svg">
  <g transform="matrix(1 0 0 1 -298 -822 )">
    <path d="M 30.8252788104089 12.5689789555729  C 30.8401486988848 12.5918420368927  30.8475836431227 12.6261366588724  30.8475836431227 12.6718628215121  L 30.8475836431227 20.9025720966485  C 30.8475836431227 21.1997921538062  30.7063197026023 21.4570018186542  30.4237918215614 21.6742010911925  C 30.1412639405204 21.8914003637308  29.8066914498141 22  29.4200743494424 22  L 20.8550185873606 22  L 20.8550185873606 15.4154325798909  L 15.1449814126394 15.4154325798909  L 15.1449814126394 22  L 6.57992565055762 22  C 6.19330855018586 22  5.85873605947957 21.8914003637308  5.57620817843864 21.6742010911925  C 5.29368029739775 21.4570018186542  5.15241635687732 21.1997921538062  5.15241635687732 20.9025720966485  L 5.15241635687732 12.6718628215121  C 5.15241635687732 12.6604312808522  5.15613382899627 12.6432839698623  5.16356877323418 12.6204208885425  C 5.1710037174721 12.5975578072226  5.17472118959108 12.5804104962328  5.17472118959108 12.5689789555729  L 18 4.44115354637565  L 30.8252788104089 12.5689789555729  Z M 35.9776951672862 11.0857365549493  C 35.9925650557621 11.2400623538581  35.9405204460966 11.3743829566121  35.8215613382899 11.4886983632112  L 34.4386617100372 12.7575993764614  C 34.3197026022305 12.8604832424006  34.1635687732342 12.9233567160302  33.9702602230483 12.94621979735  L 33.9033457249071 12.94621979735  C 33.7100371747212 12.94621979735  33.5539033457249 12.9062094050403  33.4349442379182 12.8261886204209  L 18 2.93219017926734  L 2.56505576208178 12.8261886204209  C 2.38661710037176 12.9176409457002  2.2081784386617 12.9576513380099  2.02973977695168 12.94621979735  C 1.83643122676578 12.9233567160302  1.68029739776951 12.8604832424006  1.56133828996284 12.7575993764614  L 0.178438661710061 11.4886983632112  C 0.0594795539033536 11.3743829566121  0.0074349442379192 11.2400623538581  0.0223048327137576 11.0857365549493  C 0.037174721189596 10.9314107560405  0.118959107806707 10.8085216939465  0.267657992565053 10.7170693686672  L 16.3048327137546 0.445830085736583  C 16.7806691449814 0.148610028578841  17.3457249070632 0  18 0  C 18.6542750929368 0  19.2193308550186 0.148610028578841  19.6951672862454 0.445830085736583  L 25.1375464684015 3.94388152766949  L 25.1375464684015 0.600155884645325  C 25.1375464684015 0.440114315406563  25.2044609665428 0.308651597817602  25.3382899628253 0.205767731878441  C 25.4721189591078 0.102883865939161  25.6431226765799 0.0514419329695805  25.8513011152416 0.0514419329695805  L 30.1338289962825 0.0514419329695805  C 30.3420074349442 0.0514419329695805  30.5130111524163 0.102883865939161  30.6468401486989 0.205767731878441  C 30.7806691449814 0.308651597817602  30.8475836431227 0.440114315406563  30.8475836431227 0.600155884645325  L 30.8475836431227 7.59625876851132  L 35.7323420074349 10.7170693686672  C 35.8810408921933 10.8085216939465  35.9628252788104 10.9314107560405  35.9776951672862 11.0857365549493  Z " fill-rule="nonzero" fill="#000000" stroke="none" transform="matrix(1 0 0 1 298 822 )" />
  </g>
</svg>