<?xml version="1.0" encoding="utf-8"?>
<svg version="1.1" xmlns:xlink="http://www.w3.org/1999/xlink" width="32px" height="31px" xmlns="http://www.w3.org/2000/svg">
  <g transform="matrix(1 0 0 1 -91 -344 )">
    <path d="M 91 344  L 123 344  L 123 375  L 91 375  L 91 344  " fill-rule="nonzero" fill="#cccccc" stroke="none" />
    <path d="M 93 346  L 121 346  L 121 373  L 93 373  L 93 346  " fill-rule="nonzero" fill="#ffffff" stroke="none" />
    <path d="M 109.965 353.3  C 108.663 353.3  107.64 352.277  107.64 350.975  C 107.64 349.673  108.663 348.65  109.965 348.65  C 111.267 348.65  112.29 349.673  112.29 350.975  C 112.29 352.277  111.267 353.3  109.965 353.3  " fill-rule="nonzero" fill="#cccccc" stroke="none" />
    <path d="M 94 372  L 94 358.25  L 100.5 352  L 109.6 357.46875  L 114.8 355.75  L 120 357.46875  L 120 372  L 94 372  " fill-rule="nonzero" fill="#169bd5" stroke="none" />
  </g>
</svg>