<?xml version="1.0" encoding="utf-8"?>
<svg version="1.1" xmlns:xlink="http://www.w3.org/1999/xlink" width="31px" height="26px" xmlns="http://www.w3.org/2000/svg">
  <g transform="matrix(1 0 0 1 -92 -419 )">
    <path d="M 8.40087890625 7.240407673861  C 8.65315755208326 6.98581135091922  8.779296875 6.64548361310949  8.779296875 6.21942446043158  C 8.779296875 5.7933653077539  8.65315755208326 5.45043964828142  8.40087890625 5.19064748201436  C 8.14860026041674 4.93085531574729  7.81559244791674 4.80095923261388  7.40185546875 4.80095923261388  C 6.96793619791674 4.80095923261388  6.58447265625 4.93345323741005  6.25146484375 5.19844124700239  C 5.91845703125 5.46342925659474  5.751953125 5.80375699440447  5.751953125 6.21942446043158  C 5.751953125 6.62470023980813  5.91845703125 6.95983213429258  6.25146484375 7.22482014388493  C 6.58447265625 7.48980815347727  6.96793619791674 7.62230215827344  7.40185546875 7.62230215827344  C 7.81559244791674 7.62230215827344  8.14860026041674 7.49500399680255  8.40087890625 7.240407673861  Z M 19.639892578125 14.9172661870502  C 19.897216796875 14.6886490807356  20.02587890625 14.423661071143  20.02587890625 14.1223021582734  C 20.02587890625 13.8313349320545  19.897216796875 13.5715427657874  19.639892578125 13.3429256594725  C 19.382568359375 13.1143085531576  19.0520833333333 13  18.6484375 13  C 18.3759765625 13  18.126220703125 13.1169064748201  17.899169921875 13.3507194244603  C 17.672119140625 13.5845323741007  17.55859375 13.841726618705  17.55859375 14.1223021582734  C 17.55859375 14.4132693844924  17.672119140625 14.675659472422  17.899169921875 14.9094724220624  C 18.126220703125 15.1432853717026  18.3759765625 15.2601918465227  18.6484375 15.2601918465227  C 19.0520833333333 15.2601918465227  19.382568359375 15.1458832933652  19.639892578125 14.9172661870502  Z M 16.082763671875 7.240407673861  C 16.3299967447917 6.98581135091922  16.45361328125 6.64548361310949  16.45361328125 6.21942446043158  C 16.45361328125 5.7933653077539  16.3299967447917 5.45043964828142  16.082763671875 5.19064748201436  C 15.8355305989583 4.93085531574729  15.5050455729167 4.80095923261388  15.09130859375 4.80095923261388  C 14.6573893229167 4.80095923261388  14.27392578125 4.93345323741005  13.94091796875 5.19844124700239  C 13.60791015625 5.46342925659474  13.44140625 5.80375699440447  13.44140625 6.21942446043158  C 13.44140625 6.62470023980813  13.60791015625 6.95983213429258  13.94091796875 7.22482014388493  C 14.27392578125 7.48980815347727  14.6573893229167 7.62230215827344  15.09130859375 7.62230215827344  C 15.5050455729167 7.62230215827344  15.8355305989583 7.49500399680255  16.082763671875 7.240407673861  Z M 25.671875 14.9172661870502  C 25.9342447916667 14.6886490807356  26.0654296875 14.423661071143  26.0654296875 14.1223021582734  C 26.0654296875 13.8313349320545  25.9342447916667 13.5715427657874  25.671875 13.3429256594725  C 25.4095052083333 13.1143085531576  25.08154296875 13  24.68798828125 13  C 24.41552734375 13  24.165771484375 13.1169064748201  23.938720703125 13.3507194244603  C 23.711669921875 13.5845323741007  23.59814453125 13.841726618705  23.59814453125 14.1223021582734  C 23.59814453125 14.4132693844924  23.711669921875 14.675659472422  23.938720703125 14.9094724220624  C 24.165771484375 15.1432853717026  24.41552734375 15.2601918465227  24.68798828125 15.2601918465227  C 25.08154296875 15.2601918465227  25.4095052083333 15.1458832933652  25.671875 14.9172661870502  Z M 19.972900390625 3.87350119904067  C 21.0375162760417 5.08413269384482  21.7262369791667 6.43764988009593  22.0390625 7.93405275779378  C 21.7262369791667 7.89248601119107  21.373046875 7.87170263788971  20.9794921875 7.87170263788971  C 19.2740885416667 7.87170263788971  17.7049153645833 8.27178257394075  16.27197265625 9.07194244604307  C 14.8390299479167 9.87210231814561  13.7113444010417 10.9554356514789  12.888916015625 12.3219424460431  C 12.0664876302083 13.6884492406075  11.6552734375 15.1822541966428  11.6552734375 16.8033573141486  C 11.6552734375 17.6139088729017  11.7713216145833 18.4036770583534  12.00341796875 19.1726618705036  C 11.6502278645833 19.2038369304555  11.30712890625 19.2194244604316  10.97412109375 19.2194244604316  C 10.7117513020833 19.2194244604316  10.45947265625 19.2116306954438  10.21728515625 19.1960431654677  C 9.97509765625 19.1804556354916  9.69759114583326 19.146682653877  9.384765625 19.0947242206234  C 9.07194010416674 19.0427657873699  8.847412109375 19.0063948840927  8.711181640625 18.9856115107914  C 8.574951171875 18.96482813749  8.29996744791674 18.9102717825738  7.88623046875 18.8219424460431  C 7.47249348958326 18.7336131095124  7.22021484375 18.6790567545963  7.12939453125 18.658273381295  L 3.2998046875 20.6378896882493  L 4.3896484375 17.2398081534773  C 1.46321614583326 15.1302957633893  0 12.5843325339729  0 9.60191846522798  C 0 7.84572342126307  0.491943359375 6.22981614708237  1.475830078125 4.75419664268588  C 2.459716796875 3.27857713828939  3.791748046875 2.11730615507599  5.471923828125 1.27038369304546  C 7.152099609375 0.423461231015153  8.98616536458326 0  10.97412109375 0  C 12.7501627604167 0  14.4278157552083 0.342925659472485  16.007080078125 1.02877697841723  C 17.5863444010417 1.7146282973622  18.9082845052083 2.66286970423653  19.972900390625 3.87350119904067  Z M 29.705810546875 12.5713429256593  C 30.568603515625 13.833932853717  31 15.2030375699442  31 16.6786570743407  C 31 17.8944844124701  30.6543782552083 19.0557553956835  29.963134765625 20.1624700239809  C 29.2718912760417 21.2691846522782  28.3359375 22.2745803357313  27.1552734375 23.1786570743407  L 27.98779296875 26  L 24.9755859375 24.3009592326139  C 23.4619140625 24.6854516386891  22.3619791666667 24.8776978417266  21.67578125 24.8776978417266  C 19.9703776041667 24.8776978417266  18.4012044270833 24.5113908872902  16.96826171875 23.7787769784172  C 15.5353190104167 23.0461630695445  14.4076334635417 22.0511590727417  13.585205078125 20.7937649880096  C 12.7627766927083 19.5363709032772  12.3515625 18.1646682653877  12.3515625 16.6786570743407  C 12.3515625 15.1926458832934  12.7627766927083 13.8209432454037  13.585205078125 12.5635491606715  C 14.4076334635417 11.3061550759394  15.5353190104167 10.3111510791366  16.96826171875 9.57853717026387  C 18.4012044270833 8.84592326139091  19.9703776041667 8.47961630695454  21.67578125 8.47961630695454  C 23.3004557291667 8.47961630695454  24.8292643229167 8.84592326139091  26.26220703125 9.57853717026387  C 27.6951497395833 10.3111510791366  28.843017578125 11.3087529976019  29.705810546875 12.5713429256593  Z " fill-rule="nonzero" fill="#000000" stroke="none" transform="matrix(1 0 0 1 92 419 )" />
  </g>
</svg>