<?xml version="1.0" encoding="utf-8"?>
<svg version="1.1" xmlns:xlink="http://www.w3.org/1999/xlink" width="32px" height="26px" xmlns="http://www.w3.org/2000/svg">
  <g transform="matrix(1 0 0 1 -271 -419 )">
    <path d="M 28.2233502538071 4.10312500000009  C 29.4822335025381 3.96770833333335  30.741116751269 3.62916666666661  32 3.08750000000009  C 31.0930626057529 4.41458333333344  29.9966159052453 5.54531249999991  28.7106598984772 6.47968749999995  C 28.7241962774958 6.66927083333326  28.730964467005 6.95364583333344  28.730964467005 7.33281250000005  C 28.730964467005 9.09322916666656  28.4737732656514 10.8502604166667  27.9593908629441 12.6039062499999  C 27.4450084602369 14.3575520833333  26.663282571912 16.0401041666667  25.6142131979695 17.6515625  C 24.565143824027 19.2630208333333  23.31641285956 20.68828125  21.8680203045685 21.9273437500001  C 20.419627749577 23.1664062499999  18.673434856176 24.1549479166667  16.6294416243654 24.8929687499999  C 14.585448392555 25.6309895833333  12.3993231810491 26  10.0710659898477 26  C 6.40270727580378 26  3.04568527918786 25.0182291666667  0 23.0546875  C 0.473773265651403 23.1088541666666  1.00169204737733 23.1359375  1.58375634517768 23.1359375  C 4.62944162436543 23.1359375  7.34348561759725 22.2015624999999  9.72588832487304 20.3328125  C 8.30456852791883 20.3057291666667  7.0321489001692 19.8690104166667  5.90862944162438 19.02265625  C 4.78510998307956 18.1763020833334  4.01353637901866 17.0963541666667  3.59390862944167 15.7828125000001  C 4.04060913705587 15.8505208333333  4.45346869712353 15.8843750000001  4.83248730964465 15.8843750000001  C 5.41455160744499 15.8843750000001  5.989847715736 15.8098958333333  6.5583756345178 15.6609375  C 5.0423011844332 15.3494791666667  3.7868020304569 14.59453125  2.79187817258878 13.3960937500001  C 1.79695431472078 12.1976562499999  1.29949238578683 10.8062500000001  1.29949238578683 9.22187499999995  L 1.29949238578683 9.140625  C 2.21996615905243 9.65520833333335  3.20812182741122 9.93281249999995  4.26395939086296 9.97343750000005  C 3.37055837563457 9.37760416666674  2.65989847715741 8.59895833333326  2.13197969543148 7.63750000000005  C 1.60406091370555 6.67604166666661  1.34010152284259 5.63333333333344  1.34010152284259 4.50937500000009  C 1.34010152284259 3.31770833333326  1.63790186125209 2.21406249999995  2.23350253807109 1.19843749999995  C 3.87140439932318 3.21614583333326  5.86463620981385 4.83098958333335  8.2131979695431 6.04296875  C 10.5617597292725 7.25494791666665  13.0761421319797 7.92864583333335  15.756345177665 8.06406250000009  C 15.6480541455161 7.54947916666674  15.5939086294417 7.04843750000009  15.5939086294417 6.56093749999991  C 15.5939086294417 4.74635416666661  16.2335025380711 3.19921875  17.5126903553299 1.91953125000009  C 18.7918781725888 0.639843749999955  20.3384094754654 0  22.1522842639594 0  C 24.0473773265652 0  25.6446700507614 0.690624999999955  26.9441624365483 2.07187500000009  C 28.419627749577 1.78749999999991  29.8071065989848 1.25937500000009  31.1065989847716 0.487499999999955  C 30.6057529610829 2.0447916666667  29.6446700507614 3.25  28.2233502538071 4.10312500000009  Z " fill-rule="nonzero" fill="#000000" stroke="none" transform="matrix(1 0 0 1 271 419 )" />
  </g>
</svg>