<?xml version="1.0" encoding="utf-8"?>
<svg version="1.1" xmlns:xlink="http://www.w3.org/1999/xlink" width="32px" height="26px" xmlns="http://www.w3.org/2000/svg">
  <g transform="matrix(1 0 0 1 -175 -419 )">
    <path d="M 10.9313998884551 20.7982093663911  C 11.4132738427217 20.6370523415978  11.7850901654583 20.3535353535353  12.0468488566648 19.9476584022038  C 12.2967094255438 19.5417814508724  12.3621490983454 19.1299357208447  12.2431678750697 18.7121212121212  C 12.124186651794 18.2943067033975  11.8564788994237 17.995867768595  11.4400446179587 17.8168044077136  C 11.0355084588214 17.6496786042242  10.601226993865 17.643709825528  10.1372002230898 17.7988980716254  C 9.67317345231459 17.9540863177226  9.31622978248743 18.2286501377409  9.06636921360848 18.6225895316804  C 8.80461052240196 19.0284664830119  8.72727272727275 19.4373278236915  8.83435582822085 19.8491735537191  C 8.94143892916895 20.2610192837465  9.19724855921174 20.5624426078971  9.60178471834911 20.7534435261707  C 10.0063208774865 20.9444444444443  10.4495259341885 20.9593663911846  10.9313998884551 20.7982093663911  Z M 13.3318460680424 18.1122589531681  C 13.510317902956 18.0466023875115  13.6411972485593 17.9361799816345  13.7244841048522 17.7809917355371  C 13.8196690834727 17.6258034894399  13.8404907975461 17.4676308539945  13.7869492470719 17.3064738292012  C 13.7334076965979 17.1453168044077  13.6292991262317 17.0348943985307  13.4746235359733 16.9752066115702  C 13.3080498233873 16.9155188246098  13.1385015802193 16.9185032139578  12.9659788064696 16.9841597796144  C 12.7934560327199 17.049816345271  12.6655512176984 17.1602387511477  12.5822643614055 17.3154269972451  C 12.3799962818367 17.6854912764004  12.4573340769659 17.9540863177226  12.8142777467931 18.121212121212  C 12.9808514593791 18.1808999081727  13.1533742331288 18.1779155188246  13.3318460680424 18.1122589531681  Z M 16.7852760736197 16.2858126721762  C 17.3504368841792 17.3661616161617  17.3653095370887 18.5032139577595  16.829894032348 19.6969696969697  C 16.2944785276073 20.9146005509642  15.3545268637293 21.8099173553719  14.0100390407139 22.3829201101928  C 12.6655512176984 22.9559228650137  11.3329615170106 23.0275482093664  10.0122699386503 22.5977961432507  C 8.73917084960033 22.1919191919192  7.86168432794204 21.4368686868686  7.37981037367535 20.3326446280992  C 6.89793641940878 19.2284205693297  6.93660531697344 18.10927456382  7.49581706636923 16.9752066115702  C 8.05502881576501 15.8650137741047  8.95631158207846 15.0353535353536  10.1996653653096 14.4862258953167  C 11.4430191485407 13.93709825528  12.6952965235174 13.823691460055  13.9564974902398 14.1460055096418  C 15.2771890686001 14.4921946740128  16.2201152630601 15.205463728191  16.7852760736197 16.2858126721762  Z M 20.0334634690463 21.5681818181818  C 21.7765383900353 20.1535812672175  22.5647889942369 18.574839302112  22.3982152816509 16.8319559228651  C 22.2911321807028 15.6859504132231  21.7616657371259 14.6712580348944  20.8098159509202 13.7878787878788  C 19.8579661647146 12.9044995408631  18.6175869120655 12.2539026629936  17.0886781929727 11.8360881542699  C 15.5597694738799 11.4182736455464  13.9267521844209 11.2929292929293  12.1896263245957 11.4600550964187  C 9.53634504554748 11.7346189164371  7.33816694552888 12.5792011019284  5.59509202453989 13.9938016528927  C 3.85201710355079 15.4084022038567  3.0637664993493 16.9871441689625  3.2303402119353 18.7300275482094  C 3.3374233128834 19.8760330578511  3.8668897564603 20.89072543618  4.81873954266587 21.7741046831957  C 5.77058932887155 22.6574839302111  7.01096858152073 23.3080808080808  8.53987730061351 23.7258953168043  C 10.0687860197063 24.143709825528  11.7018033091653 24.2690541781451  13.4389291689905 24.1019283746557  C 16.0922104480387 23.8273645546374  18.2903885480573 22.982782369146  20.0334634690463 21.5681818181818  Z M 27.2883435582822 14.8174931129477  C 27.6928797174196 15.4442148760331  27.8951477969883 16.139577594123  27.8951477969883 16.9035812672175  C 27.8951477969883 17.7153351698805  27.6750325339283 18.5479797979799  27.2348020078082 19.4015151515152  C 26.7945714816881 20.2550505050506  26.1461238148355 21.0727731864094  25.2894590072505 21.8546831955923  C 24.4327941996654 22.636593204775  23.4303773935676 23.337924701561  22.282208588957 23.9586776859503  C 21.1340397843466 24.5794306703397  19.7895519613311 25.074839302112  18.2487451199107 25.4449035812672  C 16.7079382784905 25.8149678604225  15.0987172336866 26  13.4210819854992 26  C 11.7434467373117 26  10.1074549172708 25.8000459136822  8.51310652537643 25.4001377410468  C 6.91875813348202 25.0002295684114  5.48800892359179 24.4451331496787  4.22085889570553 23.7348484848485  C 2.95370886781927 23.0245638200183  1.93344487823015 22.1232782369145  1.16006692693804 21.0309917355371  C 0.386688975646052 19.9387052341597  0 18.7479338842975  0 17.4586776859503  C 0 16.0858585858587  0.413459750883021 14.623507805326  1.24037925264918 13.0716253443527  C 2.06729875441533 11.5197428833792  3.24223833426288 9.97979797979792  4.76519799219182 8.45179063360888  C 6.77598066555117 6.43434343434342  8.80758505298388 5.02571166207531  10.8600111544897 4.22589531680433  C 12.9124372559955 3.42607897153357  14.3788808328686 3.46786042240592  15.2593418851087 4.35123966942137  C 16.0327198364008 5.11524334251612  16.1517010596765 6.36271808999072  15.6162855549359 8.09366391184562  C 15.5686930656256 8.26078971533525  15.5627440044618 8.38016528925618  15.5984383714446 8.45179063360888  C 15.6341327384272 8.52341597796135  15.6936233500651 8.5651974288337  15.776910206358 8.57713498622593  C 15.8601970626511 8.58907254361793  15.9464584495259 8.58608815426987  16.0356943669827 8.56818181818176  C 16.1249302844395 8.55027548209364  16.2052426101505 8.52938475665746  16.276631344116 8.50550964187323  L 16.3837144450641 8.469696969697  C 18.0375534485964 7.76538108356294  19.5010224948875 7.4132231404958  20.7741215839376 7.4132231404958  C 22.0472206729876 7.4132231404958  22.9574270310467 7.77731864095495  23.5047406581149 8.50550964187323  C 24.0401561628555 9.25757575757575  24.0401561628555 10.3200183654728  23.5047406581149 11.6928374655647  C 23.4809444134597 11.8480257116621  23.4541736382228 11.967401285583  23.4244283324038 12.0509641873277  C 23.3946830265849 12.1345270890724  23.4214538018219 12.2091368227732  23.5047406581149 12.2747933884298  C 23.5880275144079 12.3404499540864  23.6594162483733 12.3852157943068  23.7189068600112 12.409090909091  C 23.778397471649 12.4329660238752  23.8795315114334 12.4687786960515  24.0223089793642 12.5165289256199  C 24.7005019520357 12.7314049586778  25.3132552519056 13.011937557392  25.8605688789738 13.358126721763  C 26.407882506042 13.7043158861341  26.8838073991449 14.1907713498622  27.2883435582822 14.8174931129477  Z M 24.7718906860011 4.55716253443529  C 25.4738799033278 4.77800734618927  26.07473508087 5.16896235078048  26.574456218628 5.73002754820936  C 27.0741773563859 6.29109274563825  27.3984011898123 6.93870523415967  27.5471277189068 7.67286501377407  C 27.6958542480015 8.40702479338847  27.6571853504369 9.10835629017447  27.4311210262131 9.77685950413229  C 27.3359360475924 10.0514233241506  27.1604387432608 10.2543617998163  26.9046291132181 10.3856749311294  C 26.6488194831753 10.5169880624426  26.3840862613869 10.5408631772268  26.1104294478528 10.4573002754821  C 25.8367726343187 10.3617998163452  25.6345045547499 10.1857208448118  25.5036252091467 9.92906336088163  C 25.3727458635434 9.67240587695142  25.3489496188882 9.40679522497703  25.4322364751813 9.1322314049587  C 25.6701989217327 8.38016528925618  25.5274214538018 7.71763085399448  25.0039040713888 7.14462809917359  C 24.4803866889756 6.5716253443527  23.8438371444506 6.36271808999072  23.0942554378137 6.51790633608812  C 22.808700501952 6.57759412304858  22.5409927495817 6.52984389348035  22.2911321807028 6.37465564738295  C 22.0412716118237 6.21946740128556  21.8925450827292 5.99862258953158  21.8449525934188 5.71212121212125  C 21.7854619817811 5.42561983471069  21.8330544710913 5.16000918273653  21.9877300613497 4.91528925619832  C 22.1424056516081 4.67056932966034  22.3625209146682 4.518365472911  22.6480758505298 4.45867768595031  C 23.361963190184 4.30348943985314  24.0699014686745 4.33631772268132  24.7718906860011 4.55716253443529  Z M 26.0925822643615 0.402892561983435  C 27.5322550659974 0.850550964187278  28.7696597880647 1.65335169880632  29.8047964305633 2.81129476584033  C 30.839933073062 3.95730027548211  31.5092024539878 5.28535353535358  31.8126045733408 6.79545454545451  C 32.1160066926938 8.30555555555566  32.0356943669827 9.74701561065194  31.5716675962075 11.1198347107438  C 31.4645844952594 11.4421487603306  31.2623164156906 11.6808999081727  30.9648633575014 11.8360881542699  C 30.6674102993121 11.9912764003673  30.3580591187953 12.0151515151515  30.036809815951 11.9077134986226  C 29.7155605131065 11.8002754820936  29.4775980665552 11.597337006428  29.3229224762968 11.2988980716254  C 29.1682468860383 11.0004591368229  29.1385015802193 10.6900826446281  29.23368655884 10.3677685950413  C 29.5668339840119 9.38888888888891  29.6263245956497 8.36225895316807  29.4121583937535 7.28787878787875  C 29.1979921918572 6.21349862258944  28.7220672987544 5.27043158861352  27.984383714445 4.45867768595031  C 27.2467001301358 3.63498622589532  26.3662390778956 3.06496786042248  25.3430005577245 2.74862258953158  C 24.3197620375535 2.4322773186409  23.2905744562187 2.38154269972461  22.2554378137201 2.59641873278247  C 21.922290388548 2.66804407713494  21.6129392080312 2.61134067952253  21.3273842721695 2.42630853994501  C 21.0418293363078 2.24127640036727  20.8633575013943 1.981634527089  20.7919687674289 1.6473829201102  C 20.7205800334634 1.31313131313141  20.7770961145194 1.00573921028467  20.9615170105967 0.725206611570229  C 21.1459379066741 0.444674012855785  21.4047220672987 0.268595041322214  21.7378694924707 0.196969696969745  C 23.2013385387619 -0.113406795225046  24.6529094627255 -0.044765840220407  26.0925822643615 0.402892561983435  Z " fill-rule="nonzero" fill="#000000" stroke="none" transform="matrix(1 0 0 1 175 419 )" />
  </g>
</svg>