<?xml version="1.0" encoding="utf-8"?>
<svg version="1.1" xmlns:xlink="http://www.w3.org/1999/xlink" width="25px" height="26px" xmlns="http://www.w3.org/2000/svg">
  <g transform="matrix(1 0 0 1 -133 -419 )">
    <path d="M 0 18.4553571428571  C 0 15.7953869047619  1.1958997722096 13.5416666666667  3.58769931662869 11.6941964285713  C 3.51176917236148 11.5104166666667  3.47380410022777 11.2589285714287  3.47380410022777 10.9397321428571  C 3.47380410022777 10.7462797619048  3.5260060744115 10.5093005952381  3.63041002277907 10.2287946428571  C 3.73481397114654 9.94828869047615  3.84870918754746 9.73065476190482  3.97209567198183 9.57589285714289  C 3.96260440394838 9.36309523809518  3.99819665907364 9.10677083333326  4.07887243735763 8.80691964285711  C 4.15954821564162 8.50706845238096  4.26632498101742 8.29910714285711  4.39920273348514 8.18303571428578  C 4.39920273348514 6.83854166666674  4.83817388003035 5.44326636904771  5.71611617312078 3.99720982142867  C 6.5940584662111 2.55115327380963  7.62623386484438 1.53794642857133  8.81264236902052 0.957589285714221  C 10.1319286256644 0.319196428571331  11.6695140470767 0  13.4253986332574 0  C 14.6877372817008 0  15.9500759301443 0.265997023809632  17.2124145785876 0.797991071428669  C 17.6774867122248 1.00111607142867  18.1045937737282 1.23325892857133  18.4937357630979 1.49441964285711  C 18.8828777524677 1.75558035714289  19.2198177676538 2.02641369047615  19.5045558086561 2.30691964285711  C 19.7892938496583 2.58742559523807  20.0503037205771 2.91629464285711  20.2875854214124 3.29352678571422  C 20.5248671222475 3.67075892857133  20.7241837509491 4.02864583333326  20.8855353075171 4.3671875  C 21.0468868640851 4.70572916666674  21.2011199696279 5.11439732142867  21.3482346241458 5.59319196428578  C 21.4953492786636 6.07198660714289  21.6163629460896 6.50483630952385  21.7112756264237 6.89174107142867  C 21.8061883067578 7.27864583333326  21.9105922551253 7.75260416666674  22.0244874715262 8.31361607142867  L 22.0387243735763 8.38616071428578  C 22.5607441154139 9.18898809523807  22.8217539863326 9.91443452380963  22.8217539863326 10.5625  C 22.8217539863326 10.6979166666667  22.7790432801822 10.891369047619  22.6936218678816 11.1428571428571  C 22.6082004555809 11.3943452380952  22.5654897494305 11.578125  22.5654897494305 11.6941964285713  C 22.5654897494305 11.703869047619  22.5726082004555 11.7207961309523  22.5868451025057 11.7449776785713  C 22.6010820045558 11.7691592261904  22.6176917236143 11.7933407738096  22.6366742596811 11.8175223214287  C 22.6556567957479 11.8417038690477  22.6651480637813 11.858630952381  22.6651480637813 11.8683035714287  C 23.3959757023538 12.9709821428571  23.9678246013667 14.0083705357142  24.38069476082 14.98046875  C 24.7935649202733 15.9525669642858  25 16.9609375  25 18.0055803571429  C 25 18.4215029761904  24.9074601366742 18.9051339285713  24.7223804100228 19.4564732142858  C 24.5373006833713 20.0078125  24.2739179954442 20.2834821428571  23.9322323462414 20.2834821428571  C 23.8468109339408 20.2834821428571  23.754271070615 20.2472098214287  23.6546127562642 20.1746651785713  C 23.5549544419134 20.1021205357142  23.4647873955961 20.0174851190477  23.3841116173121 19.9207589285713  C 23.3034358390281 19.8240327380952  23.2132687927107 19.6982886904761  23.1136104783599 19.5435267857142  C 23.0139521640091 19.3887648809523  22.9380220197419 19.2606026785713  22.885820045558 19.1590401785713  C 22.8336180713743 19.0574776785713  22.7695520121488 18.9317336309523  22.6936218678816 18.7818080357142  C 22.6176917236143 18.6318824404761  22.574981017464 18.5472470238096  22.5654897494305 18.5279017857142  C 22.5559984813971 18.5182291666667  22.5417615793471 18.5133928571429  22.5227790432801 18.5133928571429  L 22.4515945330296 18.5714285714287  C 21.8916097190585 20.0610119047619  21.2651860288535 21.1395089285713  20.5723234624146 21.8069196428571  C 20.7621488230827 22.0003720238096  21.0540053151101 22.1865699404761  21.4478929384966 22.3655133928571  C 21.8417805618831 22.5444568452381  22.1692293090357 22.7451636904761  22.4302391799545 22.9676339285713  C 22.6912490508732 23.1901041666667  22.8597190584662 23.5044642857142  22.9356492027334 23.9107142857142  C 22.9166666666666 23.9494047619048  22.8976841305998 24.0267857142858  22.878701594533 24.1428571428571  C 22.8597190584662 24.2589285714287  22.8264996203493 24.3459821428571  22.7790432801822 24.4040178571429  C 22.171602126044 25.3422619047619  20.7384206529993 25.8113839285713  18.4794988610479 25.8113839285713  C 17.9764616552771 25.8113839285713  17.4520690964313 25.7678571428571  16.9063211845103 25.6808035714287  C 16.3605732725892 25.59375  15.8955011389521 25.4970238095239  15.5111047835991 25.390625  C 15.126708428246 25.2842261904761  14.6307896735004 25.1391369047619  14.0233485193622 24.9553571428571  C 13.8809794988611 24.906994047619  13.7718299164768 24.8731398809523  13.6958997722096 24.8537946428571  C 13.5630220197419 24.8151041666667  13.3447228549734 24.7933407738096  13.0410022779043 24.7885044642858  C 12.7372817008352 24.7836681547619  12.5474563401671 24.7764136904761  12.4715261958997 24.7667410714287  C 12.08238420653 25.2020089285713  11.4773158694002 25.516369047619  10.6563211845103 25.7098214285713  C 9.83532649962035 25.9032738095239  9.03568716780558 26  8.25740318906605 26  C 7.92520880789675 26  7.59776006074412 25.9927455357142  7.27505694760816 25.9782366071429  C 6.95235383447232 25.9637276785713  6.51100987091877 25.9202008928571  5.95102505694763 25.84765625  C 5.39104024297649 25.7751116071429  4.91173120728934 25.6759672619048  4.51309794988606 25.5502232142858  C 4.1144646924829 25.4244791666667  3.76091495823846 25.2310267857142  3.45244874715263 24.9698660714287  C 3.1439825360668 24.7087053571429  2.98974943052394 24.399181547619  2.98974943052394 24.0412946428571  C 2.98974943052394 23.6543898809523  3.037205770691 23.3666294642858  3.13211845102501 23.1780133928571  C 3.22703113135913 22.9893973214287  3.42160212604404 22.7548363095239  3.71583143507974 22.4743303571429  C 3.8202353834472 22.4549851190477  4.01243356112377 22.3921130952381  4.29242596810934 22.2857142857142  C 4.57241837509491 22.1793154761904  4.80732725892176 22.1212797619048  4.99715261959 22.1116071428571  C 5.0351176917236 22.1116071428571  5.10155656795746 22.1019345238096  5.19646924829158 22.0825892857142  C 5.21545178435838 22.063244047619  5.22494305239184 22.0438988095239  5.22494305239184 22.0245535714287  L 5.19646924829158 21.9810267857142  C 4.7408883826879 21.8746279761904  4.22835990888382 21.3643973214287  3.65888382687922 20.4503348214287  C 3.08940774487473 19.5362723214287  2.7429764616553 18.7793898809523  2.61958997722093 18.1796875  L 2.54840546697039 18.1361607142858  C 2.51044039483679 18.1361607142858  2.45349278663628 18.2328869047619  2.37756264236907 18.4263392857142  C 2.20671981776763 18.8229166666667  1.9480827638572 19.1832217261904  1.60165148063777 19.5072544642858  C 1.25522019741834 19.831287202381  0.887433561123771 20.0126488095239  0.498291571753953 20.0513392857142  L 0.484054669703823 20.0513392857142  C 0.446089597570221 20.0513392857142  0.417615793469963 20.0295758928571  0.398633257403162 19.9860491071429  C 0.379650721336361 19.9425223214287  0.355922551252888 19.9159226190477  0.32744874715263 19.90625  C 0.109149582384248 19.3839285714287  0 18.9002976190477  0 18.4553571428571  Z " fill-rule="nonzero" fill="#000000" stroke="none" transform="matrix(1 0 0 1 133 419 )" />
  </g>
</svg>