<?xml version="1.0" encoding="utf-8"?>
<svg version="1.1" xmlns:xlink="http://www.w3.org/1999/xlink" width="26px" height="26px" xmlns="http://www.w3.org/2000/svg">
  <g transform="matrix(1 0 0 1 -226 -419 )">
    <path d="M 4.875 0  L 21.125 0  C 22.4678819444445 0  23.6161024305555 0.476779513888914  24.5696614583334 1.43033854166674  C 25.5232204861111 2.38389756944434  26 3.53211805555566  26 4.875  L 26 21.125  C 26 22.4678819444443  25.5232204861111 23.6161024305557  24.5696614583334 24.5696614583333  C 23.6161024305555 25.5232204861111  22.4678819444445 26  21.125 26  L 18 26  L 18 15.9283854166667  L 21.3111979166666 15.9283854166667  L 21.8190104166666 12.0013020833333  L 17.9427083333334 12.0013020833333  L 17.9427083333334 9.49609375  C 17.9427083333334 8.86414930555566  18.0753038194445 8.39019097222217  18.3404947916666 8.07421875  C 18.6056857638889 7.75824652777783  19.1219618055555 7.60026041666674  19.8893229166666 7.60026041666674  L 21.9544270833334 7.58333333333326  L 21.9544270833334 4.07942708333326  C 21.2434895833334 3.97786458333326  20.2391493055555 3.92708333333326  18.94140625 3.92708333333326  C 17.4066840277778 3.92708333333326  16.1794704861111 4.37847222222217  15.259765625 5.28125  C 14.3400607638889 6.18402777777783  13.8802083333334 7.45920138888892  13.8802083333334 9.10677083333326  L 13.8802083333334 12.0013020833333  L 10.4947916666666 12.0013020833333  L 10.4947916666666 15.9283854166667  L 13.8802083333334 15.9283854166667  L 13.8802083333334 26  L 4.875 26  C 3.53211805555554 26  2.38389756944446 25.5232204861111  1.43033854166663 24.5696614583333  C 0.476779513888914 23.6161024305557  0 22.4678819444443  0 21.125  L 0 4.875  C 0 3.53211805555566  0.476779513888914 2.38389756944434  1.43033854166663 1.43033854166674  C 2.38389756944446 0.476779513888914  3.53211805555554 0  4.875 0  Z " fill-rule="nonzero" fill="#000000" stroke="none" transform="matrix(1 0 0 1 226 419 )" />
  </g>
</svg>