<?xml version="1.0" encoding="utf-8"?>
<svg version="1.1" xmlns:xlink="http://www.w3.org/1999/xlink" width="28px" height="28px" xmlns="http://www.w3.org/2000/svg">
  <g transform="matrix(1 0 0 1 -197 -477 )">
    <path d="M 5.09090909090912 20.3636363636363  L 7.63636363636363 20.3636363636363  L 7.63636363636363 22.909090909091  L 5.09090909090912 22.909090909091  L 5.09090909090912 20.3636363636363  Z M 5.09090909090912 5.09090909090901  L 7.63636363636363 5.09090909090901  L 7.63636363636363 7.63636363636374  L 5.09090909090912 7.63636363636374  L 5.09090909090912 5.09090909090901  Z M 20.3636363636364 5.09090909090901  L 22.9090909090909 5.09090909090901  L 22.9090909090909 7.63636363636374  L 20.3636363636364 7.63636363636374  L 20.3636363636364 5.09090909090901  Z M 2.5454545454545 17.8181818181818  L 2.5454545454545 25.434659090909  L 10.1818181818181 25.434659090909  L 10.1818181818181 17.8181818181818  L 2.5454545454545 17.8181818181818  Z M 2.5454545454545 2.5454545454545  L 2.5454545454545 10.1818181818182  L 10.1818181818181 10.1818181818182  L 10.1818181818181 2.5454545454545  L 2.5454545454545 2.5454545454545  Z M 17.8181818181819 2.5454545454545  L 17.8181818181819 10.1818181818182  L 25.4545454545455 10.1818181818182  L 25.4545454545455 2.5454545454545  L 17.8181818181819 2.5454545454545  Z M 0 15  L 13 15  L 13 28  L 0 28  L 0 15  Z M 20.3636363636364 25.4545454545455  L 22.9090909090909 25.4545454545455  L 22.9090909090909 28  L 20.3636363636364 28  L 20.3636363636364 25.4545454545455  Z M 25.4545454545455 25.4545454545455  L 28 25.4545454545455  L 28 28  L 25.4545454545455 28  L 25.4545454545455 25.4545454545455  Z M 25.4545454545455 15.2727272727273  L 28 15.2727272727273  L 28 22.909090909091  L 20.3636363636364 22.909090909091  L 20.3636363636364 20.3636363636363  L 17.8181818181819 20.3636363636363  L 17.8181818181819 28  L 15 28  L 15 15.2727272727273  L 22.9090909090909 15.2727272727273  L 22.9090909090909 17.8181818181818  L 25.4545454545455 17.8181818181818  L 25.4545454545455 15.2727272727273  Z M 0 0  L 13 0  L 13 13  L 0 13  L 0 0  Z M 15 0  L 28 0  L 28 13  L 15 13  L 15 0  Z " fill-rule="nonzero" fill="#000000" stroke="none" transform="matrix(1 0 0 1 197 477 )" />
  </g>
</svg>