<?xml version="1.0" encoding="utf-8"?>
<svg version="1.1" xmlns:xlink="http://www.w3.org/1999/xlink" width="24px" height="28px" xmlns="http://www.w3.org/2000/svg">
  <g transform="matrix(1 0 0 1 -246 -477 )">
    <path d="M 18.0625 1.0625  L 22.9375 5.9375  C 23.2291666666666 6.22916666666674  23.4791666666666 6.625  23.6875 7.125  C 23.8958333333334 7.625  24 8.08333333333326  24 8.5  L 24 26.5  C 24 26.9166666666667  23.8541666666666 27.2708333333333  23.5625 27.5625  C 23.2708333333334 27.8541666666667  22.9166666666666 28  22.5 28  L 1.5 28  C 1.08333333333337 28  0.729166666666629 27.8541666666667  0.4375 27.5625  C 0.145833333333371 27.2708333333333  0 26.9166666666667  0 26.5  L 0 1.5  C 0 1.08333333333326  0.145833333333371 0.729166666666742  0.4375 0.4375  C 0.729166666666629 0.145833333333258  1.08333333333337 0  1.5 0  L 15.5 0  C 15.9166666666666 0  16.375 0.104166666666742  16.875 0.3125  C 17.375 0.520833333333258  17.7708333333334 0.770833333333258  18.0625 1.0625  Z M 16.640625 2.46875  C 16.515625 2.34375  16.3020833333334 2.22916666666674  16 2.125  L 16 8  L 21.875 8  C 21.7708333333334 7.69791666666674  21.65625 7.484375  21.53125 7.359375  L 16.640625 2.46875  Z M 2 26  L 22 26  L 22 10  L 15.5 10  C 15.0833333333334 10  14.7291666666666 9.85416666666674  14.4375 9.5625  C 14.1458333333334 9.27083333333326  14 8.91666666666674  14 8.5  L 14 2  L 2 2  L 2 26  Z M 6 12  L 12 12  C 12.5416666666666 12  13.0104166666666 12.1979166666667  13.40625 12.59375  C 13.8020833333334 12.9895833333333  14 13.4583333333333  14 14  L 14 20  C 14 20.5416666666667  13.8020833333334 21.0104166666667  13.40625 21.40625  C 13.0104166666666 21.8020833333333  12.5416666666666 22  12 22  L 6 22  C 5.45833333333337 22  4.98958333333337 21.8020833333333  4.59375 21.40625  C 4.19791666666663 21.0104166666667  4 20.5416666666667  4 20  L 4 14  C 4 13.4583333333333  4.19791666666663 12.9895833333333  4.59375 12.59375  C 4.98958333333337 12.1979166666667  5.45833333333337 12  6 12  Z M 19.5 12  C 19.5416666666666 12  19.6041666666666 12.0104166666667  19.6875 12.03125  C 19.8958333333334 12.1145833333333  20 12.2708333333333  20 12.5  L 20 21.5  C 20 21.7291666666667  19.8958333333334 21.8854166666667  19.6875 21.96875  C 19.6041666666666 21.9895833333333  19.5416666666666 22  19.5 22  C 19.3541666666666 22  19.234375 21.953125  19.140625 21.859375  L 15 17.703125  L 15 16.296875  L 19.140625 12.140625  C 19.234375 12.046875  19.3541666666666 12  19.5 12  Z " fill-rule="nonzero" fill="#000000" stroke="none" transform="matrix(1 0 0 1 246 477 )" />
  </g>
</svg>