<?xml version="1.0" encoding="utf-8"?>
<svg version="1.1" xmlns:xlink="http://www.w3.org/1999/xlink" width="28px" height="28px" xmlns="http://www.w3.org/2000/svg">
  <g transform="matrix(1 0 0 1 -95 -477 )">
    <path d="M 24.2254901960785 21.7377450980391  C 24.5457516339869 21.4174836601308  24.7058823529412 21.0343137254902  24.7058823529412 20.5882352941176  C 24.7058823529412 20.1307189542483  24.5457516339869 19.7418300653594  24.2254901960785 19.4215686274508  L 20.656862745098 15.8529411764707  C 20.3366013071895 15.5326797385621  19.9477124183006 15.3725490196077  19.4901960784314 15.3725490196077  C 19.0098039215686 15.3725490196077  18.5980392156863 15.5555555555554  18.2549019607843 15.9215686274508  C 18.2892156862746 15.955882352941  18.3978758169935 16.061683006536  18.5808823529412 16.2389705882351  C 18.7638888888889 16.4162581699347  18.8868464052288 16.5392156862745  18.9497549019608 16.607843137255  C 19.0126633986928 16.6764705882351  19.0984477124183 16.7851307189542  19.2071078431372 16.9338235294117  C 19.3157679738563 17.0825163398692  19.3901143790849 17.2283496732027  19.4301470588234 17.3713235294117  C 19.4701797385621 17.5142973856209  19.4901960784314 17.6715686274508  19.4901960784314 17.8431372549019  C 19.4901960784314 18.3006535947711  19.3300653594771 18.68954248366  19.0098039215686 19.0098039215686  C 18.6895424836601 19.330065359477  18.3006535947712 19.4901960784314  17.843137254902 19.4901960784314  C 17.6715686274509 19.4901960784314  17.5142973856209 19.4701797385621  17.3713235294117 19.4301470588234  C 17.2283496732026 19.3901143790852  17.0825163398694 19.3157679738563  16.9338235294117 19.2071078431372  C 16.7851307189543 19.0984477124184  16.6764705882354 19.0126633986929  16.6078431372549 18.9497549019609  C 16.5392156862746 18.8868464052289  16.4162581699346 18.7638888888889  16.2389705882354 18.580882352941  C 16.061683006536 18.3978758169935  15.9558823529412 18.2892156862745  15.9215686274509 18.2549019607843  C 15.5441176470588 18.6094771241828  15.3553921568628 19.0269607843136  15.3553921568628 19.5073529411766  C 15.3553921568628 19.9648692810458  15.5155228758169 20.3537581699347  15.8357843137254 20.6740196078431  L 19.3700980392157 24.2254901960785  C 19.6789215686275 24.5343137254902  20.0678104575163 24.688725490196  20.5367647058824 24.688725490196  C 20.9942810457516 24.688725490196  21.3831699346406 24.5400326797387  21.7034313725491 24.2426470588234  L 24.2254901960785 21.7377450980391  Z M 12.0784313725491 9.74509803921569  C 12.4558823529412 9.39052287581694  12.6446078431372 8.97303921568641  12.6446078431372 8.49264705882342  C 12.6446078431372 8.03513071895418  12.4844771241831 7.64624183006526  12.1642156862746 7.32598039215691  L 8.62990196078431 3.77450980392155  C 8.30964052287584 3.45424836601296  7.92075163398692 3.29411764705901  7.46323529411757 3.29411764705901  C 7.01715686274508 3.29411764705901  6.62826797385628 3.44852941176487  6.29656862745094 3.75735294117658  L 3.77450980392155 6.26225490196089  C 3.45424836601308 6.58251633986924  3.29411764705878 6.96568627450984  3.29411764705878 7.41176470588243  C 3.29411764705878 7.86928104575168  3.45424836601308 8.25816993464059  3.77450980392155 8.57843137254895  L 7.34313725490199 12.1470588235293  C 7.6519607843137 12.455882352941  8.04084967320262 12.6102941176471  8.50980392156862 12.6102941176471  C 8.99019607843138 12.6102941176471  9.4019607843137 12.4330065359477  9.74509803921569 12.0784313725489  C 9.71078431372541 12.044117647059  9.60212418300648 11.938316993464  9.41911764705878 11.7610294117649  C 9.23611111111109 11.5837418300653  9.11315359477123 11.4607843137255  9.05024509803923 11.392156862745  C 8.98733660130722 11.3235294117649  8.90155228758169 11.2148692810458  8.79289215686276 11.0661764705883  C 8.68423202614372 10.9174836601308  8.60988562091507 10.7716503267973  8.56985294117646 10.6286764705883  C 8.52982026143786 10.4857026143791  8.50980392156862 10.3284313725489  8.50980392156862 10.1568627450981  C 8.50980392156862 9.69934640522888  8.66993464052291 9.31045751633997  8.99019607843138 8.99019607843138  C 9.31045751633985 8.66993464052302  9.69934640522877 8.50980392156862  10.156862745098 8.50980392156862  C 10.3284313725491 8.50980392156862  10.4857026143791 8.52982026143786  10.6286764705883 8.56985294117658  C 10.7716503267974 8.60988562091484  10.9174836601306 8.68423202614372  11.0661764705883 8.79289215686276  C 11.2148692810457 8.90155228758158  11.3235294117646 8.98733660130711  11.3921568627451 9.05024509803911  C 11.4607843137254 9.11315359477112  11.5837418300654 9.23611111111109  11.7610294117646 9.41911764705901  C 11.938316993464 9.60212418300648  12.0441176470588 9.71078431372553  12.0784313725491 9.74509803921569  Z M 26.5588235294117 17.0882352941176  C 27.5196078431372 18.0490196078431  28 19.2156862745098  28 20.5882352941176  C 28 21.9607843137255  27.5138888888889 23.1217320261437  26.5416666666666 24.0710784313726  L 24.0196078431372 26.5759803921569  C 23.0702614379086 27.5253267973856  21.9093137254902 28  20.5367647058824 28  C 19.1527777777777 28  17.9861111111111 27.5138888888889  17.0367647058824 26.5416666666667  L 13.5024509803922 22.9901960784314  C 12.5531045751634 22.0408496732027  12.0784313725491 20.8799019607843  12.0784313725491 19.5073529411766  C 12.0784313725491 18.1004901960785  12.5816993464052 16.9052287581699  13.5882352941176 15.9215686274508  L 12.0784313725491 14.4117647058824  C 11.09477124183 15.4183006535948  9.90522875816998 15.9215686274508  8.50980392156862 15.9215686274508  C 7.13725490196077 15.9215686274508  5.97058823529414 15.4411764705883  5.00980392156862 14.4803921568628  L 1.44117647058829 10.9117647058824  C 0.480392156862763 9.95098039215691  0 8.78431372549016  0 7.41176470588243  C 0 6.03921568627447  0.486111111111086 4.87826797385628  1.45833333333337 3.9289215686274  L 3.98039215686276 1.42401960784309  C 4.92973856209142 0.47467320261444  6.09068627450984 0  7.46323529411757 0  C 8.84722222222229 0  10.0138888888889 0.486111111111086  10.9632352941176 1.45833333333326  L 14.4975490196078 5.00980392156862  C 15.4468954248366 5.95915032679727  15.9215686274509 7.12009803921569  15.9215686274509 8.49264705882342  C 15.9215686274509 9.89950980392155  15.4183006535948 11.0947712418301  14.4117647058824 12.0784313725489  L 15.9215686274509 13.5882352941176  C 16.9052287581699 12.5816993464052  18.0947712418301 12.0784313725489  19.4901960784314 12.0784313725489  C 20.8627450980392 12.0784313725489  22.0294117647059 12.5588235294117  22.9901960784314 13.5196078431372  L 26.5588235294117 17.0882352941176  Z " fill-rule="nonzero" fill="#000000" stroke="none" transform="matrix(1 0 0 1 95 477 )" />
  </g>
</svg>