<?xml version="1.0" encoding="utf-8"?>
<svg version="1.1" xmlns:xlink="http://www.w3.org/1999/xlink" width="32px" height="26px" xmlns="http://www.w3.org/2000/svg">
  <g transform="matrix(1 0 0 1 -143 -479 )">
    <path d="M 9.73333333333335 5.28125  C 10.3555555555555 5.91319444444434  10.6666666666666 6.68055555555566  10.6666666666666 7.58333333333348  C 10.6666666666666 8.48611111111131  10.3555555555555 9.25347222222217  9.73333333333335 9.88541666666652  C 9.11111111111109 10.5173611111113  8.3555555555555 10.8333333333335  7.46666666666658 10.8333333333335  C 6.57777777777767 10.8333333333335  5.82222222222219 10.5173611111113  5.20000000000005 9.88541666666652  C 4.57777777777767 9.25347222222217  4.26666666666665 8.48611111111131  4.26666666666665 7.58333333333348  C 4.26666666666665 6.68055555555566  4.57777777777767 5.91319444444434  5.20000000000005 5.28125  C 5.82222222222219 4.64930555555566  6.57777777777767 4.33333333333348  7.46666666666658 4.33333333333348  C 8.3555555555555 4.33333333333348  9.11111111111109 4.64930555555566  9.73333333333335 5.28125  Z M 20.8 7.04166666666652  L 27.7333333333333 14.0833333333335  L 27.7333333333333 21.6666666666665  L 4.26666666666665 21.6666666666665  L 4.26666666666665 18.4166666666665  L 9.60000000000002 13  L 12.2666666666667 15.7083333333335  L 20.8 7.04166666666652  Z M 29.7083333333334 2.32747395833348  C 29.6027777777779 2.22026909722217  29.4777777777779 2.16666666666652  29.3333333333334 2.16666666666652  L 2.66666666666663 2.16666666666652  C 2.52222222222213 2.16666666666652  2.39722222222213 2.22026909722217  2.29166666666663 2.32747395833348  C 2.18611111111113 2.43467881944434  2.13333333333333 2.56163194444434  2.13333333333333 2.70833333333348  L 2.13333333333333 23.2916666666665  C 2.13333333333333 23.4383680555557  2.18611111111113 23.5653211805557  2.29166666666663 23.6725260416665  C 2.39722222222213 23.7797309027778  2.52222222222213 23.8333333333335  2.66666666666663 23.8333333333335  L 29.3333333333334 23.8333333333335  C 29.4777777777779 23.8333333333335  29.6027777777779 23.7797309027778  29.7083333333334 23.6725260416665  C 29.8138888888889 23.5653211805557  29.8666666666667 23.4383680555557  29.8666666666667 23.2916666666665  L 29.8666666666667 2.70833333333348  C 29.8666666666667 2.56163194444434  29.8138888888889 2.43467881944434  29.7083333333334 2.32747395833348  Z M 31.2166666666666 0.795572916666515  C 31.7388888888889 1.32595486111131  32 1.96354166666652  32 2.70833333333348  L 32 23.2916666666665  C 32 24.0364583333335  31.7388888888889 24.6740451388887  31.2166666666666 25.2044270833335  C 30.6944444444445 25.7348090277778  30.0666666666666 26  29.3333333333334 26  L 2.66666666666663 26  C 1.93333333333339 26  1.30555555555554 25.7348090277778  0.783333333333417 25.2044270833335  C 0.261111111111063 24.6740451388887  0 24.0364583333335  0 23.2916666666665  L 0 2.70833333333348  C 0 1.96354166666652  0.261111111111063 1.32595486111131  0.783333333333417 0.795572916666515  C 1.30555555555554 0.265190972222172  1.93333333333339 0  2.66666666666663 0  L 29.3333333333334 0  C 30.0666666666666 0  30.6944444444445 0.265190972222172  31.2166666666666 0.795572916666515  Z " fill-rule="nonzero" fill="#000000" stroke="none" transform="matrix(1 0 0 1 143 479 )" />
  </g>
</svg>