<?xml version="1.0" encoding="utf-8"?>
<svg version="1.1" xmlns:xlink="http://www.w3.org/1999/xlink" width="137px" height="16px" xmlns="http://www.w3.org/2000/svg">
  <g transform="matrix(1 0 0 1 -426 -308 )">
    <path d="M 0 11.5555555555555  L 0 4.44444444444446  C 0 1.95555555555552  9.72258064516127 0  22.0967741935484 0  L 70.7096774193547 0  L 73.3928571428571 0  L 92.9642857142857 0  L 94.3777777777778 0  L 109.6 0  L 114.903225806452 0  C 127.277419354839 0  137 1.95555555555552  137 4.44444444444446  L 137 11.5555555555555  C 137 14.0444444444445  127.277419354839 16  114.903225806452 16  L 88.0714285714286 16  L 22.0967741935484 16  C 9.72258064516127 16  0 14.0444444444445  0 11.5555555555555  Z " fill-rule="nonzero" fill="#f2f2f2" stroke="none" transform="matrix(1 0 0 1 426 308 )" />
  </g>
</svg>