<?xml version="1.0" encoding="utf-8"?>
<svg version="1.1" xmlns:xlink="http://www.w3.org/1999/xlink" width="83px" height="15px" xmlns="http://www.w3.org/2000/svg">
  <g transform="matrix(1 0 0 1 -464 -332 )">
    <path d="M 0 10.8333333333333  L 0 4.16666666666668  C 0 1.8333333333333  5.89032258064515 0  13.3870967741935 0  L 42.8387096774193 0  L 44.4642857142857 0  L 56.3214285714286 0  L 57.1777777777778 0  L 66.4 0  L 69.6129032258065 0  C 77.1096774193549 0  83 1.8333333333333  83 4.16666666666668  L 83 10.8333333333333  C 83 13.1666666666667  77.1096774193549 15  69.6129032258065 15  L 53.3571428571429 15  L 13.3870967741935 15  C 5.89032258064515 15  0 13.1666666666667  0 10.8333333333333  Z " fill-rule="nonzero" fill="#f2f2f2" stroke="none" transform="matrix(1 0 0 1 464 332 )" />
  </g>
</svg>