<?xml version="1.0" encoding="utf-8"?>
<svg version="1.1" xmlns:xlink="http://www.w3.org/1999/xlink" width="49px" height="17px" xmlns="http://www.w3.org/2000/svg">
  <g transform="matrix(1 0 0 1 -357 -332 )">
    <path d="M 0 12.2777777777778  L 0 4.72222222222224  C 0 2.07777777777774  3.4774193548387 0  7.9032258064516 0  L 25.2903225806451 0  L 26.25 0  L 33.25 0  L 33.7555555555556 0  L 39.2 0  L 41.0967741935484 0  C 45.5225806451613 0  49 2.07777777777774  49 4.72222222222224  L 49 12.2777777777778  C 49 14.9222222222223  45.5225806451613 17  41.0967741935484 17  L 31.5 17  L 7.9032258064516 17  C 3.4774193548387 17  0 14.9222222222223  0 12.2777777777778  Z " fill-rule="nonzero" fill="#f2f2f2" stroke="none" transform="matrix(1 0 0 1 357 332 )" />
  </g>
</svg>