<?xml version="1.0" encoding="utf-8"?>
<svg version="1.1" xmlns:xlink="http://www.w3.org/1999/xlink" width="82px" height="88px" xmlns="http://www.w3.org/2000/svg">
  <g transform="matrix(1 0 0 1 -226 -305 )">
    <path d="M 68.3333333333333 25.1428571428572  C 68.3333333333333 29.9553571428572  66.9275173611111 34.4077380952381  64.1158854166667 38.5  C 65.7886284722223 38.9583333333333  67.3812934027777 39.5803571428572  68.8938802083333 40.3660714285714  C 70.4064670138889 41.1517857142857  71.990234375 42.3467261904761  73.6451822916667 43.9508928571428  C 75.3001302083333 45.5550595238095  76.71484375 47.4456845238095  77.8893229166667 49.6227678571428  C 79.0638020833334 51.7998511904761  80.0425347222223 54.6153273809524  80.8255208333334 58.0691964285714  C 81.6085069444445 61.5230654761905  82 65.3943452380952  82 69.6830357142857  C 82 74.7247023809524  80.2204861111111 79.0379464285714  76.6614583333333 82.6227678571428  C 73.1024305555555 86.2075892857143  68.8138020833333 88  63.7955729166667 88  L 18.2044270833333 88  C 13.1861979166667 88  8.89756944444443 86.2075892857143  5.33854166666666 82.6227678571428  C 1.77951388888889 79.0379464285714  0 74.7247023809524  0 69.6830357142857  C 0 65.3943452380952  0.391493055555571 61.5230654761905  1.17447916666666 58.0691964285714  C 1.95746527777777 54.6153273809524  2.93619791666666 51.7998511904761  4.11067708333334 49.6227678571428  C 5.28515625 47.4456845238095  6.69986979166666 45.5550595238095  8.35481770833334 43.9508928571428  C 10.009765625 42.3467261904761  11.5935329861111 41.1517857142857  13.1061197916667 40.3660714285714  C 14.6187065972222 39.5803571428572  16.2113715277777 38.9583333333333  17.8841145833333 38.5  C 15.0724826388889 34.4077380952381  13.6666666666667 29.9553571428572  13.6666666666667 25.1428571428572  C 13.6666666666667 21.7380952380952  14.3873697916667 18.4888392857143  15.8287760416667 15.3950892857143  C 17.2701822916667 12.3013392857143  19.21875 9.625  21.6744791666667 7.36607142857139  C 24.1302083333333 5.10714285714283  27.0397135416667 3.31473214285717  30.4029947916667 1.98883928571428  C 33.7662760416667 0.662946428571445  37.2986111111111 0  41 0  C 44.7013888888889 0  48.2337239583333 0.662946428571445  51.5970052083333 1.98883928571428  C 54.9602864583333 3.31473214285717  57.8697916666667 5.10714285714283  60.3255208333333 7.36607142857139  C 62.78125 9.625  64.7298177083333 12.3013392857143  66.1712239583333 15.3950892857143  C 67.6126302083333 18.4888392857143  68.3333333333333 21.7380952380952  68.3333333333333 25.1428571428572  Z M 55.494140625 11.8102678571428  C 51.490234375 8.12723214285717  46.6588541666667 6.28571428571428  41 6.28571428571428  C 35.3411458333333 6.28571428571428  30.509765625 8.12723214285717  26.505859375 11.8102678571428  C 22.501953125 15.4933035714286  20.5 19.9375  20.5 25.1428571428572  C 20.5 30.3482142857143  22.501953125 34.7924107142857  26.505859375 38.4754464285714  C 30.509765625 42.1584821428572  35.3411458333333 44  41 44  C 46.6588541666667 44  51.490234375 42.1584821428572  55.494140625 38.4754464285714  C 59.498046875 34.7924107142857  61.5 30.3482142857143  61.5 25.1428571428572  C 61.5 19.9375  59.498046875 15.4933035714286  55.494140625 11.8102678571428  Z M 18.2044270833333 81  L 63.7955729166667 81  C 66.9275173611111 81.7142857142857  69.6056857638889 80.5438988095239  71.830078125 78.203125  C 74.0544704861111 75.8623511904761  75.1666666666667 73.0223214285714  75.1666666666667 69.6830357142857  C 75.1666666666667 61.8586309523809  73.7697482638889 55.6875  70.9759114583333 51.1696428571428  C 68.1820746527777 46.6517857142857  64.1692708333333 44.2782738095239  58.9375 44.0491071428572  C 53.7769097222223 48.2068452380952  47.7977430555555 50.2857142857143  41 50.2857142857143  C 34.2022569444445 50.2857142857143  28.2230902777778 48.2068452380952  23.0625 44.0491071428572  C 17.8307291666667 44.2782738095239  13.8179253472222 46.6517857142857  11.0240885416667 51.1696428571428  C 8.23025173611111 55.6875  6.83333333333334 61.8586309523809  6.83333333333334 69.6830357142857  C 6.83333333333334 73.0223214285714  7.94552951388889 75.8623511904761  10.169921875 78.203125  C 12.3943142361111 80.5438988095239  15.0724826388889 81.7142857142857  18.2044270833333 81  Z " fill-rule="nonzero" fill="#000000" stroke="none" transform="matrix(1 0 0 1 226 305 )" />
  </g>
</svg>