<?xml version="1.0" encoding="utf-8"?>
<svg version="1.1" xmlns:xlink="http://www.w3.org/1999/xlink" width="19px" height="22px" xmlns="http://www.w3.org/2000/svg">
  <g transform="matrix(1 0 0 1 -811 -512 )">
    <path d="M 15.8333333333333 6.28571428571432  C 15.8333333333333 7.48883928571432  15.5075954861111 8.60193452380957  14.8561197916667 9.625  C 15.2437065972222 9.7395833333333  15.6127387152778 9.89508928571432  15.9632161458333 10.0915178571429  C 16.3136935763889 10.2879464285715  16.6806640625 10.586681547619  17.0641276041667 10.9877232142857  C 17.4475911458333 11.3887648809524  17.775390625 11.8614211309524  18.0475260416667 12.4056919642857  C 18.3196614583333 12.949962797619  18.5464409722222 13.6538318452381  18.7278645833333 14.5172991071429  C 18.9092881944444 15.3807663690476  19 16.3485863095238  19 17.4207589285715  C 19 18.6811755952381  18.5876736111111 19.7594866071429  17.7630208333333 20.6556919642857  C 16.9383680555556 21.5518973214285  15.9446614583333 22  14.7819010416667 22  L 4.21809895833333 22  C 3.05533854166667 22  2.06163194444443 21.5518973214285  1.23697916666667 20.6556919642857  C 0.412326388888906 19.7594866071429  0 18.6811755952381  0 17.4207589285715  C 0 16.3485863095238  0.0907118055555727 15.3807663690476  0.272135416666667 14.5172991071429  C 0.453559027777812 13.6538318452381  0.680338541666667 12.949962797619  0.952473958333333 12.4056919642857  C 1.224609375 11.8614211309524  1.55240885416667 11.3887648809524  1.93587239583333 10.9877232142857  C 2.3193359375 10.586681547619  2.68630642361109 10.2879464285715  3.03678385416667 10.0915178571429  C 3.38726128472219 9.89508928571432  3.75629340277781 9.7395833333333  4.14388020833333 9.625  C 3.49240451388891 8.60193452380957  3.16666666666667 7.48883928571432  3.16666666666667 6.28571428571432  C 3.16666666666667 5.43452380952384  3.33365885416667 4.62220982142854  3.66764322916667 3.84877232142854  C 4.00162760416667 3.07533482142854  4.453125 2.40625  5.02213541666667 1.84151785714287  C 5.59114583333333 1.27678571428568  6.26529947916667 0.828683035714325  7.04459635416667 0.49720982142854  C 7.82389322916667 0.165736607142865  8.64236111111109 0  9.5 0  C 10.3576388888889 0  11.1761067708333 0.165736607142865  11.9554036458333 0.49720982142854  C 12.7347005208333 0.828683035714325  13.4088541666667 1.27678571428568  13.9778645833333 1.84151785714287  C 14.546875 2.40625  14.9983723958333 3.07533482142854  15.3323567708333 3.84877232142854  C 15.6663411458333 4.62220982142854  15.8333333333333 5.43452380952384  15.8333333333333 6.28571428571432  Z M 12.8583984375 2.95256696428568  C 11.9306640625 2.03180803571432  10.8111979166667 1.57142857142854  9.5 1.57142857142854  C 8.18880208333333 1.57142857142854  7.0693359375 2.03180803571432  6.1416015625 2.95256696428568  C 5.2138671875 3.87332589285714  4.75 4.984375  4.75 6.28571428571432  C 4.75 7.58705357142854  5.2138671875 8.69810267857146  6.1416015625 9.61886160714286  C 7.0693359375 10.5396205357143  8.18880208333333 11  9.5 11  C 10.8111979166667 11  11.9306640625 10.5396205357143  12.8583984375 9.61886160714286  C 13.7861328125 8.69810267857146  14.25 7.58705357142854  14.25 6.28571428571432  C 14.25 4.984375  13.7861328125 3.87332589285714  12.8583984375 2.95256696428568  Z M 4.21809895833333 20  L 14.7819010416667 20  C 15.5075954861111 20.4285714285715  16.1281467013889 20.135974702381  16.6435546875 19.55078125  C 17.1589626736111 18.965587797619  17.4166666666667 18.2555803571429  17.4166666666667 17.4207589285715  C 17.4166666666667 15.4646577380952  17.0929904513889 13.921875  16.4456380208333 12.7924107142857  C 15.7982855902778 11.6629464285715  14.8684895833333 11.069568452381  13.65625 11.0122767857143  C 12.4605034722222 12.0517113095238  11.0750868055556 12.5714285714285  9.5 12.5714285714285  C 7.92491319444443 12.5714285714285  6.53949652777781 12.0517113095238  5.34375 11.0122767857143  C 4.13151041666667 11.069568452381  3.20171440972219 11.6629464285715  2.55436197916667 12.7924107142857  C 1.90700954861109 13.921875  1.58333333333333 15.4646577380952  1.58333333333333 17.4207589285715  C 1.58333333333333 18.2555803571429  1.84103732638891 18.965587797619  2.3564453125 19.55078125  C 2.87185329861109 20.135974702381  3.49240451388891 20.4285714285715  4.21809895833333 20  Z " fill-rule="nonzero" fill="#000000" stroke="none" transform="matrix(1 0 0 1 811 512 )" />
  </g>
</svg>