<?xml version="1.0" encoding="utf-8"?>
<svg version="1.1" xmlns:xlink="http://www.w3.org/1999/xlink" width="25px" height="19px" xmlns="http://www.w3.org/2000/svg">
  <g transform="matrix(1 0 0 1 -712 -514 )">
    <path d="M 21.4064436183395 10.855027279813  C 21.4167699297811 10.8747726682255  21.4219330855019 10.9043907508444  21.4219330855019 10.9438815276696  L 21.4219330855019 18.0522213561964  C 21.4219330855019 18.3089114055599  21.3238331268071 18.5310470252014  21.1276332094176 18.7186282151208  C 20.9314332920281 18.9062094050403  20.6990912845932 19  20.4306071871128 19  L 14.4826517967782 19  L 14.4826517967782 13.3133281371785  L 10.5173482032218 13.3133281371785  L 10.5173482032218 19  L 4.56939281288724 19  C 4.30090871540685 19  4.06856670797193 18.9062094050403  3.87236679058239 18.7186282151208  C 3.67616687319288 18.5310470252014  3.57806691449814 18.3089114055599  3.57806691449814 18.0522213561964  L 3.57806691449814 10.9438815276696  C 3.57806691449814 10.9340088334633  3.58064849235852 10.9191997921538  3.58581164807929 10.8994544037413  C 3.59097480380007 10.8797090153286  3.59355638166047 10.8648999740192  3.59355638166047 10.855027279813  L 12.5 3.83554169914261  L 21.4064436183395 10.855027279813  Z M 24.9845105328377 9.57404520654716  C 24.9948368442792 9.70732657833203  24.9586947542338 9.82333073525594  24.8760842627013 9.92205767731878  L 23.9157372986369 11.0179267342167  C 23.8331268071045 11.1067809820733  23.7247005369682 11.1610808002079  23.590458488228 11.1808261886204  L 23.543990086741 11.1808261886204  C 23.4097480380008 11.1808261886204  23.3013217678645 11.1462717588984  23.2187112763321 11.0771628994544  L 12.5 2.5323460639127  L 1.78128872366791 11.0771628994544  C 1.65737298636928 11.1561444531047  1.53345724907062 11.1906988828267  1.409541511772 11.1808261886204  C 1.27529946303179 11.1610808002079  1.16687319289549 11.1067809820733  1.08426270136309 11.0179267342167  L 0.123915737298653 9.92205767731878  C 0.0413052457662178 9.82333073525594  0.00516315572077722 9.70732657833203  0.0154894671623317 9.57404520654716  C 0.0258157786038861 9.44076383476228  0.0826104915324356 9.33463237204472  0.185873605947954 9.25565081839441  L 11.322800495663 0.385035074045231  C 11.6532424617926 0.128345024681726  12.0456422965717 0  12.5 0  C 12.9543577034283 0  13.3467575382074 0.128345024681726  13.677199504337 0.385035074045231  L 17.4566294919455 3.4060795011691  L 17.4566294919455 0.518316445830053  C 17.4566294919455 0.380098726942032  17.5030978934325 0.266562743569747  17.5960346964065 0.177708495713199  C 17.6889714993804 0.0888542478565482  17.8077240809583 0.0444271239282741  17.95229244114 0.0444271239282741  L 20.9262701363073 0.0444271239282741  C 21.0708384964891 0.0444271239282741  21.1895910780669 0.0888542478565482  21.2825278810409 0.177708495713199  C 21.3754646840149 0.266562743569747  21.4219330855019 0.380098726942032  21.4219330855019 0.518316445830053  L 21.4219330855019 6.56040530007795  L 24.814126394052 9.25565081839441  C 24.9173895084676 9.33463237204472  24.9741842213961 9.44076383476228  24.9845105328377 9.57404520654716  Z " fill-rule="nonzero" fill="#000000" stroke="none" transform="matrix(1 0 0 1 712 514 )" />
  </g>
</svg>