<?xml version="1.0" encoding="utf-8"?>
<svg version="1.1" xmlns:xlink="http://www.w3.org/1999/xlink" width="31px" height="34px" xmlns="http://www.w3.org/2000/svg">
  <g transform="matrix(1 0 0 1 -520 -241 )">
    <path d="M 19.01171875 20.8515625  C 20.6449318910256 19.060296474359  21.4615384615385 16.9046474358974  21.4615384615385 14.3846153846154  C 21.4615384615385 11.8645833333333  20.6449318910256 9.70893429487179  19.01171875 7.91766826923077  C 17.3785056089744 6.12640224358974  15.4130608974359 5.23076923076923  13.1153846153846 5.23076923076923  C 10.8177083333333 5.23076923076923  8.85226362179487 6.12640224358974  7.21905048076923 7.91766826923077  C 5.58583733974359 9.70893429487179  4.76923076923077 11.8645833333333  4.76923076923077 14.3846153846154  C 4.76923076923077 16.9046474358974  5.58583733974359 19.060296474359  7.21905048076923 20.8515625  C 8.85226362179487 22.642828525641  10.8177083333333 23.5384615384615  13.1153846153846 23.5384615384615  C 15.4130608974359 23.5384615384615  17.3785056089744 22.642828525641  19.01171875 20.8515625  Z M 30.3106971153846 29.5456730769231  C 30.7702323717949 30.0496794871795  31 30.6626602564103  31 31.3846153846154  C 31 32.0929487179487  30.7640224358974 32.7059294871795  30.2920673076923 33.2235576923077  C 29.8201121794872 33.7411858974359  29.261217948718 34  28.6153846153846 34  C 27.9447115384615 34  27.3858173076923 33.7411858974359  26.9387019230769 33.2235576923077  L 20.5486778846154 26.2355769230769  C 18.3255208333333 27.9246794871795  15.8477564102564 28.7692307692308  13.1153846153846 28.7692307692308  C 11.3393429487179 28.7692307692308  9.64092548076923 28.3912259615385  8.02013221153846 27.6352163461538  C 6.39933894230769 26.8792067307692  5.00210336538462 25.8575721153846  3.82842548076923 24.5703125  C 2.65474759615385 23.2830528846154  1.72325721153846 21.7506009615385  1.03395432692308 19.9729567307692  C 0.344651442307692 18.1953125  0 16.332532051282  0 14.3846153846154  C 0 12.4366987179487  0.344651442307692 10.5739182692308  1.03395432692308 8.79627403846154  C 1.72325721153846 7.01862980769231  2.65474759615385 5.48617788461539  3.82842548076923 4.19891826923077  C 5.00210336538462 2.91165865384616  6.39933894230769 1.89002403846154  8.02013221153846 1.13401442307692  C 9.64092548076923 0.378004807692307  11.3393429487179 0  13.1153846153846 0  C 14.8914262820513 0  16.58984375 0.378004807692307  18.2106370192308 1.13401442307692  C 19.8314302884615 1.89002403846154  21.2286658653846 2.91165865384616  22.40234375 4.19891826923077  C 23.5760216346154 5.48617788461539  24.5075120192308 7.01862980769231  25.1968149038462 8.79627403846154  C 25.8861177884615 10.5739182692308  26.2307692307692 12.4366987179487  26.2307692307692 14.3846153846154  C 26.2307692307692 17.3814102564103  25.4607371794872 20.0989583333333  23.9206730769231 22.5372596153846  L 30.3106971153846 29.5456730769231  Z " fill-rule="nonzero" fill="#000000" stroke="none" transform="matrix(1 0 0 1 520 241 )" />
  </g>
</svg>