<?xml version="1.0" encoding="utf-8"?>
<svg version="1.1" xmlns:xlink="http://www.w3.org/1999/xlink" width="97px" height="97px" xmlns="http://www.w3.org/2000/svg">
  <g transform="matrix(1 0 0 1 -183 -716 )">
    <path d="M 231.5 716  C 258.66 716  280 737.34  280 764.5  C 280 791.66  258.66 813  231.5 813  C 204.34 813  183 791.66  183 764.5  C 183 737.34  204.34 716  231.5 716  Z " fill-rule="nonzero" fill="#ffffff" stroke="none" />
    <path d="M 231.5 716.5  C 258.38 716.5  279.5 737.62  279.5 764.5  C 279.5 791.38  258.38 812.5  231.5 812.5  C 204.62 812.5  183.5 791.38  183.5 764.5  C 183.5 737.62  204.62 716.5  231.5 716.5  Z " stroke-width="1" stroke="#797979" fill="none" />
  </g>
</svg>