<?xml version="1.0" encoding="utf-8"?>
<svg version="1.1" xmlns:xlink="http://www.w3.org/1999/xlink" width="15px" height="13px" xmlns="http://www.w3.org/2000/svg">
  <g transform="matrix(1 0 0 1 -162 -231 )">
    <path d="M 11.7103794642857 7.65950520833337  C 11.7606026785714 7.71028645833337  11.7857142857143 7.77517361111109  11.7857142857143 7.85416666666663  L 11.7857142857143 10.5625  C 11.7857142857143 11.2339409722222  11.5499441964286 11.8080512152778  11.0784040178571 12.2848307291666  C 10.6068638392858 12.7616102430555  10.0390625 13  9.375 13  L 2.41071428571433 13  C 1.74665178571433 13  1.17885044642856 12.7616102430555  0.70731026785711 12.2848307291666  C 0.235770089285779 11.8080512152778  0 11.2339409722222  0 10.5625  L 0 3.52083333333337  C 0 2.84939236111109  0.235770089285779 2.27528211805554  0.70731026785711 1.79850260416663  C 1.17885044642856 1.32172309027777  1.74665178571433 1.08333333333337  2.41071428571433 1.08333333333337  L 8.30357142857144 1.08333333333337  C 8.38169642857133 1.08333333333337  8.44587053571433 1.10872395833337  8.49609375 1.15950520833337  C 8.54631696428567 1.21028645833337  8.57142857142856 1.27517361111109  8.57142857142856 1.35416666666663  L 8.57142857142856 1.89583333333337  C 8.57142857142856 1.97482638888886  8.54631696428567 2.03971354166663  8.49609375 2.09049479166663  C 8.44587053571433 2.14127604166663  8.38169642857133 2.16666666666663  8.30357142857144 2.16666666666663  L 2.41071428571433 2.16666666666663  C 2.04241071428567 2.16666666666663  1.72712053571422 2.29926215277777  1.46484375 2.564453125  C 1.20256696428578 2.82964409722223  1.07142857142856 3.1484375  1.07142857142856 3.52083333333337  L 1.07142857142856 10.5625  C 1.07142857142856 10.9348958333334  1.20256696428578 11.2536892361111  1.46484375 11.5188802083334  C 1.72712053571422 11.7840711805555  2.04241071428567 11.9166666666666  2.41071428571433 11.9166666666666  L 9.375 11.9166666666666  C 9.74330357142856 11.9166666666666  10.05859375 11.7840711805555  10.3208705357143 11.5188802083334  C 10.5831473214286 11.2536892361111  10.7142857142857 10.9348958333334  10.7142857142857 10.5625  L 10.7142857142857 7.85416666666663  C 10.7142857142857 7.77517361111109  10.7393973214286 7.71028645833337  10.7896205357143 7.65950520833337  C 10.83984375 7.60872395833337  10.9040178571429 7.58333333333337  10.9821428571429 7.58333333333337  L 11.5178571428571 7.58333333333337  C 11.5959821428571 7.58333333333337  11.66015625 7.60872395833337  11.7103794642857 7.65950520833337  Z M 14.8409598214286 0.160807291666629  C 14.9469866071429 0.268012152777771  15 0.394965277777771  15 0.541666666666629  L 15 4.875  C 15 5.02170138888886  14.9469866071429 5.14865451388886  14.8409598214286 5.255859375  C 14.7349330357142 5.36306423611114  14.609375 5.41666666666663  14.4642857142857 5.41666666666663  C 14.3191964285714 5.41666666666663  14.1936383928572 5.36306423611114  14.0876116071429 5.255859375  L 12.6143973214286 3.76627604166663  L 7.15680803571433 9.28450520833337  C 7.10100446428567 9.34092881944446  7.03683035714289 9.369140625  6.96428571428567 9.369140625  C 6.89174107142856 9.369140625  6.82756696428578 9.34092881944446  6.77176339285711 9.28450520833337  L 5.81752232142856 8.31966145833337  C 5.76171875 8.26323784722223  5.73381696428567 8.19835069444446  5.73381696428567 8.125  C 5.73381696428567 8.05164930555554  5.76171875 7.98676215277777  5.81752232142856 7.93033854166663  L 11.2751116071429 2.412109375  L 9.80189732142856 0.922526041666629  C 9.69587053571422 0.815321180555543  9.64285714285711 0.688368055555543  9.64285714285711 0.541666666666629  C 9.64285714285711 0.394965277777771  9.69587053571422 0.268012152777771  9.80189732142856 0.160807291666629  C 9.90792410714289 0.0536024305555429  10.0334821428572 0  10.1785714285714 0  L 14.4642857142857 0  C 14.609375 0  14.7349330357142 0.0536024305555429  14.8409598214286 0.160807291666629  Z " fill-rule="nonzero" fill="#000000" stroke="none" transform="matrix(1 0 0 1 162 231 )" />
  </g>
</svg>