<?xml version="1.0" encoding="utf-8"?>
<svg version="1.1" xmlns:xlink="http://www.w3.org/1999/xlink" width="23px" height="20px" xmlns="http://www.w3.org/2000/svg">
  <g transform="matrix(1 0 0 1 -176 -4 )">
    <path d="M 17.9559151785713 11.7838541666667  C 18.0329241071429 11.8619791666667  18.0714285714287 11.9618055555555  18.0714285714287 12.0833333333333  L 18.0714285714287 16.25  C 18.0714285714287 17.2829861111111  17.7099144345237 18.1662326388889  16.9868861607142 18.8997395833333  C 16.2638578869048 19.6332465277778  15.3932291666666 20  14.375 20  L 3.69642857142867 20  C 2.67819940476193 20  1.80757068452374 19.6332465277778  1.08454241071422 18.8997395833333  C 0.361514136904816 18.1662326388889  0 17.2829861111111  0 16.25  L 0 5.41666666666669  C 0 4.38368055555554  0.361514136904816 3.50043402777777  1.08454241071422 2.76692708333331  C 1.80757068452374 2.03342013888891  2.67819940476193 1.66666666666669  3.69642857142867 1.66666666666669  L 12.7321428571429 1.66666666666669  C 12.8519345238094 1.66666666666669  12.9503348214287 1.70572916666669  13.02734375 1.78385416666669  C 13.1043526785713 1.86197916666669  13.1428571428571 1.96180555555554  13.1428571428571 2.08333333333331  L 13.1428571428571 2.91666666666669  C 13.1428571428571 3.03819444444443  13.1043526785713 3.13802083333331  13.02734375 3.21614583333331  C 12.9503348214287 3.29427083333331  12.8519345238094 3.33333333333331  12.7321428571429 3.33333333333331  L 3.69642857142867 3.33333333333331  C 3.13169642857133 3.33333333333331  2.64825148809518 3.53732638888891  2.24609375 3.9453125  C 1.84393601190482 4.35329861111109  1.64285714285711 4.84375  2 5.41666666666669  L 2 16.25  C 1.64285714285711 16.8229166666667  1.84393601190482 17.3133680555555  2.24609375 17.7213541666667  C 2.64825148809518 18.1293402777778  3.13169642857133 18.3333333333333  3.69642857142867 18  L 14.375 18  C 14.9397321428571 18.3333333333333  15.4231770833334 18.1293402777778  15.8253348214287 17.7213541666667  C 16.2274925595237 17.3133680555555  16.4285714285713 16.8229166666667  16.4285714285713 16.25  L 16.4285714285713 12.0833333333333  C 16.4285714285713 11.9618055555555  16.4670758928571 11.8619791666667  16.5440848214287 11.7838541666667  C 16.62109375 11.7057291666667  16.719494047619 11.6666666666667  16.8392857142858 11.6666666666667  L 17.6607142857142 11.6666666666667  C 17.780505952381 11.6666666666667  17.87890625 11.7057291666667  17.9559151785713 11.7838541666667  Z M 22.7561383928571 0.247395833333314  C 22.918712797619 0.412326388888914  23 0.607638888888914  23 0.833333333333314  L 23 7.5  C 23 7.72569444444443  22.918712797619 7.92100694444443  22.7561383928571 8.0859375  C 22.5935639880952 8.25086805555557  22.4010416666666 8.33333333333331  22.1785714285713 8.33333333333331  C 21.9561011904763 8.33333333333331  21.7635788690477 8.25086805555557  21.6010044642858 8.0859375  L 19.3420758928571 5.79427083333331  L 10.9737723214287 14.2838541666667  C 10.8882068452381 14.3706597222222  10.789806547619 14.4140625  10.6785714285713 14.4140625  C 10.5673363095237 14.4140625  10.4689360119048 14.3706597222222  10.3833705357142 14.2838541666667  L 8.92020089285711 12.7994791666667  C 8.83463541666663 12.7126736111111  8.79185267857133 12.6128472222222  8.79185267857133 12.5  C 8.79185267857133 12.3871527777778  8.83463541666663 12.2873263888889  8.92020089285711 12.2005208333333  L 17.2885044642858 3.7109375  L 15.0295758928571 1.41927083333331  C 14.8670014880952 1.25434027777777  14.7857142857142 1.05902777777777  14.7857142857142 0.833333333333314  C 14.7857142857142 0.607638888888914  14.8670014880952 0.412326388888914  15.0295758928571 0.247395833333314  C 15.192150297619 0.0824652777777715  15.3846726190477 0  15.6071428571429 0  L 22.1785714285713 0  C 22.4010416666666 0  22.5935639880952 0.0824652777777715  22.7561383928571 0.247395833333314  Z " fill-rule="nonzero" fill="#000000" stroke="none" transform="matrix(1 0 0 1 176 4 )" />
  </g>
</svg>