<?xml version="1.0" encoding="utf-8"?>
<svg version="1.1" xmlns:xlink="http://www.w3.org/1999/xlink" width="18px" height="18px" xmlns="http://www.w3.org/2000/svg">
  <g transform="matrix(1 0 0 1 -9 -387 )">
    <path d="M 15 5.14285714285717  C 15 6.12723214285717  14.69140625 7.03794642857139  14.07421875 7.875  C 14.44140625 7.96875  14.791015625 8.09598214285717  15.123046875 8.25669642857144  C 15.455078125 8.41741071428572  15.802734375 8.66183035714289  16.166015625 8.98995535714283  C 16.529296875 9.31808035714283  16.83984375 9.70479910714283  17.09765625 10.1501116071428  C 17.35546875 10.5954241071429  17.5703125 11.1713169642857  17.7421875 11.8777901785714  C 17.9140624999999 12.5842633928572  18 13.3761160714286  18 14.2533482142857  C 18 15.2845982142857  17.609375 16.1668526785714  16.828125 16.9001116071428  C 16.0468750000001 17.6333705357143  15.10546875 18  14.00390625 18  L 3.99609374999994 18  C 2.89453125000006 18  1.95312499999994 17.6333705357143  1.17187500000006 16.9001116071428  C 0.390625 16.1668526785714  0 15.2845982142857  0 14.2533482142857  C 0 13.3761160714286  0.0859375000000568 12.5842633928572  0.257812500000057 11.8777901785714  C 0.4296875 11.1713169642857  0.644531250000057 10.5954241071429  0.902343749999943 10.1501116071428  C 1.16015625 9.70479910714283  1.47070312500006 9.31808035714283  1.83398437499994 8.98995535714283  C 2.197265625 8.66183035714289  2.544921875 8.41741071428572  2.87695312500006 8.25669642857144  C 3.208984375 8.09598214285717  3.55859375 7.96875  3.92578124999994 7.875  C 3.30859375 7.03794642857139  3.00000000000006 6.12723214285717  3.00000000000006 5.14285714285717  C 3.00000000000006 4.44642857142856  3.15820312500006 3.78180803571428  3.47460937500006 3.14899553571428  C 3.79101562500006 2.51618303571428  4.21875 1.96875  4.75781250000006 1.50669642857144  C 5.29687499999994 1.04464285714283  5.93554687500006 0.678013392857167  6.67382812500006 0.406808035714278  C 7.41210937500006 0.135602678571445  8.1875 0  9 0  C 9.8125 0  10.587890625 0.135602678571445  11.326171875 0.406808035714278  C 12.064453125 0.678013392857167  12.703125 1.04464285714283  13.2421875 1.50669642857144  C 13.78125 1.96875  14.208984375 2.51618303571428  14.525390625 3.14899553571428  C 14.841796875 3.78180803571428  15 4.44642857142856  15 5.14285714285717  Z M 12.181640625 2.41573660714283  C 11.302734375 1.66238839285717  10.2421875 1.28571428571428  9 1.28571428571428  C 7.75781249999994 1.28571428571428  6.697265625 1.66238839285717  5.818359375 2.41573660714283  C 4.939453125 3.16908482142856  4.5 4.078125  4.5 5.14285714285717  C 4.5 6.20758928571428  4.939453125 7.11662946428572  5.818359375 7.86997767857144  C 6.697265625 8.62332589285717  7.75781249999994 9  9 9  C 10.2421875 9  11.302734375 8.62332589285717  12.181640625 7.86997767857144  C 13.060546875 7.11662946428572  13.5 6.20758928571428  13.5 5.14285714285717  C 13.5 4.078125  13.060546875 3.16908482142856  12.181640625 2.41573660714283  Z M 3.99609374999994 16.7142857142857  L 14.00390625 16.7142857142857  C 14.69140625 16.7142857142857  15.279296875 16.4748883928571  15.767578125 15.99609375  C 16.255859375 15.5172991071429  16.5 14.9363839285714  16.5 14.2533482142857  C 16.5 12.6529017857143  16.193359375 11.390625  15.580078125 10.4665178571428  C 14.966796875 9.54241071428572  14.0859375 9.05691964285711  12.9375 9.01004464285717  C 11.8046875 9.86049107142856  10.4921875000001 10.2857142857143  9 10.2857142857143  C 7.50781249999994 10.2857142857143  6.1953125 9.86049107142856  5.0625 9.01004464285717  C 3.91406250000006 9.05691964285711  3.033203125 9.54241071428572  2.41992187500006 10.4665178571428  C 1.806640625 11.390625  1.49999999999994 12.6529017857143  1.49999999999994 14.2533482142857  C 1.49999999999994 14.9363839285714  1.744140625 15.5172991071429  2.232421875 15.99609375  C 2.720703125 16.4748883928571  3.30859375 16.7142857142857  3.99609374999994 16.7142857142857  Z " fill-rule="nonzero" fill="#000000" stroke="none" transform="matrix(1 0 0 1 9 387 )" />
  </g>
</svg>