<?xml version="1.0" encoding="utf-8"?>
<svg version="1.1" xmlns:xlink="http://www.w3.org/1999/xlink" width="10px" height="10px" xmlns="http://www.w3.org/2000/svg">
  <g transform="matrix(1 0 0 1 -62 -391 )">
    <path d="M 9.66346153846155 3.58538122243226  C 9.8878205128205 3.62318840579707  10 3.71980676328502  10 3.87523629489601  C 10 3.96765385423231  9.94791666666669 4.06847300987187  9.84375 4.17769376181474  L 7.66225961538458 6.40831758034028  L 8.17908653846155 9.55891619407686  C 8.18309294871796 9.5883217811384  8.18509615384619 9.63032976265487  8.18509615384619 9.68494013862636  C 8.18509615384619 9.773156899811  8.1640625 9.84772106700274  8.12199519230768 9.90863264020163  C 8.07992788461542 9.96954421340052  8.01883012820514 10  7.93870192307691 10  C 7.86258012820514 10  7.78245192307691 9.97479521109011  7.69831730769232 9.92438563327033  L 5 8.43730308758666  L 2.30168269230768 9.92438563327033  C 2.21354166666669 9.97479521109011  2.13341346153845 10  2.06129807692309 10  C 1.97716346153845 10  1.9140625 9.96954421340052  1.87199519230768 9.90863264020163  C 1.82992788461542 9.84772106700274  1.80889423076923 9.773156899811  1.80889423076923 9.68494013862636  C 1.80889423076923 9.65973534971641  1.81290064102564 9.61772736819995  1.82091346153845 9.55891619407686  L 2.33774038461542 6.40831758034028  L 0.150240384615415 4.17769376181474  C 0.0500801282051384 4.06427221172021  0 3.96345305608065  0 3.87523629489601  C 0 3.71980676328502  0.112179487179503 3.62318840579707  0.336538461538453 3.58538122243226  L 3.35336538461542 3.12539382482674  L 4.70552884615381 0.258349086326405  C 4.78165064102564 0.0861163621087826  4.87980769230768 0  5 0  C 5.12019230769232 0  5.21834935897436 0.0861163621087826  5.29447115384619 0.258349086326405  L 6.64663461538458 3.12539382482674  L 9.66346153846155 3.58538122243226  Z " fill-rule="nonzero" fill="#000000" stroke="none" transform="matrix(1 0 0 1 62 391 )" />
  </g>
</svg>