<?xml version="1.0" encoding="utf-8"?>
<svg version="1.1" xmlns:xlink="http://www.w3.org/1999/xlink" width="23px" height="32px" xmlns="http://www.w3.org/2000/svg">
  <g transform="matrix(1 0 0 1 -162 -435 )">
    <path d="M 22.7125 17.6545454545455  C 22.9041666666667 17.9454545454545  23 18.2666666666667  23 18.6181818181818  C 23 19.1030303030303  22.8322916666667 19.5151515151515  22.496875 19.8545454545455  C 22.1614583333333 20.1939393939394  21.7541666666667 20.3636363636364  21.275 20.3636363636364  C 20.6640625 20.3636363636364  20.1848958333333 20.1030303030303  19.8375 19.5818181818182  L 15.75859375 13.3818181818182  L 14.95 13.3818181818182  L 14.95 15.7818181818182  L 19.38828125 23.2545454545455  C 19.49609375 23.4363636363636  19.55 23.6363636363636  19.55 23.8545454545455  C 19.55 24.169696969697  19.4361979166667 24.4424242424242  19.20859375 24.6727272727273  C 18.9809895833333 24.9030303030303  18.7114583333333 25.0181818181818  18.4 25.0181818181818  L 14.95 25.0181818181818  L 14.95 29.9636363636364  C 14.95 30.5212121212121  14.75234375 31  14.35703125 31.4  C 13.96171875 31.8  13.4885416666667 32  12.9375 32  L 10.0625 32  C 9.51145833333333 32  9.03828125 31.8  8.64296875 31.4  C 8.24765625 31  8.05 30.5212121212121  8.05 29.9636363636364  L 8.05 25.0181818181818  L 4.6 25.0181818181818  C 4.28854166666667 25.0181818181818  4.01901041666667 24.9030303030303  3.79140625 24.6727272727273  C 3.56380208333333 24.4424242424242  3.45 24.169696969697  3.45 23.8545454545455  C 3.45 23.6363636363636  3.50390625 23.4363636363636  3.61171875 23.2545454545455  L 8.05 15.7818181818182  L 8.05 13.3818181818182  L 7.24140625 13.3818181818182  L 3.1625 19.5818181818182  C 2.81510416666667 20.1030303030303  2.3359375 20.3636363636364  1.725 20.3636363636364  C 1.24583333333333 20.3636363636364  0.838541666666667 20.1939393939394  0.503125 19.8545454545455  C 0.167708333333333 19.5151515151515  0 19.1030303030303  0 18.6181818181818  C 0 18.2666666666667  0.0958333333333333 17.9454545454545  0.2875 17.6545454545455  L 4.8875 10.6727272727273  C 5.76197916666667 9.37575757575757  6.81614583333333 8.72727272727273  8.05 8.72727272727273  L 14.95 8.72727272727273  C 16.1838541666667 8.72727272727273  17.2380208333333 9.37575757575757  18.1125 10.6727272727273  L 22.7125 17.6545454545455  Z M 14.348046875 1.19090909090909  C 15.1326822916667 1.98484848484848  15.525 2.94545454545455  15.525 4.07272727272727  C 15.525 5.2  15.1326822916667 6.16060606060606  14.348046875 6.95454545454545  C 13.5634114583333 7.74848484848485  12.6140625 8.14545454545454  11.5 8.14545454545454  C 10.3859375 8.14545454545454  9.43658854166667 7.74848484848485  8.651953125 6.95454545454545  C 7.86731770833333 6.16060606060606  7.475 5.2  7.475 4.07272727272727  C 7.475 2.94545454545455  7.86731770833333 1.98484848484848  8.651953125 1.19090909090909  C 9.43658854166667 0.396969696969695  10.3859375 0  11.5 0  C 12.6140625 0  13.5634114583333 0.396969696969695  14.348046875 1.19090909090909  Z " fill-rule="nonzero" fill="#333333" stroke="none" transform="matrix(1 0 0 1 162 435 )" />
  </g>
</svg>