<?xml version="1.0" encoding="utf-8"?>
<svg version="1.1" xmlns:xlink="http://www.w3.org/1999/xlink" width="17px" height="36px" xmlns="http://www.w3.org/2000/svg">
  <g transform="matrix(1 0 0 1 -300 -373 )">
    <path d="M 17 5.13647642679901  C 17 5.52357320099255  16.8960746460746 5.85856079404466  16.6882239382239 6.14143920595534  L 7.97490347490348 18  L 16.6882239382239 29.8585607940447  C 16.8960746460746 30.1414392059553  17 30.4764267990074  17 30.863523573201  C 17 31.2506203473945  16.8960746460746 31.5856079404467  16.6882239382239 31.8684863523573  L 13.9642857142857 35.575682382134  C 13.756435006435 35.8585607940447  13.510296010296 36  13.2258687258687 36  C 12.9414414414414 36  12.6953024453024 35.8585607940447  12.4874517374517 35.575682382134  L 0.311776061776062 19.0049627791563  C 0.103925353925354 18.7220843672457  0 18.3870967741935  0 18  C 0 17.6129032258065  0.103925353925354 17.2779156327543  0.311776061776062 16.9950372208437  L 12.4874517374517 0.424317617866004  C 12.6953024453024 0.141439205955333  12.9414414414414 0  13.2258687258687 0  C 13.510296010296 0  13.756435006435 0.141439205955333  13.9642857142857 0.424317617866004  L 16.6882239382239 4.13151364764268  C 16.8960746460746 4.41439205955335  17 4.74937965260545  17 5.13647642679901  Z " fill-rule="nonzero" fill="#333333" stroke="none" transform="matrix(1 0 0 1 300 373 )" />
  </g>
</svg>