<?xml version="1.0" encoding="utf-8"?>
<svg version="1.1" xmlns:xlink="http://www.w3.org/1999/xlink" width="17px" height="15px" xmlns="http://www.w3.org/2000/svg">
  <g transform="matrix(1 0 0 1 -379 -516 )">
    <path d="M 14.0022321428571 8.046875  C 15.1912202380952 6.82291666666667  15.7857142857143 5.6640625  15.7857142857143 4.5703125  C 15.7857142857143 4.04296875  15.7177269345238 3.57747395833333  15.5817522321429 3.173828125  C 15.4457775297619 2.77018229166666  15.2718563988095 2.44954427083333  15.0599888392857 2.2119140625  C 14.8481212797619 1.97428385416667  14.5904017857143 1.78059895833333  14.2868303571429 1.630859375  C 13.9832589285714 1.48111979166666  13.6860119047619 1.38020833333333  13.3950892857143 1.328125  C 13.1041666666667 1.27604166666666  12.7942708333333 1.25  12.4654017857143 1.25  C 12.1365327380952 1.25  11.7823660714286 1.3330078125  11.4029017857143 1.4990234375  C 11.0234375 1.6650390625  10.6740141369048 1.87337239583333  10.3546316964286 2.1240234375  C 10.0352492559524 2.37467447916666  9.76171875 2.60904947916666  9.53404017857143 2.8271484375  C 9.30636160714286 3.04524739583333  9.11662946428572 3.24544270833333  8.96484375 3.427734375  C 8.85100446428572 3.57096354166667  8.69605654761905 3.642578125  8.5 3.642578125  C 8.30394345238095 3.642578125  8.14899553571428 3.57096354166667  8.03515625 3.427734375  C 7.88337053571429 3.24544270833333  7.69363839285714 3.04524739583333  7.46595982142857 2.8271484375  C 7.23828125 2.60904947916666  6.96475074404762 2.37467447916666  6.64536830357143 2.1240234375  C 6.32598586309524 1.87337239583333  5.9765625 1.6650390625  5.59709821428571 1.4990234375  C 5.21763392857143 1.3330078125  4.86346726190476 1.25  4.53459821428571 1.25  C 4.20572916666667 1.25  3.89583333333333 1.27604166666666  3.60491071428571 1.328125  C 3.3139880952381 1.38020833333333  3.01674107142857 1.48111979166666  2.71316964285714 1.630859375  C 2.40959821428571 1.78059895833333  2.1518787202381 1.97428385416667  1.94001116071429 2.2119140625  C 1.72814360119048 2.44954427083333  1.5542224702381 2.77018229166666  1.41824776785714 3.173828125  C 1.28227306547619 3.57747395833333  1.21428571428571 4.04296875  1.21428571428571 4.5703125  C 1.21428571428571 5.6640625  1.80561755952381 6.81966145833333  2.98828125 8.037109375  L 8.5 13.505859375  L 14.0022321428571 8.046875  Z M 15.7952008928571 1.2109375  C 16.598400297619 2.01822916666667  17 3.13802083333333  17 4.5703125  C 17 6.00911458333333  16.2758556547619 7.47395833333333  14.8275669642857 8.96484375  L 8.91741071428571 14.82421875  C 8.80357142857143 14.94140625  8.66443452380952 15  8.5 15  C 8.33556547619048 15  8.19642857142857 14.94140625  8.08258928571428 14.82421875  L 2.16294642857143 8.9453125  C 2.09970238095238 8.89322916666667  2.01274181547619 8.80859375  1.90206473214286 8.69140625  C 1.79138764880952 8.57421875  1.61588541666667 8.36100260416667  1.37555803571429 8.0517578125  C 1.1352306547619 7.74251302083333  0.920200892857143 7.42513020833333  0.73046875 7.099609375  C 0.540736607142857 6.77408854166667  0.371558779761905 6.38020833333333  0.222935267857143 5.91796875  C 0.074311755952381 5.45572916666667  0 5.00651041666667  0 4.5703125  C 0 3.13802083333333  0.401599702380952 2.01822916666667  1.20479910714286 1.2109375  C 2.00799851190476 0.403645833333333  3.11793154761905 0  4.53459821428571 0  C 4.92671130952381 0  5.32672991071429 0.0699869791666657  5.73465401785714 0.209960937500001  C 6.142578125 0.349934895833332  6.52204241071429 0.538736979166666  6.873046875 0.7763671875  C 7.22405133928572 1.01399739583333  7.52604166666667 1.23697916666667  7.77901785714286 1.4453125  C 8.03199404761905 1.65364583333333  8.27232142857143 1.875  8.5 2.109375  C 8.72767857142857 1.875  8.96800595238095 1.65364583333333  9.22098214285714 1.4453125  C 9.47395833333333 1.23697916666667  9.77594866071429 1.01399739583333  10.126953125 0.7763671875  C 10.4779575892857 0.538736979166666  10.857421875 0.349934895833332  11.2653459821429 0.209960937500001  C 11.6732700892857 0.0699869791666657  12.0732886904762 0  12.4654017857143 0  C 13.882068452381 0  14.9920014880952 0.403645833333333  15.7952008928571 1.2109375  Z " fill-rule="nonzero" fill="#333333" stroke="none" transform="matrix(1 0 0 1 379 516 )" />
  </g>
</svg>