<?xml version="1.0" encoding="utf-8"?>
<svg version="1.1" xmlns:xlink="http://www.w3.org/1999/xlink" width="23px" height="18px" xmlns="http://www.w3.org/2000/svg">
  <g transform="matrix(1 0 0 1 -339 -513 )">
    <path d="M 7.73297991071429 6.439453125  C 8.05385044642857 6.732421875  8.21428571428572 7.0859375  8.21428571428572 7.5  C 8.21428571428572 7.9140625  8.05385044642857 8.267578125  7.73297991071429 8.560546875  C 7.412109375 8.853515625  7.02492559523809 9  6.57142857142857 9  C 6.11793154761905 9  5.73074776785714 8.853515625  5.40987723214286 8.560546875  C 5.08900669642857 8.267578125  4.92857142857143 7.9140625  4.92857142857143 7.5  C 4.92857142857143 7.0859375  5.08900669642857 6.732421875  5.40987723214286 6.439453125  C 5.73074776785714 6.146484375  6.11793154761905 6  6.57142857142857 6  C 7.02492559523809 6  7.412109375 6.146484375  7.73297991071429 6.439453125  Z M 12.6615513392857 6.439453125  C 12.982421875 6.732421875  13.1428571428571 7.0859375  13.1428571428571 7.5  C 13.1428571428571 7.9140625  12.982421875 8.267578125  12.6615513392857 8.560546875  C 12.3406808035714 8.853515625  11.9534970238095 9  11.5 9  C 11.0465029761905 9  10.6593191964286 8.853515625  10.3384486607143 8.560546875  C 10.017578125 8.267578125  9.85714285714286 7.9140625  9.85714285714286 7.5  C 9.85714285714286 7.0859375  10.017578125 6.732421875  10.3384486607143 6.439453125  C 10.6593191964286 6.146484375  11.0465029761905 6  11.5 6  C 11.9534970238095 6  12.3406808035714 6.146484375  12.6615513392857 6.439453125  Z M 17.5901227678571 6.439453125  C 17.9109933035714 6.732421875  18.0714285714286 7.0859375  18.0714285714286 7.5  C 18.0714285714286 7.9140625  17.9109933035714 8.267578125  17.5901227678571 8.560546875  C 17.2692522321429 8.853515625  16.882068452381 9  16.4285714285714 9  C 15.9750744047619 9  15.587890625 8.853515625  15.2670200892857 8.560546875  C 14.9461495535714 8.267578125  14.7857142857143 7.9140625  14.7857142857143 7.5  C 14.7857142857143 7.0859375  14.9461495535714 6.732421875  15.2670200892857 6.439453125  C 15.587890625 6.146484375  15.9750744047619 6  16.4285714285714 6  C 16.882068452381 6  17.2692522321429 6.146484375  17.5901227678571 6.439453125  Z M 16.396484375 2.314453125  C 14.877697172619 1.771484375  13.2455357142857 1.5  11.5 1.5  C 9.75446428571428 1.5  8.12230282738095 1.771484375  6.603515625 2.314453125  C 5.08472842261905 2.857421875  3.87825520833333 3.58984375  2.98409598214286 4.51171875  C 2.08993675595238 5.43359375  1.64285714285714 6.4296875  1.64285714285714 7.5  C 1.64285714285714 8.375  1.9487537202381 9.208984375  2.560546875 10.001953125  C 3.1723400297619 10.794921875  4.03441220238095 11.48046875  5.14676339285714 12.05859375  L 6.26339285714286 12.64453125  L 5.91685267857143 13.76953125  C 5.71149553571429 14.48046875  5.41201636904762 15.15234375  5.01841517857143 15.78515625  C 6.31901041666667 15.29296875  7.49553571428571 14.625  8.54799107142857 13.78125  L 9.09988839285714 13.3359375  L 9.83147321428572 13.40625  C 10.421875 13.46875  10.9780505952381 13.5  11.5 13.5  C 13.2455357142857 13.5  14.877697172619 13.228515625  16.396484375 12.685546875  C 17.915271577381 12.142578125  19.1217447916667 11.41015625  20.0159040178571 10.48828125  C 20.9100632440476 9.56640625  21.3571428571429 8.5703125  21.3571428571429 7.5  C 21.3571428571429 6.4296875  20.9100632440476 5.43359375  20.0159040178571 4.51171875  C 19.1217447916667 3.58984375  17.915271577381 2.857421875  16.396484375 2.314453125  Z M 22.0887276785714 4.587890625  C 22.6962425595238 5.513671875  23 6.484375  23 7.5  C 23 8.859375  22.4866071428571 10.115234375  21.4598214285714 11.267578125  C 20.4330357142857 12.419921875  19.038318452381 13.330078125  17.2756696428571 13.998046875  C 15.5130208333333 14.666015625  13.5877976190476 15  11.5 15  C 10.9010416666667 15  10.2806919642857 14.96875  9.63895089285714 14.90625  C 7.94475446428571 16.2734375  5.97674851190476 17.21875  3.73493303571429 17.7421875  C 3.31566220238095 17.8515625  2.82793898809524 17.9375  2.27176339285714 18  L 2.20758928571429 18  C 2.07924107142857 18  1.96372767857143 17.958984375  1.86104910714286 17.876953125  C 1.75837053571429 17.794921875  1.68991815476191 17.6875  1.65569196428571 17.5546875  L 1.65569196428571 17.54296875  C 1.63002232142857 17.51171875  1.62788318452381 17.46484375  1.64927455357143 17.40234375  C 1.67066592261905 17.33984375  1.6792224702381 17.30078125  1.67494419642857 17.28515625  C 1.67066592261905 17.26953125  1.68991815476191 17.232421875  1.73270089285714 17.173828125  L 1.80970982142857 17.068359375  C 1.80970982142857 17.068359375  1.83965773809524 17.03515625  1.89955357142857 16.96875  C 1.95944940476191 16.90234375  1.9936755952381 16.8671875  2.00223214285714 16.86328125  C 2.06212797619048 16.80078125  2.19475446428571 16.666015625  2.40011160714286 16.458984375  C 2.60546875 16.251953125  2.75306919642857 16.103515625  2.84291294642857 16.013671875  C 2.93275669642857 15.923828125  3.06538318452381 15.76953125  3.24079241071429 15.55078125  C 3.41620163690476 15.33203125  3.55524553571429 15.1328125  3.65792410714286 14.953125  C 3.76060267857143 14.7734375  3.87611607142857 14.54296875  4.00446428571429 14.26171875  C 4.1328125 13.98046875  4.24404761904762 13.68359375  4.33816964285714 13.37109375  C 2.99479166666667 12.67578125  1.93591889880952 11.81640625  1.16155133928571 10.79296875  C 0.387183779761905 9.76953125  0 8.671875  0 7.5  C 0 6.484375  0.30375744047619 5.513671875  0.911272321428571 4.587890625  C 1.51878720238095 3.662109375  2.3359375 2.86328125  3.36272321428571 2.19140625  C 4.38950892857143 1.51953125  5.61309523809524 0.986328124999998  7.03348214285714 0.591796874999999  C 8.45386904761905 0.197265624999999  9.94270833333333 0  11.5 0  C 13.0572916666667 0  14.546130952381 0.197265624999999  15.9665178571429 0.591796874999999  C 17.3869047619048 0.986328124999998  18.6104910714286 1.51953125  19.6372767857143 2.19140625  C 20.6640625 2.86328125  21.4812127976191 3.662109375  22.0887276785714 4.587890625  Z " fill-rule="nonzero" fill="#333333" stroke="none" transform="matrix(1 0 0 1 339 513 )" />
  </g>
</svg>