<?xml version="1.0" encoding="utf-8"?>
<svg version="1.1" xmlns:xlink="http://www.w3.org/1999/xlink" width="23px" height="17px" xmlns="http://www.w3.org/2000/svg">
  <g transform="matrix(1 0 0 1 -312 -141 )">
    <path d="M 17.9559151785713 10.0162760416667  C 18.0329241071429 10.0826822916667  18.0714285714287 10.1675347222222  18.0714285714287 10.2708333333333  L 18.0714285714287 13.8125  C 18.0714285714287 14.6905381944444  17.7099144345237 15.4412977430556  16.9868861607142 16.0647786458333  C 16.2638578869048 16.6882595486111  15.3932291666666 17  14.375 17  L 3.69642857142867 17  C 2.67819940476193 17  1.80757068452374 16.6882595486111  1.08454241071422 16.0647786458333  C 0.361514136904816 15.4412977430556  0 14.6905381944444  0 13.8125  L 0 4.60416666666669  C 0 3.7261284722222  0.361514136904816 2.97536892361111  1.08454241071422 2.35188802083331  C 1.80757068452374 1.72840711805557  2.67819940476193 1.41666666666669  3.69642857142867 1.41666666666669  L 12.7321428571429 1.41666666666669  C 12.8519345238094 1.41666666666669  12.9503348214287 1.44986979166669  13.02734375 1.51627604166669  C 13.1043526785713 1.58268229166669  13.1428571428571 1.6675347222222  13.1428571428571 1.77083333333331  L 13.1428571428571 2.47916666666669  C 13.1428571428571 2.58246527777777  13.1043526785713 2.66731770833331  13.02734375 2.73372395833331  C 12.9503348214287 2.80013020833331  12.8519345238094 2.83333333333331  12.7321428571429 2.83333333333331  L 3.69642857142867 2.83333333333331  C 3.13169642857133 2.83333333333331  2.64825148809518 3.00672743055557  2.24609375 3.353515625  C 1.84393601190482 3.70030381944443  1.64285714285711 4.1171875  1.64285714285711 4.60416666666669  L 1.64285714285711 13.8125  C 1.64285714285711 14.2994791666667  1.84393601190482 14.7163628472222  2.24609375 15.0631510416667  C 2.64825148809518 15.4099392361111  3.13169642857133 15.5833333333333  3.69642857142867 15.5833333333333  L 14.375 15.5833333333333  C 14.9397321428571 15.5833333333333  15.4231770833334 15.4099392361111  15.8253348214287 15.0631510416667  C 16.2274925595237 14.7163628472222  16.4285714285713 14.2994791666667  16.4285714285713 13.8125  L 16.4285714285713 10.2708333333333  C 16.4285714285713 10.1675347222222  16.4670758928571 10.0826822916667  16.5440848214287 10.0162760416667  C 16.62109375 9.94986979166669  16.719494047619 9.91666666666669  16.8392857142858 9.91666666666669  L 17.6607142857142 9.91666666666669  C 17.780505952381 9.91666666666669  17.87890625 9.94986979166669  17.9559151785713 10.0162760416667  Z M 22.7561383928571 0.210286458333314  C 22.918712797619 0.350477430555571  23 0.516493055555571  23 0.708333333333314  L 23 6.375  C 23 6.56684027777777  22.918712797619 6.73285590277777  22.7561383928571 6.873046875  C 22.5935639880952 7.01323784722223  22.4010416666666 7.08333333333331  22.1785714285713 7.08333333333331  C 21.9561011904763 7.08333333333331  21.7635788690477 7.01323784722223  21.6010044642858 6.873046875  L 19.3420758928571 4.92513020833331  L 10.9737723214287 12.1412760416667  C 10.8882068452381 12.2150607638889  10.789806547619 12.251953125  10.6785714285713 12.251953125  C 10.5673363095237 12.251953125  10.4689360119048 12.2150607638889  10.3833705357142 12.1412760416667  L 8.92020089285711 10.8795572916667  C 8.83463541666663 10.8057725694444  8.79185267857133 10.7209201388889  8.79185267857133 10.625  C 8.79185267857133 10.5290798611111  8.83463541666663 10.4442274305556  8.92020089285711 10.3704427083333  L 17.2885044642858 3.154296875  L 15.0295758928571 1.20638020833331  C 14.8670014880952 1.06618923611111  14.7857142857142 0.900173611111114  14.7857142857142 0.708333333333314  C 14.7857142857142 0.516493055555571  14.8670014880952 0.350477430555571  15.0295758928571 0.210286458333314  C 15.192150297619 0.0700954861111143  15.3846726190477 0  15.6071428571429 0  L 22.1785714285713 0  C 22.4010416666666 0  22.5935639880952 0.0700954861111143  22.7561383928571 0.210286458333314  Z " fill-rule="nonzero" fill="#000000" stroke="none" transform="matrix(1 0 0 1 312 141 )" />
  </g>
</svg>