<?xml version="1.0" encoding="utf-8"?>
<svg version="1.1" xmlns:xlink="http://www.w3.org/1999/xlink" width="110px" height="70px" xmlns="http://www.w3.org/2000/svg">
  <defs>
    <linearGradient gradientUnits="userSpaceOnUse" x1="875" y1="146" x2="875" y2="216" id="LinearGradient11">
      <stop id="Stop12" stop-color="#ffffff" offset="0" />
      <stop id="Stop13" stop-color="#f2f2f2" offset="0" />
      <stop id="Stop14" stop-color="#e4e4e4" offset="1" />
      <stop id="Stop15" stop-color="#ffffff" offset="1" />
    </linearGradient>
  </defs>
  <g transform="matrix(1 0 0 1 -820 -146 )">
    <path d="M 830.5 215.5  L 929.5 215.5  L 929.5 156.5  L 924.5 156.5  L 924.5 151.5  L 919.5 151.5  L 919.5 146.5  L 820.5 146.5  L 820.5 205.5  L 825.5 205.5  L 825.5 210.5  L 830.5 210.5  L 830.5 215.5  Z " fill-rule="nonzero" fill="url(#LinearGradient11)" stroke="none" />
    <path d="M 830.5 215.5  L 929.5 215.5  L 929.5 156.5  L 924.5 156.5  L 924.5 151.5  L 919.5 151.5  L 919.5 146.5  L 820.5 146.5  L 820.5 205.5  L 825.5 205.5  L 825.5 210.5  L 830.5 210.5  L 830.5 215.5  Z " stroke-width="1" stroke="#797979" fill="none" />
    <path d="M 924.5 157  L 924.5 210.5  L 831 210.5  M 919.5 152  L 919.5 205.5  L 826 205.5  " stroke-width="1" stroke="#797979" fill="none" />
  </g>
</svg>